%TF.GenerationSoftware,KiCad,Pcbnew,10.0.3*%
%TF.CreationDate,2026-05-26T19:34:38+02:00*%
%TF.ProjectId,spell_tome_bottom,7370656c-6c5f-4746-9f6d-655f626f7474,rev?*%
%TF.SameCoordinates,Original*%
%TF.FileFunction,Copper,L2,Bot*%
%TF.FilePolarity,Positive*%
%FSLAX46Y46*%
G04 Gerber Fmt 4.6, Leading zero omitted, Abs format (unit mm)*
G04 Created by KiCad (PCBNEW 10.0.3) date 2026-05-26 19:34:38*
%MOMM*%
%LPD*%
G01*
G04 APERTURE LIST*
G04 Aperture macros list*
%AMRoundRect*
0 Rectangle with rounded corners*
0 $1 Rounding radius*
0 $2 $3 $4 $5 $6 $7 $8 $9 X,Y pos of 4 corners*
0 Add a 4 corners polygon primitive as box body*
4,1,4,$2,$3,$4,$5,$6,$7,$8,$9,$2,$3,0*
0 Add four circle primitives for the rounded corners*
1,1,$1+$1,$2,$3*
1,1,$1+$1,$4,$5*
1,1,$1+$1,$6,$7*
1,1,$1+$1,$8,$9*
0 Add four rect primitives between the rounded corners*
20,1,$1+$1,$2,$3,$4,$5,0*
20,1,$1+$1,$4,$5,$6,$7,0*
20,1,$1+$1,$6,$7,$8,$9,0*
20,1,$1+$1,$8,$9,$2,$3,0*%
G04 Aperture macros list end*
%TA.AperFunction,ComponentPad*%
%ADD10R,1.700000X1.700000*%
%TD*%
%TA.AperFunction,ComponentPad*%
%ADD11C,1.700000*%
%TD*%
%TA.AperFunction,SMDPad,CuDef*%
%ADD12RoundRect,0.152400X0.609600X-1.063600X0.609600X1.063600X-0.609600X1.063600X-0.609600X-1.063600X0*%
%TD*%
%TA.AperFunction,ComponentPad*%
%ADD13C,1.524000*%
%TD*%
%TA.AperFunction,SMDPad,CuDef*%
%ADD14RoundRect,0.152400X-0.609600X1.063600X-0.609600X-1.063600X0.609600X-1.063600X0.609600X1.063600X0*%
%TD*%
%TA.AperFunction,ViaPad*%
%ADD15C,0.600000*%
%TD*%
%TA.AperFunction,Conductor*%
%ADD16C,0.500000*%
%TD*%
G04 APERTURE END LIST*
D10*
%TO.P,J2,1,Pin_1_1*%
%TO.N,BAT+*%
X106883200Y-102997000D03*
D11*
%TO.P,J2,2,Pin_2_2*%
%TO.N,GND*%
X109423200Y-102997000D03*
%TD*%
D10*
%TO.P,J1,1,Pin_1_1*%
%TO.N,3V3*%
X104140000Y-71729600D03*
D11*
%TO.P,J1,2,Pin_2_2*%
%TO.N,GND*%
X106680000Y-71729600D03*
%TO.P,J1,3,Pin_3_3*%
%TO.N,SCL*%
X109220000Y-71729600D03*
%TO.P,J1,4,Pin_4_4*%
%TO.N,SDA*%
X111760000Y-71729600D03*
%TD*%
D12*
%TO.P,U1,1,GPIO26/ADC0/A0_1*%
%TO.N,UP*%
X81845300Y-85093200D03*
D13*
X81845300Y-85928200D03*
D12*
%TO.P,U1,2,GPIO27/ADC1/A1_2*%
%TO.N,DOWN*%
X84385300Y-85093200D03*
D13*
X84385300Y-85928200D03*
D12*
%TO.P,U1,3,GPIO28/ADC2/A2_3*%
%TO.N,SELECT*%
X86925300Y-85093200D03*
D13*
X86925300Y-85928200D03*
D12*
%TO.P,U1,4,GPIO29/ADC3/A3_4*%
%TO.N,BACK*%
X89465300Y-85093200D03*
D13*
X89465300Y-85928200D03*
D12*
%TO.P,U1,5,GPIO6/SDA_5*%
%TO.N,SDA*%
X92005300Y-85093200D03*
D13*
X92005300Y-85928200D03*
D12*
%TO.P,U1,6,GPIO7/SCL_6*%
%TO.N,SCL*%
X94545300Y-85093200D03*
D13*
X94545300Y-85928200D03*
D12*
%TO.P,U1,7,GPIO0/TX_7*%
%TO.N,red*%
X97085300Y-85093200D03*
D13*
X97085300Y-85928200D03*
%TO.P,U1,8,GPIO1/RX_8*%
%TO.N,green*%
X97085300Y-101168200D03*
D14*
X97085300Y-102003200D03*
D13*
%TO.P,U1,9,GPIO2/SCK_9*%
%TO.N,blue*%
X94545300Y-101168200D03*
D14*
X94545300Y-102003200D03*
D13*
%TO.P,U1,10,GPIO4/MISO_10*%
%TO.N,unconnected-(U1-GPIO4{slash}MISO-Pad10)*%
X92005300Y-101168200D03*
D14*
%TO.N,unconnected-(U1-GPIO4{slash}MISO-Pad10)_1*%
X92005300Y-102003200D03*
D13*
%TO.P,U1,11,GPIO3/MOSI_11*%
%TO.N,unconnected-(U1-GPIO3{slash}MOSI-Pad11)_1*%
X89465300Y-101168200D03*
D14*
%TO.N,unconnected-(U1-GPIO3{slash}MOSI-Pad11)*%
X89465300Y-102003200D03*
D13*
%TO.P,U1,12,3V3_12*%
%TO.N,3V3*%
X86925300Y-101168200D03*
D14*
X86925300Y-102003200D03*
D13*
%TO.P,U1,13,GND_13*%
%TO.N,GND*%
X84385300Y-101168200D03*
D14*
X84385300Y-102003200D03*
D13*
%TO.P,U1,14,VBUS_14*%
%TO.N,unconnected-(U1-VBUS-Pad14)_1*%
X81845300Y-101168200D03*
D14*
%TO.N,unconnected-(U1-VBUS-Pad14)*%
X81845300Y-102003200D03*
%TD*%
D15*
%TO.N,GND*%
X131699000Y-120497600D03*
X137566400Y-120116600D03*
X133883400Y-120116600D03*
X140385800Y-120942600D03*
%TO.N,3V3*%
X130378200Y-118287800D03*
X125323600Y-118287800D03*
%TD*%
%TO.N,GND*%
D16*
X137566400Y-120116600D02*
X133883400Y-120116600D01*
X133883400Y-120116600D02*
X132080000Y-120116600D01*
X139559800Y-120116600D02*
X140385800Y-120942600D01*
X132080000Y-120116600D02*
X131699000Y-120497600D01*
X137566400Y-120116600D02*
X139559800Y-120116600D01*
%TO.N,3V3*%
X125323600Y-118287800D02*
X103209900Y-118287800D01*
X104140000Y-83953500D02*
X104140000Y-71729600D01*
X130378200Y-118287800D02*
X125323600Y-118287800D01*
X103209900Y-118287800D02*
X86925300Y-102003200D01*
X86925300Y-101168200D02*
X104140000Y-83953500D01*
%TD*%
%TA.AperFunction,Conductor*%
%TO.N,GND*%
G36*
X137890256Y-59201785D02*
G01*
X137936104Y-59254509D01*
X137947400Y-59306218D01*
X137947400Y-59842401D01*
X138150600Y-60604401D01*
X138365750Y-60891267D01*
X138379200Y-60909200D01*
X138607800Y-61112400D01*
X138696054Y-61118033D01*
X138715701Y-61120880D01*
X138736446Y-61125610D01*
X138746616Y-61128389D01*
X138806128Y-61147415D01*
X138821377Y-61153429D01*
X138843541Y-61163911D01*
X138868534Y-61168457D01*
X138868535Y-61168457D01*
X138876448Y-61169896D01*
X138908297Y-61180079D01*
X138940994Y-61181637D01*
X139013169Y-61194765D01*
X139035767Y-61201135D01*
X139038637Y-61202246D01*
X139041834Y-61203485D01*
X139084927Y-61208145D01*
X139093765Y-61209425D01*
X139117242Y-61213696D01*
X139136418Y-61217185D01*
X139136419Y-61217184D01*
X139136425Y-61217186D01*
X139142916Y-61216653D01*
X139166376Y-61216955D01*
X139235552Y-61224438D01*
X139251563Y-61227966D01*
X139251582Y-61227874D01*
X139259551Y-61229448D01*
X139259554Y-61229449D01*
X139314420Y-61232969D01*
X139369050Y-61238879D01*
X139380002Y-61237178D01*
X139475068Y-61243278D01*
X139488127Y-61245678D01*
X139488260Y-61244897D01*
X139496266Y-61246252D01*
X139496271Y-61246254D01*
X139555319Y-61248428D01*
X139614244Y-61252210D01*
X139621037Y-61250849D01*
X139732621Y-61254958D01*
X139746165Y-61256204D01*
X139750973Y-61256913D01*
X139750981Y-61256916D01*
X139810319Y-61257846D01*
X139812825Y-61257912D01*
X139872139Y-61260097D01*
X139872147Y-61260095D01*
X139876986Y-61259639D01*
X139890582Y-61259105D01*
X140279634Y-61265206D01*
X140280853Y-61265547D01*
X140345511Y-61266239D01*
X140410139Y-61267253D01*
X140410142Y-61267252D01*
X140415040Y-61267329D01*
X140420519Y-61267042D01*
X140879803Y-61271961D01*
X140882347Y-61272014D01*
X141367790Y-61287280D01*
X141372535Y-61287522D01*
X141373078Y-61287560D01*
X141432000Y-61307290D01*
X141703749Y-61483927D01*
X141749230Y-61536967D01*
X141760062Y-61582731D01*
X141782798Y-62128368D01*
X141782801Y-62128417D01*
X141833142Y-62707342D01*
X141833608Y-62717877D01*
X141884391Y-93187336D01*
X141883963Y-93197841D01*
X141833600Y-93802204D01*
X141921859Y-94876017D01*
X141922276Y-94886175D01*
X141922276Y-95119607D01*
X141922276Y-95251391D01*
X141935213Y-95299671D01*
X141956384Y-95378684D01*
X141957424Y-95381195D01*
X141966445Y-95418488D01*
X141985999Y-95656399D01*
X141986000Y-95656400D01*
X143027394Y-95884999D01*
X143027395Y-95884999D01*
X143027400Y-95885000D01*
X143296827Y-95867038D01*
X143365028Y-95882219D01*
X143414194Y-95931863D01*
X143427293Y-95969812D01*
X143559422Y-96740565D01*
X143561113Y-96756750D01*
X143636999Y-98729782D01*
X143691615Y-99936787D01*
X143723291Y-100636842D01*
X143732246Y-100834736D01*
X143732373Y-100840341D01*
X143732373Y-106797918D01*
X143732116Y-106805901D01*
X143687800Y-107492793D01*
X143687800Y-107492799D01*
X143716745Y-108665117D01*
X143716741Y-108671394D01*
X143702214Y-109231401D01*
X143702155Y-109233179D01*
X143686145Y-109630374D01*
X143686086Y-109631681D01*
X143673886Y-109871450D01*
X143671699Y-109889159D01*
X143376943Y-111382592D01*
X143344650Y-111444552D01*
X143283986Y-111479216D01*
X143257721Y-111482558D01*
X142062200Y-111506000D01*
X142062199Y-111506000D01*
X142059216Y-111680152D01*
X142038386Y-111746845D01*
X142022922Y-111765702D01*
X142022280Y-111766343D01*
X142022273Y-111766353D01*
X141956385Y-111880473D01*
X141956385Y-111880474D01*
X141956384Y-111880476D01*
X141956384Y-111880477D01*
X141924217Y-112000528D01*
X141922276Y-112007771D01*
X141922276Y-119672989D01*
X141922258Y-119675113D01*
X141859000Y-123367811D01*
X141859000Y-154609803D01*
X141883564Y-155543260D01*
X141869879Y-155603233D01*
X141427828Y-156462778D01*
X141426534Y-156465226D01*
X140960877Y-157323014D01*
X140915272Y-157370437D01*
X140026779Y-157898731D01*
X139979444Y-157915107D01*
X138844389Y-158063158D01*
X138828351Y-158064200D01*
X80076709Y-158064200D01*
X80045409Y-158060185D01*
X78920078Y-157766620D01*
X78870680Y-157740783D01*
X78438610Y-157370437D01*
X78194185Y-157160930D01*
X78171711Y-157135567D01*
X77687670Y-156409506D01*
X77668703Y-156362103D01*
X77497290Y-155382604D01*
X77495436Y-155360823D01*
X77496722Y-154971111D01*
X78565900Y-154971111D01*
X78565900Y-155213688D01*
X78597561Y-155454185D01*
X78660347Y-155688504D01*
X78753173Y-155912605D01*
X78753177Y-155912614D01*
X78775374Y-155951061D01*
X78874464Y-156122689D01*
X78874466Y-156122692D01*
X78874467Y-156122693D01*
X79022133Y-156315136D01*
X79022139Y-156315143D01*
X79193656Y-156486660D01*
X79193663Y-156486666D01*
X79212452Y-156501083D01*
X79386111Y-156634336D01*
X79596188Y-156755624D01*
X79676920Y-156789064D01*
X79802089Y-156840911D01*
X79820300Y-156848454D01*
X80054611Y-156911238D01*
X80234986Y-156934984D01*
X80295111Y-156942900D01*
X80295112Y-156942900D01*
X80537689Y-156942900D01*
X80585788Y-156936567D01*
X80778189Y-156911238D01*
X81012500Y-156848454D01*
X81236612Y-156755624D01*
X81446689Y-156634336D01*
X81639138Y-156486665D01*
X81810665Y-156315138D01*
X81958336Y-156122689D01*
X82079624Y-155912612D01*
X82172454Y-155688500D01*
X82235238Y-155454189D01*
X82266900Y-155213688D01*
X82266900Y-154971112D01*
X82266900Y-154971111D01*
X136427100Y-154971111D01*
X136427100Y-155213688D01*
X136458761Y-155454185D01*
X136521547Y-155688504D01*
X136614373Y-155912605D01*
X136614377Y-155912614D01*
X136636574Y-155951061D01*
X136735664Y-156122689D01*
X136735666Y-156122692D01*
X136735667Y-156122693D01*
X136883333Y-156315136D01*
X136883339Y-156315143D01*
X137054856Y-156486660D01*
X137054863Y-156486666D01*
X137073652Y-156501083D01*
X137247311Y-156634336D01*
X137457388Y-156755624D01*
X137538120Y-156789064D01*
X137663289Y-156840911D01*
X137681500Y-156848454D01*
X137915811Y-156911238D01*
X138096186Y-156934984D01*
X138156311Y-156942900D01*
X138156312Y-156942900D01*
X138398889Y-156942900D01*
X138446988Y-156936567D01*
X138639389Y-156911238D01*
X138873700Y-156848454D01*
X139097812Y-156755624D01*
X139307889Y-156634336D01*
X139500338Y-156486665D01*
X139671865Y-156315138D01*
X139819536Y-156122689D01*
X139940824Y-155912612D01*
X140033654Y-155688500D01*
X140096438Y-155454189D01*
X140128100Y-155213688D01*
X140128100Y-154971112D01*
X140096438Y-154730611D01*
X140033654Y-154496300D01*
X139940824Y-154272188D01*
X139819536Y-154062111D01*
X139671865Y-153869662D01*
X139671860Y-153869656D01*
X139500343Y-153698139D01*
X139500336Y-153698133D01*
X139307893Y-153550467D01*
X139307892Y-153550466D01*
X139307889Y-153550464D01*
X139097812Y-153429176D01*
X139097805Y-153429173D01*
X138873704Y-153336347D01*
X138639385Y-153273561D01*
X138398889Y-153241900D01*
X138398888Y-153241900D01*
X138156312Y-153241900D01*
X138156311Y-153241900D01*
X137915814Y-153273561D01*
X137681495Y-153336347D01*
X137457394Y-153429173D01*
X137457385Y-153429177D01*
X137247306Y-153550467D01*
X137054863Y-153698133D01*
X137054856Y-153698139D01*
X136883339Y-153869656D01*
X136883333Y-153869663D01*
X136735667Y-154062106D01*
X136614377Y-154272185D01*
X136614373Y-154272194D01*
X136521547Y-154496295D01*
X136458761Y-154730614D01*
X136427100Y-154971111D01*
X82266900Y-154971111D01*
X82235238Y-154730611D01*
X82172454Y-154496300D01*
X82079624Y-154272188D01*
X81958336Y-154062111D01*
X81810665Y-153869662D01*
X81810660Y-153869656D01*
X81639143Y-153698139D01*
X81639136Y-153698133D01*
X81446693Y-153550467D01*
X81446692Y-153550466D01*
X81446689Y-153550464D01*
X81236612Y-153429176D01*
X81236605Y-153429173D01*
X81012504Y-153336347D01*
X80778185Y-153273561D01*
X80537689Y-153241900D01*
X80537688Y-153241900D01*
X80295112Y-153241900D01*
X80295111Y-153241900D01*
X80054614Y-153273561D01*
X79820295Y-153336347D01*
X79596194Y-153429173D01*
X79596185Y-153429177D01*
X79386106Y-153550467D01*
X79193663Y-153698133D01*
X79193656Y-153698139D01*
X79022139Y-153869656D01*
X79022133Y-153869663D01*
X78874467Y-154062106D01*
X78753177Y-154272185D01*
X78753173Y-154272194D01*
X78660347Y-154496295D01*
X78597561Y-154730614D01*
X78565900Y-154971111D01*
X77496722Y-154971111D01*
X77496737Y-154966644D01*
X77498883Y-154316593D01*
X77571600Y-132283200D01*
X75927566Y-131195608D01*
X75914326Y-131185509D01*
X75147980Y-130514956D01*
X75110490Y-130455997D01*
X75105728Y-130426449D01*
X75006344Y-127867318D01*
X75006279Y-127859868D01*
X75031373Y-126680452D01*
X75033640Y-126659343D01*
X75233783Y-125633610D01*
X75236259Y-125623292D01*
X75326943Y-125305898D01*
X75361564Y-125249313D01*
X76087540Y-124571735D01*
X76111349Y-124554316D01*
X76911200Y-124104400D01*
X77393800Y-123799600D01*
X77571600Y-109524800D01*
X76098400Y-108381800D01*
X75270197Y-107797186D01*
X75226781Y-107742445D01*
X75222670Y-107730612D01*
X75061054Y-107176502D01*
X75056258Y-107148134D01*
X75006202Y-106172035D01*
X74930449Y-104808483D01*
X74930605Y-104792331D01*
X75006200Y-103784400D01*
X75006200Y-102875600D01*
X75020788Y-102817247D01*
X75079460Y-102707238D01*
X75400491Y-102105303D01*
X75432745Y-102066587D01*
X76391067Y-101304844D01*
X76417334Y-101288839D01*
X77339960Y-100873658D01*
X80582800Y-100873658D01*
X80582800Y-103132741D01*
X80585712Y-103169746D01*
X80585713Y-103169752D01*
X80631734Y-103328154D01*
X80631735Y-103328157D01*
X80631736Y-103328159D01*
X80646147Y-103352526D01*
X80715705Y-103470143D01*
X80715712Y-103470152D01*
X80832347Y-103586787D01*
X80832351Y-103586790D01*
X80832353Y-103586792D01*
X80974341Y-103670764D01*
X81016116Y-103682901D01*
X81132747Y-103716786D01*
X81132750Y-103716786D01*
X81132752Y-103716787D01*
X81169766Y-103719700D01*
X81169774Y-103719700D01*
X82520826Y-103719700D01*
X82520834Y-103719700D01*
X82557848Y-103716787D01*
X82557850Y-103716786D01*
X82557852Y-103716786D01*
X82599954Y-103704554D01*
X82716259Y-103670764D01*
X82858247Y-103586792D01*
X82974892Y-103470147D01*
X82975076Y-103469837D01*
X83008858Y-103412714D01*
X83059926Y-103365030D01*
X83128668Y-103352526D01*
X83193258Y-103379171D01*
X83222322Y-103412713D01*
X83256103Y-103469834D01*
X83256110Y-103469843D01*
X83372656Y-103586389D01*
X83372665Y-103586396D01*
X83514543Y-103670302D01*
X83514546Y-103670303D01*
X83672826Y-103716288D01*
X83672832Y-103716289D01*
X83709818Y-103719199D01*
X85060769Y-103719199D01*
X85060791Y-103719198D01*
X85097766Y-103716289D01*
X85256057Y-103670302D01*
X85397934Y-103586396D01*
X85397943Y-103586389D01*
X85514489Y-103469843D01*
X85514493Y-103469837D01*
X85548276Y-103412714D01*
X85599345Y-103365030D01*
X85668087Y-103352526D01*
X85732676Y-103379171D01*
X85761740Y-103412711D01*
X85795708Y-103470147D01*
X85795710Y-103470149D01*
X85795712Y-103470152D01*
X85912347Y-103586787D01*
X85912351Y-103586790D01*
X85912353Y-103586792D01*
X86054341Y-103670764D01*
X86096116Y-103682901D01*
X86212747Y-103716786D01*
X86212750Y-103716786D01*
X86212752Y-103716787D01*
X86249766Y-103719700D01*
X87529070Y-103719700D01*
X87596109Y-103739385D01*
X87616751Y-103756019D01*
X102731480Y-118870748D01*
X102731484Y-118870751D01*
X102854398Y-118952880D01*
X102854411Y-118952887D01*
X102961369Y-118997190D01*
X102990987Y-119009458D01*
X102990991Y-119009458D01*
X102990992Y-119009459D01*
X103135979Y-119038300D01*
X103135982Y-119038300D01*
X103283817Y-119038300D01*
X125018996Y-119038300D01*
X125066444Y-119047737D01*
X125090103Y-119057537D01*
X125090108Y-119057538D01*
X125090111Y-119057539D01*
X125244753Y-119088299D01*
X125244756Y-119088300D01*
X125244758Y-119088300D01*
X125402444Y-119088300D01*
X125402445Y-119088299D01*
X125478752Y-119073120D01*
X125557088Y-119057539D01*
X125557089Y-119057538D01*
X125557097Y-119057537D01*
X125580755Y-119047737D01*
X125628204Y-119038300D01*
X130073596Y-119038300D01*
X130121044Y-119047737D01*
X130144703Y-119057537D01*
X130144708Y-119057538D01*
X130144711Y-119057539D01*
X130299353Y-119088299D01*
X130299356Y-119088300D01*
X130299358Y-119088300D01*
X130457044Y-119088300D01*
X130457045Y-119088299D01*
X130611697Y-119057537D01*
X130757379Y-118997194D01*
X130888489Y-118909589D01*
X130999989Y-118798089D01*
X131087594Y-118666979D01*
X131147937Y-118521297D01*
X131178700Y-118366642D01*
X131178700Y-118208958D01*
X131178700Y-118208955D01*
X131178699Y-118208953D01*
X131147938Y-118054310D01*
X131147937Y-118054303D01*
X131147935Y-118054298D01*
X131087597Y-117908627D01*
X131087590Y-117908614D01*
X130999989Y-117777511D01*
X130999986Y-117777507D01*
X130888492Y-117666013D01*
X130888488Y-117666010D01*
X130757385Y-117578409D01*
X130757372Y-117578402D01*
X130611701Y-117518064D01*
X130611689Y-117518061D01*
X130457045Y-117487300D01*
X130457042Y-117487300D01*
X130299358Y-117487300D01*
X130299355Y-117487300D01*
X130144711Y-117518060D01*
X130144706Y-117518062D01*
X130144704Y-117518062D01*
X130144703Y-117518063D01*
X130121044Y-117527862D01*
X130073596Y-117537300D01*
X125628204Y-117537300D01*
X125580755Y-117527862D01*
X125557097Y-117518063D01*
X125557093Y-117518062D01*
X125557088Y-117518060D01*
X125402445Y-117487300D01*
X125402442Y-117487300D01*
X125244758Y-117487300D01*
X125244755Y-117487300D01*
X125090111Y-117518060D01*
X125090106Y-117518062D01*
X125090104Y-117518062D01*
X125090103Y-117518063D01*
X125066444Y-117527862D01*
X125018996Y-117537300D01*
X103572129Y-117537300D01*
X103505090Y-117517615D01*
X103484448Y-117500981D01*
X90839763Y-104856295D01*
X90756140Y-104772672D01*
X141383306Y-104772672D01*
X141383306Y-104877093D01*
X141400528Y-105007914D01*
X141400529Y-105007919D01*
X141400530Y-105007925D01*
X141400531Y-105007927D01*
X141427556Y-105108787D01*
X141427559Y-105108797D01*
X141478054Y-105230702D01*
X141478056Y-105230706D01*
X141530267Y-105321138D01*
X141530270Y-105321142D01*
X141530274Y-105321148D01*
X141610597Y-105425825D01*
X141610601Y-105425830D01*
X141684437Y-105499666D01*
X141684441Y-105499669D01*
X141789118Y-105579992D01*
X141789121Y-105579994D01*
X141789129Y-105580000D01*
X141879561Y-105632211D01*
X142001479Y-105682711D01*
X142102342Y-105709737D01*
X142194742Y-105721901D01*
X142233173Y-105726961D01*
X142233174Y-105726961D01*
X142337595Y-105726961D01*
X142367299Y-105723050D01*
X142468426Y-105709737D01*
X142569289Y-105682711D01*
X142691207Y-105632211D01*
X142781639Y-105580000D01*
X142886331Y-105499666D01*
X142960167Y-105425830D01*
X143040501Y-105321138D01*
X143092712Y-105230706D01*
X143143212Y-105108788D01*
X143170238Y-105007925D01*
X143187462Y-104877093D01*
X143187462Y-104772673D01*
X143170238Y-104641841D01*
X143143212Y-104540978D01*
X143092712Y-104419060D01*
X143040501Y-104328628D01*
X142960167Y-104223936D01*
X142886331Y-104150100D01*
X142837031Y-104112270D01*
X142781649Y-104069773D01*
X142781643Y-104069769D01*
X142781639Y-104069766D01*
X142691207Y-104017555D01*
X142691203Y-104017553D01*
X142569298Y-103967058D01*
X142569291Y-103967056D01*
X142569289Y-103967055D01*
X142468426Y-103940029D01*
X142468420Y-103940028D01*
X142468415Y-103940027D01*
X142337595Y-103922805D01*
X142337594Y-103922805D01*
X142233174Y-103922805D01*
X142233173Y-103922805D01*
X142102352Y-103940027D01*
X142102345Y-103940028D01*
X142102342Y-103940029D01*
X142048399Y-103954483D01*
X142001479Y-103967055D01*
X142001469Y-103967058D01*
X141879564Y-104017553D01*
X141879560Y-104017555D01*
X141789129Y-104069766D01*
X141789118Y-104069773D01*
X141684441Y-104150096D01*
X141684431Y-104150105D01*
X141610606Y-104223930D01*
X141610597Y-104223940D01*
X141530274Y-104328617D01*
X141530267Y-104328628D01*
X141478056Y-104419059D01*
X141478054Y-104419063D01*
X141427559Y-104540968D01*
X141427556Y-104540978D01*
X141400531Y-104641838D01*
X141400528Y-104641851D01*
X141383306Y-104772672D01*
X90756140Y-104772672D01*
X89914849Y-103931381D01*
X89881364Y-103870058D01*
X89886348Y-103800366D01*
X89928220Y-103744433D01*
X89993684Y-103720016D01*
X90002530Y-103719700D01*
X90140826Y-103719700D01*
X90140834Y-103719700D01*
X90177848Y-103716787D01*
X90177850Y-103716786D01*
X90177852Y-103716786D01*
X90219954Y-103704554D01*
X90336259Y-103670764D01*
X90478247Y-103586792D01*
X90594892Y-103470147D01*
X90628568Y-103413203D01*
X90679637Y-103365521D01*
X90748379Y-103353017D01*
X90812968Y-103379662D01*
X90842032Y-103413204D01*
X90875705Y-103470143D01*
X90875707Y-103470146D01*
X90875712Y-103470152D01*
X90992347Y-103586787D01*
X90992351Y-103586790D01*
X90992353Y-103586792D01*
X91134341Y-103670764D01*
X91176116Y-103682901D01*
X91292747Y-103716786D01*
X91292750Y-103716786D01*
X91292752Y-103716787D01*
X91329766Y-103719700D01*
X91329774Y-103719700D01*
X92680826Y-103719700D01*
X92680834Y-103719700D01*
X92717848Y-103716787D01*
X92717850Y-103716786D01*
X92717852Y-103716786D01*
X92759954Y-103704554D01*
X92876259Y-103670764D01*
X93018247Y-103586792D01*
X93134892Y-103470147D01*
X93168568Y-103413203D01*
X93219637Y-103365521D01*
X93288379Y-103353017D01*
X93352968Y-103379662D01*
X93382032Y-103413204D01*
X93415705Y-103470143D01*
X93415707Y-103470146D01*
X93415712Y-103470152D01*
X93532347Y-103586787D01*
X93532351Y-103586790D01*
X93532353Y-103586792D01*
X93674341Y-103670764D01*
X93716116Y-103682901D01*
X93832747Y-103716786D01*
X93832750Y-103716786D01*
X93832752Y-103716787D01*
X93869766Y-103719700D01*
X93869774Y-103719700D01*
X95220826Y-103719700D01*
X95220834Y-103719700D01*
X95257848Y-103716787D01*
X95257850Y-103716786D01*
X95257852Y-103716786D01*
X95299954Y-103704554D01*
X95416259Y-103670764D01*
X95558247Y-103586792D01*
X95674892Y-103470147D01*
X95708568Y-103413203D01*
X95759637Y-103365521D01*
X95828379Y-103353017D01*
X95892968Y-103379662D01*
X95922032Y-103413204D01*
X95955705Y-103470143D01*
X95955707Y-103470146D01*
X95955712Y-103470152D01*
X96072347Y-103586787D01*
X96072351Y-103586790D01*
X96072353Y-103586792D01*
X96214341Y-103670764D01*
X96256116Y-103682901D01*
X96372747Y-103716786D01*
X96372750Y-103716786D01*
X96372752Y-103716787D01*
X96409766Y-103719700D01*
X96409774Y-103719700D01*
X97760826Y-103719700D01*
X97760834Y-103719700D01*
X97797848Y-103716787D01*
X97797850Y-103716786D01*
X97797852Y-103716786D01*
X97839954Y-103704554D01*
X97956259Y-103670764D01*
X98098247Y-103586792D01*
X98214892Y-103470147D01*
X98298864Y-103328159D01*
X98344887Y-103169748D01*
X98347800Y-103132734D01*
X98347800Y-102099135D01*
X105532700Y-102099135D01*
X105532700Y-103894870D01*
X105532701Y-103894876D01*
X105539108Y-103954483D01*
X105589402Y-104089328D01*
X105589406Y-104089335D01*
X105675652Y-104204544D01*
X105675655Y-104204547D01*
X105790864Y-104290793D01*
X105790871Y-104290797D01*
X105925717Y-104341091D01*
X105925716Y-104341091D01*
X105932644Y-104341835D01*
X105985327Y-104347500D01*
X107781072Y-104347499D01*
X107840683Y-104341091D01*
X107975531Y-104290796D01*
X108090746Y-104204546D01*
X108176996Y-104089331D01*
X108227291Y-103954483D01*
X108233700Y-103894873D01*
X108233699Y-103870979D01*
X108236530Y-103857963D01*
X108247140Y-103838525D01*
X108253379Y-103817275D01*
X108270003Y-103796643D01*
X108270008Y-103796636D01*
X108270011Y-103796634D01*
X108270018Y-103796626D01*
X108940237Y-103126408D01*
X108957275Y-103189993D01*
X109023101Y-103304007D01*
X109116193Y-103397099D01*
X109230207Y-103462925D01*
X109293790Y-103479962D01*
X108661482Y-104112269D01*
X108661482Y-104112270D01*
X108715649Y-104151624D01*
X108904982Y-104248095D01*
X109107070Y-104313757D01*
X109316954Y-104347000D01*
X109529446Y-104347000D01*
X109739327Y-104313757D01*
X109739330Y-104313757D01*
X109941417Y-104248095D01*
X110130754Y-104151622D01*
X110184916Y-104112270D01*
X110184917Y-104112270D01*
X109552608Y-103479962D01*
X109616193Y-103462925D01*
X109730207Y-103397099D01*
X109823299Y-103304007D01*
X109889125Y-103189993D01*
X109906162Y-103126409D01*
X110538470Y-103758717D01*
X110538470Y-103758716D01*
X110577822Y-103704554D01*
X110674295Y-103515217D01*
X110739957Y-103313130D01*
X110739957Y-103313127D01*
X110773200Y-103103246D01*
X110773200Y-102890753D01*
X110739957Y-102680872D01*
X110739957Y-102680869D01*
X110674295Y-102478782D01*
X110577824Y-102289449D01*
X110538470Y-102235282D01*
X110538469Y-102235282D01*
X109906162Y-102867590D01*
X109889125Y-102804007D01*
X109823299Y-102689993D01*
X109730207Y-102596901D01*
X109616193Y-102531075D01*
X109552609Y-102514037D01*
X110184916Y-101881728D01*
X110163864Y-101866433D01*
X110163863Y-101866432D01*
X110130756Y-101842378D01*
X110130752Y-101842376D01*
X109989045Y-101770172D01*
X141386306Y-101770172D01*
X141386306Y-101874593D01*
X141403528Y-102005414D01*
X141403529Y-102005419D01*
X141403530Y-102005425D01*
X141429704Y-102103108D01*
X141430556Y-102106287D01*
X141430559Y-102106297D01*
X141468284Y-102197372D01*
X141481056Y-102228206D01*
X141533267Y-102318638D01*
X141533270Y-102318642D01*
X141533274Y-102318648D01*
X141576376Y-102374818D01*
X141613601Y-102423330D01*
X141687437Y-102497166D01*
X141687441Y-102497169D01*
X141792118Y-102577492D01*
X141792121Y-102577494D01*
X141792129Y-102577500D01*
X141882561Y-102629711D01*
X142004479Y-102680211D01*
X142105342Y-102707237D01*
X142197742Y-102719401D01*
X142236173Y-102724461D01*
X142236174Y-102724461D01*
X142340595Y-102724461D01*
X142370299Y-102720550D01*
X142471426Y-102707237D01*
X142572289Y-102680211D01*
X142694207Y-102629711D01*
X142784639Y-102577500D01*
X142889331Y-102497166D01*
X142963167Y-102423330D01*
X143043501Y-102318638D01*
X143095712Y-102228206D01*
X143146212Y-102106288D01*
X143173238Y-102005425D01*
X143190462Y-101874593D01*
X143190462Y-101770173D01*
X143173238Y-101639341D01*
X143146212Y-101538478D01*
X143095712Y-101416560D01*
X143043501Y-101326128D01*
X143029493Y-101307873D01*
X142963170Y-101221440D01*
X142963167Y-101221436D01*
X142889331Y-101147600D01*
X142873063Y-101135117D01*
X142784649Y-101067273D01*
X142784643Y-101067269D01*
X142784639Y-101067266D01*
X142694207Y-101015055D01*
X142694203Y-101015053D01*
X142572298Y-100964558D01*
X142572291Y-100964556D01*
X142572289Y-100964555D01*
X142471426Y-100937529D01*
X142471420Y-100937528D01*
X142471415Y-100937527D01*
X142340595Y-100920305D01*
X142340594Y-100920305D01*
X142236174Y-100920305D01*
X142236173Y-100920305D01*
X142105352Y-100937527D01*
X142105345Y-100937528D01*
X142105342Y-100937529D01*
X142004479Y-100964555D01*
X142004469Y-100964558D01*
X141882564Y-101015053D01*
X141882560Y-101015055D01*
X141792129Y-101067266D01*
X141792118Y-101067273D01*
X141687441Y-101147596D01*
X141687431Y-101147605D01*
X141613606Y-101221430D01*
X141613597Y-101221440D01*
X141533274Y-101326117D01*
X141533267Y-101326128D01*
X141481056Y-101416559D01*
X141481054Y-101416563D01*
X141430559Y-101538468D01*
X141430556Y-101538478D01*
X141408453Y-101620970D01*
X141403531Y-101639338D01*
X141403528Y-101639351D01*
X141386306Y-101770172D01*
X109989045Y-101770172D01*
X109941417Y-101745904D01*
X109739329Y-101680242D01*
X109529446Y-101647000D01*
X109316954Y-101647000D01*
X109107072Y-101680242D01*
X109107069Y-101680242D01*
X108904982Y-101745904D01*
X108715639Y-101842380D01*
X108661482Y-101881727D01*
X108661482Y-101881728D01*
X109293791Y-102514037D01*
X109230207Y-102531075D01*
X109116193Y-102596901D01*
X109023101Y-102689993D01*
X108957275Y-102804007D01*
X108940237Y-102867591D01*
X108270018Y-102197372D01*
X108236533Y-102136049D01*
X108236530Y-102136036D01*
X108233699Y-102123015D01*
X108233699Y-102099128D01*
X108227291Y-102039517D01*
X108199126Y-101964002D01*
X108176998Y-101904673D01*
X108176993Y-101904664D01*
X108090747Y-101789455D01*
X108090744Y-101789452D01*
X107975535Y-101703206D01*
X107975528Y-101703202D01*
X107840682Y-101652908D01*
X107840683Y-101652908D01*
X107781083Y-101646501D01*
X107781081Y-101646500D01*
X107781073Y-101646500D01*
X107781064Y-101646500D01*
X105985329Y-101646500D01*
X105985323Y-101646501D01*
X105925716Y-101652908D01*
X105790871Y-101703202D01*
X105790864Y-101703206D01*
X105675655Y-101789452D01*
X105675652Y-101789455D01*
X105589406Y-101904664D01*
X105589402Y-101904671D01*
X105539108Y-102039517D01*
X105532701Y-102099116D01*
X105532700Y-102099135D01*
X98347800Y-102099135D01*
X98347800Y-100873666D01*
X98344887Y-100836652D01*
X98344330Y-100834736D01*
X98298865Y-100678245D01*
X98298864Y-100678242D01*
X98298864Y-100678241D01*
X98225009Y-100553359D01*
X98214894Y-100536256D01*
X98214890Y-100536251D01*
X98172536Y-100493897D01*
X98118690Y-100440051D01*
X98106058Y-100425260D01*
X98048284Y-100345739D01*
X97907766Y-100205221D01*
X97907764Y-100205219D01*
X97746994Y-100088413D01*
X97742031Y-100085884D01*
X97569932Y-99998194D01*
X97569929Y-99998193D01*
X97380937Y-99936787D01*
X97282798Y-99921243D01*
X97184661Y-99905700D01*
X96985939Y-99905700D01*
X96920514Y-99916062D01*
X96789662Y-99936787D01*
X96600670Y-99998193D01*
X96600667Y-99998194D01*
X96423605Y-100088413D01*
X96262833Y-100205221D01*
X96122318Y-100345736D01*
X96064539Y-100425261D01*
X96059260Y-100432021D01*
X96055746Y-100436213D01*
X95955708Y-100536253D01*
X95916864Y-100601933D01*
X95910338Y-100609721D01*
X95889376Y-100623685D01*
X95870962Y-100640879D01*
X95860792Y-100642728D01*
X95852191Y-100648459D01*
X95827003Y-100648874D01*
X95802221Y-100653382D01*
X95792666Y-100649440D01*
X95782331Y-100649611D01*
X95760916Y-100636342D01*
X95737631Y-100626736D01*
X95728608Y-100616323D01*
X95722938Y-100612810D01*
X95719726Y-100606073D01*
X95708568Y-100593196D01*
X95674892Y-100536253D01*
X95578690Y-100440051D01*
X95566058Y-100425260D01*
X95508284Y-100345739D01*
X95367766Y-100205221D01*
X95367764Y-100205219D01*
X95206994Y-100088413D01*
X95202031Y-100085884D01*
X95029932Y-99998194D01*
X95029929Y-99998193D01*
X94840937Y-99936787D01*
X94742798Y-99921243D01*
X94644661Y-99905700D01*
X94445939Y-99905700D01*
X94380514Y-99916062D01*
X94249662Y-99936787D01*
X94060670Y-99998193D01*
X94060667Y-99998194D01*
X93883605Y-100088413D01*
X93722833Y-100205221D01*
X93582318Y-100345736D01*
X93524539Y-100425261D01*
X93519260Y-100432021D01*
X93515746Y-100436213D01*
X93415708Y-100536253D01*
X93376864Y-100601933D01*
X93370338Y-100609721D01*
X93349376Y-100623685D01*
X93330962Y-100640879D01*
X93320792Y-100642728D01*
X93312191Y-100648459D01*
X93287003Y-100648874D01*
X93262221Y-100653382D01*
X93252666Y-100649440D01*
X93242331Y-100649611D01*
X93220916Y-100636342D01*
X93197631Y-100626736D01*
X93188608Y-100616323D01*
X93182938Y-100612810D01*
X93179726Y-100606073D01*
X93168568Y-100593196D01*
X93134892Y-100536253D01*
X93038690Y-100440051D01*
X93026058Y-100425260D01*
X92968284Y-100345739D01*
X92827766Y-100205221D01*
X92827764Y-100205219D01*
X92666994Y-100088413D01*
X92662031Y-100085884D01*
X92489932Y-99998194D01*
X92489929Y-99998193D01*
X92300937Y-99936787D01*
X92202798Y-99921243D01*
X92104661Y-99905700D01*
X91905939Y-99905700D01*
X91840514Y-99916062D01*
X91709662Y-99936787D01*
X91520670Y-99998193D01*
X91520667Y-99998194D01*
X91343605Y-100088413D01*
X91182833Y-100205221D01*
X91042318Y-100345736D01*
X90984539Y-100425261D01*
X90979260Y-100432021D01*
X90975746Y-100436213D01*
X90875708Y-100536253D01*
X90836864Y-100601933D01*
X90830338Y-100609721D01*
X90809376Y-100623685D01*
X90790962Y-100640879D01*
X90780792Y-100642728D01*
X90772191Y-100648459D01*
X90747003Y-100648874D01*
X90722221Y-100653382D01*
X90712666Y-100649440D01*
X90702331Y-100649611D01*
X90680916Y-100636342D01*
X90657631Y-100626736D01*
X90648608Y-100616323D01*
X90642938Y-100612810D01*
X90639726Y-100606073D01*
X90628568Y-100593196D01*
X90594892Y-100536253D01*
X90498690Y-100440051D01*
X90486058Y-100425260D01*
X90428284Y-100345739D01*
X90287766Y-100205221D01*
X90287764Y-100205219D01*
X90126994Y-100088413D01*
X90122031Y-100085884D01*
X89949932Y-99998194D01*
X89949929Y-99998193D01*
X89760937Y-99936787D01*
X89662798Y-99921243D01*
X89564661Y-99905700D01*
X89548529Y-99905700D01*
X89481490Y-99886015D01*
X89435735Y-99833211D01*
X89425791Y-99764053D01*
X89454816Y-99700497D01*
X89460848Y-99694019D01*
X104722948Y-84431919D01*
X104722951Y-84431916D01*
X104805084Y-84308995D01*
X104861658Y-84172413D01*
X104890500Y-84027418D01*
X104890500Y-83879583D01*
X104890500Y-73204099D01*
X104910185Y-73137060D01*
X104962989Y-73091305D01*
X105014500Y-73080099D01*
X105037871Y-73080099D01*
X105037872Y-73080099D01*
X105097483Y-73073691D01*
X105232331Y-73023396D01*
X105347546Y-72937146D01*
X105433796Y-72821931D01*
X105484091Y-72687083D01*
X105490500Y-72627473D01*
X105490499Y-72603579D01*
X105493330Y-72590563D01*
X105503940Y-72571125D01*
X105510179Y-72549875D01*
X105526803Y-72529243D01*
X105526808Y-72529236D01*
X105526811Y-72529234D01*
X105526818Y-72529226D01*
X106197037Y-71859008D01*
X106214075Y-71922593D01*
X106279901Y-72036607D01*
X106372993Y-72129699D01*
X106487007Y-72195525D01*
X106550590Y-72212562D01*
X105918282Y-72844869D01*
X105918282Y-72844870D01*
X105972449Y-72884224D01*
X106161782Y-72980695D01*
X106363870Y-73046357D01*
X106573754Y-73079600D01*
X106786246Y-73079600D01*
X106996127Y-73046357D01*
X106996130Y-73046357D01*
X107198217Y-72980695D01*
X107387554Y-72884222D01*
X107441716Y-72844870D01*
X107441717Y-72844870D01*
X106809408Y-72212562D01*
X106872993Y-72195525D01*
X106987007Y-72129699D01*
X107080099Y-72036607D01*
X107145925Y-71922593D01*
X107162962Y-71859008D01*
X107795270Y-72491317D01*
X107795270Y-72491316D01*
X107834622Y-72437155D01*
X107839232Y-72428107D01*
X107887205Y-72377309D01*
X107955025Y-72360512D01*
X108021161Y-72383047D01*
X108060204Y-72428104D01*
X108064949Y-72437417D01*
X108189890Y-72609386D01*
X108340213Y-72759709D01*
X108512179Y-72884648D01*
X108512181Y-72884649D01*
X108512184Y-72884651D01*
X108701588Y-72981157D01*
X108903757Y-73046846D01*
X109113713Y-73080100D01*
X109113714Y-73080100D01*
X109326286Y-73080100D01*
X109326287Y-73080100D01*
X109536243Y-73046846D01*
X109738412Y-72981157D01*
X109927816Y-72884651D01*
X110014138Y-72821935D01*
X110099786Y-72759709D01*
X110099788Y-72759706D01*
X110099792Y-72759704D01*
X110250104Y-72609392D01*
X110250106Y-72609388D01*
X110250109Y-72609386D01*
X110375048Y-72437420D01*
X110375050Y-72437417D01*
X110375051Y-72437416D01*
X110379514Y-72428654D01*
X110427488Y-72377859D01*
X110495308Y-72361063D01*
X110561444Y-72383599D01*
X110600486Y-72428656D01*
X110604951Y-72437420D01*
X110729890Y-72609386D01*
X110880213Y-72759709D01*
X111052179Y-72884648D01*
X111052181Y-72884649D01*
X111052184Y-72884651D01*
X111241588Y-72981157D01*
X111443757Y-73046846D01*
X111653713Y-73080100D01*
X111653714Y-73080100D01*
X111866286Y-73080100D01*
X111866287Y-73080100D01*
X112076243Y-73046846D01*
X112278412Y-72981157D01*
X112467816Y-72884651D01*
X112554138Y-72821935D01*
X112639786Y-72759709D01*
X112639788Y-72759706D01*
X112639792Y-72759704D01*
X112790104Y-72609392D01*
X112790106Y-72609388D01*
X112790109Y-72609386D01*
X112915048Y-72437420D01*
X112915050Y-72437417D01*
X112915051Y-72437416D01*
X113011557Y-72248012D01*
X113077246Y-72045843D01*
X113110500Y-71835887D01*
X113110500Y-71623313D01*
X113077246Y-71413357D01*
X113011557Y-71211188D01*
X112915051Y-71021784D01*
X112915049Y-71021781D01*
X112915048Y-71021779D01*
X112790109Y-70849813D01*
X112639786Y-70699490D01*
X112467820Y-70574551D01*
X112278414Y-70478044D01*
X112278413Y-70478043D01*
X112278412Y-70478043D01*
X112076243Y-70412354D01*
X112076241Y-70412353D01*
X112076240Y-70412353D01*
X111914957Y-70386808D01*
X111866287Y-70379100D01*
X111653713Y-70379100D01*
X111605042Y-70386808D01*
X111443760Y-70412353D01*
X111241585Y-70478044D01*
X111052179Y-70574551D01*
X110880213Y-70699490D01*
X110729890Y-70849813D01*
X110604949Y-71021782D01*
X110600484Y-71030546D01*
X110552509Y-71081342D01*
X110484688Y-71098136D01*
X110418553Y-71075598D01*
X110379516Y-71030546D01*
X110375050Y-71021782D01*
X110250109Y-70849813D01*
X110099786Y-70699490D01*
X109927820Y-70574551D01*
X109738414Y-70478044D01*
X109738413Y-70478043D01*
X109738412Y-70478043D01*
X109536243Y-70412354D01*
X109536241Y-70412353D01*
X109536240Y-70412353D01*
X109374957Y-70386808D01*
X109326287Y-70379100D01*
X109113713Y-70379100D01*
X109065042Y-70386808D01*
X108903760Y-70412353D01*
X108701585Y-70478044D01*
X108512179Y-70574551D01*
X108340213Y-70699490D01*
X108189890Y-70849813D01*
X108064949Y-71021782D01*
X108060202Y-71031099D01*
X108012227Y-71081893D01*
X107944405Y-71098687D01*
X107878271Y-71076148D01*
X107839234Y-71031095D01*
X107834626Y-71022052D01*
X107795270Y-70967882D01*
X107795269Y-70967882D01*
X107162962Y-71600190D01*
X107145925Y-71536607D01*
X107080099Y-71422593D01*
X106987007Y-71329501D01*
X106872993Y-71263675D01*
X106809409Y-71246637D01*
X107441716Y-70614328D01*
X107387550Y-70574975D01*
X107198217Y-70478504D01*
X106996129Y-70412842D01*
X106786246Y-70379600D01*
X106573754Y-70379600D01*
X106363872Y-70412842D01*
X106363869Y-70412842D01*
X106161782Y-70478504D01*
X105972439Y-70574980D01*
X105918282Y-70614327D01*
X105918282Y-70614328D01*
X106550591Y-71246637D01*
X106487007Y-71263675D01*
X106372993Y-71329501D01*
X106279901Y-71422593D01*
X106214075Y-71536607D01*
X106197037Y-71600191D01*
X105526818Y-70929972D01*
X105493333Y-70868649D01*
X105493330Y-70868636D01*
X105490499Y-70855615D01*
X105490499Y-70831728D01*
X105484091Y-70772117D01*
X105455926Y-70696602D01*
X105433798Y-70637273D01*
X105433793Y-70637264D01*
X105347547Y-70522055D01*
X105347544Y-70522052D01*
X105232335Y-70435806D01*
X105232328Y-70435802D01*
X105097482Y-70385508D01*
X105097483Y-70385508D01*
X105037883Y-70379101D01*
X105037881Y-70379100D01*
X105037873Y-70379100D01*
X105037864Y-70379100D01*
X103242129Y-70379100D01*
X103242123Y-70379101D01*
X103182516Y-70385508D01*
X103047671Y-70435802D01*
X103047664Y-70435806D01*
X102932455Y-70522052D01*
X102932452Y-70522055D01*
X102846206Y-70637264D01*
X102846202Y-70637271D01*
X102795908Y-70772117D01*
X102789501Y-70831716D01*
X102789500Y-70831735D01*
X102789500Y-72627470D01*
X102789501Y-72627476D01*
X102795908Y-72687083D01*
X102846202Y-72821928D01*
X102846206Y-72821935D01*
X102932452Y-72937144D01*
X102932455Y-72937147D01*
X103047664Y-73023393D01*
X103047671Y-73023397D01*
X103092618Y-73040161D01*
X103182517Y-73073691D01*
X103242127Y-73080100D01*
X103265497Y-73080099D01*
X103332536Y-73099781D01*
X103378292Y-73152583D01*
X103389500Y-73204099D01*
X103389500Y-83591269D01*
X103369815Y-83658308D01*
X103353181Y-83678950D01*
X87157191Y-99874939D01*
X87095868Y-99908424D01*
X87050113Y-99909731D01*
X87024661Y-99905700D01*
X86825939Y-99905700D01*
X86760514Y-99916062D01*
X86629662Y-99936787D01*
X86440670Y-99998193D01*
X86440667Y-99998194D01*
X86263605Y-100088413D01*
X86102833Y-100205221D01*
X85962318Y-100345736D01*
X85904539Y-100425261D01*
X85899292Y-100431984D01*
X85895769Y-100436190D01*
X85795708Y-100536253D01*
X85756585Y-100602404D01*
X85750079Y-100610175D01*
X85729098Y-100624164D01*
X85710671Y-100641370D01*
X85700527Y-100643215D01*
X85691947Y-100648936D01*
X85666733Y-100649361D01*
X85641929Y-100653873D01*
X85632397Y-100649940D01*
X85622087Y-100650115D01*
X85600647Y-100636842D01*
X85577340Y-100627227D01*
X85568343Y-100616843D01*
X85562680Y-100613338D01*
X85559461Y-100606593D01*
X85548277Y-100593686D01*
X85514495Y-100536564D01*
X85514492Y-100536560D01*
X85442491Y-100464560D01*
X84822947Y-101084104D01*
X84799508Y-100996629D01*
X84740989Y-100895270D01*
X84658230Y-100812511D01*
X84556871Y-100753992D01*
X84469394Y-100730552D01*
X85084016Y-100115931D01*
X85084015Y-100115930D01*
X85046732Y-100088841D01*
X84869737Y-99998657D01*
X84680822Y-99937275D01*
X84484621Y-99906200D01*
X84285979Y-99906200D01*
X84089779Y-99937275D01*
X84089776Y-99937275D01*
X83900862Y-99998657D01*
X83723864Y-100088843D01*
X83686583Y-100115929D01*
X83686582Y-100115930D01*
X84301206Y-100730552D01*
X84213729Y-100753992D01*
X84112370Y-100812511D01*
X84029611Y-100895270D01*
X83971092Y-100996629D01*
X83947652Y-101084105D01*
X83328107Y-100464560D01*
X83256110Y-100536557D01*
X83256100Y-100536570D01*
X83222321Y-100593687D01*
X83171252Y-100641370D01*
X83102510Y-100653873D01*
X83037921Y-100627227D01*
X83020520Y-100610175D01*
X83014016Y-100602408D01*
X82974892Y-100536253D01*
X82874818Y-100436179D01*
X82871307Y-100431986D01*
X82870789Y-100430800D01*
X82866058Y-100425260D01*
X82808284Y-100345739D01*
X82667766Y-100205221D01*
X82667764Y-100205219D01*
X82506994Y-100088413D01*
X82502031Y-100085884D01*
X82329932Y-99998194D01*
X82329929Y-99998193D01*
X82140937Y-99936787D01*
X82042798Y-99921243D01*
X81944661Y-99905700D01*
X81745939Y-99905700D01*
X81680514Y-99916062D01*
X81549662Y-99936787D01*
X81360670Y-99998193D01*
X81360667Y-99998194D01*
X81183605Y-100088413D01*
X81022833Y-100205221D01*
X80882318Y-100345736D01*
X80824539Y-100425261D01*
X80811904Y-100440054D01*
X80715713Y-100536246D01*
X80715705Y-100536256D01*
X80631735Y-100678242D01*
X80631734Y-100678245D01*
X80585713Y-100836647D01*
X80585712Y-100836653D01*
X80582800Y-100873658D01*
X77339960Y-100873658D01*
X77419200Y-100838000D01*
X77669469Y-87098206D01*
X77673200Y-86893401D01*
X77672089Y-86891178D01*
X77495400Y-86537800D01*
X77235433Y-86340583D01*
X77225879Y-86332546D01*
X77222202Y-86329122D01*
X77208283Y-86313877D01*
X77200446Y-86308864D01*
X77192223Y-86301207D01*
X77191885Y-86300637D01*
X77190405Y-86299502D01*
X77158958Y-86281345D01*
X77146016Y-86272749D01*
X76023829Y-85421436D01*
X76020617Y-85418914D01*
X75247359Y-84790641D01*
X75207743Y-84733091D01*
X75202717Y-84711348D01*
X75147219Y-84308988D01*
X75107839Y-84023488D01*
X75107770Y-84022976D01*
X75100033Y-83963658D01*
X80582800Y-83963658D01*
X80582800Y-86222741D01*
X80585712Y-86259746D01*
X80585713Y-86259752D01*
X80631734Y-86418154D01*
X80631735Y-86418157D01*
X80715705Y-86560143D01*
X80715706Y-86560144D01*
X80715708Y-86560147D01*
X80811908Y-86656347D01*
X80824540Y-86671138D01*
X80882319Y-86750664D01*
X81022836Y-86891181D01*
X81183606Y-87007987D01*
X81270449Y-87052235D01*
X81360667Y-87098205D01*
X81360670Y-87098206D01*
X81455166Y-87128909D01*
X81549664Y-87159613D01*
X81745939Y-87190700D01*
X81745940Y-87190700D01*
X81944660Y-87190700D01*
X81944661Y-87190700D01*
X82140936Y-87159613D01*
X82329932Y-87098205D01*
X82506994Y-87007987D01*
X82667764Y-86891181D01*
X82808281Y-86750664D01*
X82866062Y-86671133D01*
X82871339Y-86664375D01*
X82874837Y-86660200D01*
X82974892Y-86560147D01*
X83013739Y-86494459D01*
X83020262Y-86486677D01*
X83041227Y-86472709D01*
X83059637Y-86455521D01*
X83069805Y-86453671D01*
X83078410Y-86447939D01*
X83103599Y-86447524D01*
X83128379Y-86443017D01*
X83137934Y-86446959D01*
X83148270Y-86446789D01*
X83169679Y-86460054D01*
X83192968Y-86469662D01*
X83201991Y-86480075D01*
X83207663Y-86483590D01*
X83210875Y-86490328D01*
X83222032Y-86503204D01*
X83255705Y-86560143D01*
X83255708Y-86560147D01*
X83351908Y-86656347D01*
X83364540Y-86671138D01*
X83422319Y-86750664D01*
X83562836Y-86891181D01*
X83723606Y-87007987D01*
X83810449Y-87052235D01*
X83900667Y-87098205D01*
X83900670Y-87098206D01*
X83995166Y-87128909D01*
X84089664Y-87159613D01*
X84285939Y-87190700D01*
X84285940Y-87190700D01*
X84484660Y-87190700D01*
X84484661Y-87190700D01*
X84680936Y-87159613D01*
X84869932Y-87098205D01*
X85046994Y-87007987D01*
X85207764Y-86891181D01*
X85348281Y-86750664D01*
X85406062Y-86671133D01*
X85411339Y-86664375D01*
X85414837Y-86660200D01*
X85514892Y-86560147D01*
X85553739Y-86494459D01*
X85560262Y-86486677D01*
X85581227Y-86472709D01*
X85599637Y-86455521D01*
X85609805Y-86453671D01*
X85618410Y-86447939D01*
X85643599Y-86447524D01*
X85668379Y-86443017D01*
X85677934Y-86446959D01*
X85688270Y-86446789D01*
X85709679Y-86460054D01*
X85732968Y-86469662D01*
X85741991Y-86480075D01*
X85747663Y-86483590D01*
X85750875Y-86490328D01*
X85762032Y-86503204D01*
X85795705Y-86560143D01*
X85795708Y-86560147D01*
X85891908Y-86656347D01*
X85904540Y-86671138D01*
X85962319Y-86750664D01*
X86102836Y-86891181D01*
X86263606Y-87007987D01*
X86350449Y-87052235D01*
X86440667Y-87098205D01*
X86440670Y-87098206D01*
X86535166Y-87128909D01*
X86629664Y-87159613D01*
X86825939Y-87190700D01*
X86825940Y-87190700D01*
X87024660Y-87190700D01*
X87024661Y-87190700D01*
X87220936Y-87159613D01*
X87409932Y-87098205D01*
X87586994Y-87007987D01*
X87747764Y-86891181D01*
X87888281Y-86750664D01*
X87946062Y-86671133D01*
X87951339Y-86664375D01*
X87954837Y-86660200D01*
X88054892Y-86560147D01*
X88093739Y-86494459D01*
X88100262Y-86486677D01*
X88121227Y-86472709D01*
X88139637Y-86455521D01*
X88149805Y-86453671D01*
X88158410Y-86447939D01*
X88183599Y-86447524D01*
X88208379Y-86443017D01*
X88217934Y-86446959D01*
X88228270Y-86446789D01*
X88249679Y-86460054D01*
X88272968Y-86469662D01*
X88281991Y-86480075D01*
X88287663Y-86483590D01*
X88290875Y-86490328D01*
X88302032Y-86503204D01*
X88335705Y-86560143D01*
X88335708Y-86560147D01*
X88431908Y-86656347D01*
X88444540Y-86671138D01*
X88502319Y-86750664D01*
X88642836Y-86891181D01*
X88803606Y-87007987D01*
X88890449Y-87052235D01*
X88980667Y-87098205D01*
X88980670Y-87098206D01*
X89075166Y-87128909D01*
X89169664Y-87159613D01*
X89365939Y-87190700D01*
X89365940Y-87190700D01*
X89564660Y-87190700D01*
X89564661Y-87190700D01*
X89760936Y-87159613D01*
X89949932Y-87098205D01*
X90126994Y-87007987D01*
X90287764Y-86891181D01*
X90428281Y-86750664D01*
X90486062Y-86671133D01*
X90491339Y-86664375D01*
X90494837Y-86660200D01*
X90594892Y-86560147D01*
X90633739Y-86494459D01*
X90640262Y-86486677D01*
X90661227Y-86472709D01*
X90679637Y-86455521D01*
X90689805Y-86453671D01*
X90698410Y-86447939D01*
X90723599Y-86447524D01*
X90748379Y-86443017D01*
X90757934Y-86446959D01*
X90768270Y-86446789D01*
X90789679Y-86460054D01*
X90812968Y-86469662D01*
X90821991Y-86480075D01*
X90827663Y-86483590D01*
X90830875Y-86490328D01*
X90842032Y-86503204D01*
X90875705Y-86560143D01*
X90875708Y-86560147D01*
X90971908Y-86656347D01*
X90984540Y-86671138D01*
X91042319Y-86750664D01*
X91182836Y-86891181D01*
X91343606Y-87007987D01*
X91430449Y-87052235D01*
X91520667Y-87098205D01*
X91520670Y-87098206D01*
X91615166Y-87128909D01*
X91709664Y-87159613D01*
X91905939Y-87190700D01*
X91905940Y-87190700D01*
X92104660Y-87190700D01*
X92104661Y-87190700D01*
X92300936Y-87159613D01*
X92489932Y-87098205D01*
X92666994Y-87007987D01*
X92827764Y-86891181D01*
X92968281Y-86750664D01*
X93026062Y-86671133D01*
X93031339Y-86664375D01*
X93034837Y-86660200D01*
X93134892Y-86560147D01*
X93173739Y-86494459D01*
X93180262Y-86486677D01*
X93201227Y-86472709D01*
X93219637Y-86455521D01*
X93229805Y-86453671D01*
X93238410Y-86447939D01*
X93263599Y-86447524D01*
X93288379Y-86443017D01*
X93297934Y-86446959D01*
X93308270Y-86446789D01*
X93329679Y-86460054D01*
X93352968Y-86469662D01*
X93361991Y-86480075D01*
X93367663Y-86483590D01*
X93370875Y-86490328D01*
X93382032Y-86503204D01*
X93415705Y-86560143D01*
X93415708Y-86560147D01*
X93511908Y-86656347D01*
X93524540Y-86671138D01*
X93582319Y-86750664D01*
X93722836Y-86891181D01*
X93883606Y-87007987D01*
X93970449Y-87052235D01*
X94060667Y-87098205D01*
X94060670Y-87098206D01*
X94155166Y-87128909D01*
X94249664Y-87159613D01*
X94445939Y-87190700D01*
X94445940Y-87190700D01*
X94644660Y-87190700D01*
X94644661Y-87190700D01*
X94840936Y-87159613D01*
X95029932Y-87098205D01*
X95206994Y-87007987D01*
X95367764Y-86891181D01*
X95508281Y-86750664D01*
X95566062Y-86671133D01*
X95571339Y-86664375D01*
X95574837Y-86660200D01*
X95674892Y-86560147D01*
X95713739Y-86494459D01*
X95720262Y-86486677D01*
X95741227Y-86472709D01*
X95759637Y-86455521D01*
X95769805Y-86453671D01*
X95778410Y-86447939D01*
X95803599Y-86447524D01*
X95828379Y-86443017D01*
X95837934Y-86446959D01*
X95848270Y-86446789D01*
X95869679Y-86460054D01*
X95892968Y-86469662D01*
X95901991Y-86480075D01*
X95907663Y-86483590D01*
X95910875Y-86490328D01*
X95922032Y-86503204D01*
X95955705Y-86560143D01*
X95955708Y-86560147D01*
X96051908Y-86656347D01*
X96064540Y-86671138D01*
X96122319Y-86750664D01*
X96262836Y-86891181D01*
X96423606Y-87007987D01*
X96510449Y-87052235D01*
X96600667Y-87098205D01*
X96600670Y-87098206D01*
X96695166Y-87128909D01*
X96789664Y-87159613D01*
X96985939Y-87190700D01*
X96985940Y-87190700D01*
X97184660Y-87190700D01*
X97184661Y-87190700D01*
X97380936Y-87159613D01*
X97569932Y-87098205D01*
X97746994Y-87007987D01*
X97907764Y-86891181D01*
X98048281Y-86750664D01*
X98106060Y-86671136D01*
X98118689Y-86656348D01*
X98214892Y-86560147D01*
X98298864Y-86418159D01*
X98333337Y-86299502D01*
X98344886Y-86259752D01*
X98344887Y-86259746D01*
X98347799Y-86222741D01*
X98347800Y-86222734D01*
X98347800Y-83963666D01*
X98344887Y-83926652D01*
X98298864Y-83768241D01*
X98214892Y-83626253D01*
X98214890Y-83626251D01*
X98214887Y-83626247D01*
X98098252Y-83509612D01*
X98098243Y-83509605D01*
X97956257Y-83425635D01*
X97956254Y-83425634D01*
X97797852Y-83379613D01*
X97797846Y-83379612D01*
X97760841Y-83376700D01*
X97760834Y-83376700D01*
X96409766Y-83376700D01*
X96409758Y-83376700D01*
X96372753Y-83379612D01*
X96372747Y-83379613D01*
X96214345Y-83425634D01*
X96214342Y-83425635D01*
X96072356Y-83509605D01*
X96072347Y-83509612D01*
X95955712Y-83626247D01*
X95955708Y-83626253D01*
X95922032Y-83683196D01*
X95870962Y-83730879D01*
X95802221Y-83743382D01*
X95737631Y-83716736D01*
X95708568Y-83683196D01*
X95693849Y-83658308D01*
X95674892Y-83626253D01*
X95674889Y-83626250D01*
X95674887Y-83626247D01*
X95558252Y-83509612D01*
X95558243Y-83509605D01*
X95416257Y-83425635D01*
X95416254Y-83425634D01*
X95257852Y-83379613D01*
X95257846Y-83379612D01*
X95220841Y-83376700D01*
X95220834Y-83376700D01*
X93869766Y-83376700D01*
X93869758Y-83376700D01*
X93832753Y-83379612D01*
X93832747Y-83379613D01*
X93674345Y-83425634D01*
X93674342Y-83425635D01*
X93532356Y-83509605D01*
X93532347Y-83509612D01*
X93415712Y-83626247D01*
X93415708Y-83626253D01*
X93382032Y-83683196D01*
X93330962Y-83730879D01*
X93262221Y-83743382D01*
X93197631Y-83716736D01*
X93168568Y-83683196D01*
X93153849Y-83658308D01*
X93134892Y-83626253D01*
X93134889Y-83626250D01*
X93134887Y-83626247D01*
X93018252Y-83509612D01*
X93018243Y-83509605D01*
X92876257Y-83425635D01*
X92876254Y-83425634D01*
X92717852Y-83379613D01*
X92717846Y-83379612D01*
X92680841Y-83376700D01*
X92680834Y-83376700D01*
X91329766Y-83376700D01*
X91329758Y-83376700D01*
X91292753Y-83379612D01*
X91292747Y-83379613D01*
X91134345Y-83425634D01*
X91134342Y-83425635D01*
X90992356Y-83509605D01*
X90992347Y-83509612D01*
X90875712Y-83626247D01*
X90875708Y-83626253D01*
X90842032Y-83683196D01*
X90790962Y-83730879D01*
X90722221Y-83743382D01*
X90657631Y-83716736D01*
X90628568Y-83683196D01*
X90613849Y-83658308D01*
X90594892Y-83626253D01*
X90594889Y-83626250D01*
X90594887Y-83626247D01*
X90478252Y-83509612D01*
X90478243Y-83509605D01*
X90336257Y-83425635D01*
X90336254Y-83425634D01*
X90177852Y-83379613D01*
X90177846Y-83379612D01*
X90140841Y-83376700D01*
X90140834Y-83376700D01*
X88789766Y-83376700D01*
X88789758Y-83376700D01*
X88752753Y-83379612D01*
X88752747Y-83379613D01*
X88594345Y-83425634D01*
X88594342Y-83425635D01*
X88452356Y-83509605D01*
X88452347Y-83509612D01*
X88335712Y-83626247D01*
X88335708Y-83626253D01*
X88302032Y-83683196D01*
X88250962Y-83730879D01*
X88182221Y-83743382D01*
X88117631Y-83716736D01*
X88088568Y-83683196D01*
X88073849Y-83658308D01*
X88054892Y-83626253D01*
X88054889Y-83626250D01*
X88054887Y-83626247D01*
X87938252Y-83509612D01*
X87938243Y-83509605D01*
X87796257Y-83425635D01*
X87796254Y-83425634D01*
X87637852Y-83379613D01*
X87637846Y-83379612D01*
X87600841Y-83376700D01*
X87600834Y-83376700D01*
X86249766Y-83376700D01*
X86249758Y-83376700D01*
X86212753Y-83379612D01*
X86212747Y-83379613D01*
X86054345Y-83425634D01*
X86054342Y-83425635D01*
X85912356Y-83509605D01*
X85912347Y-83509612D01*
X85795712Y-83626247D01*
X85795708Y-83626253D01*
X85762032Y-83683196D01*
X85710962Y-83730879D01*
X85642221Y-83743382D01*
X85577631Y-83716736D01*
X85548568Y-83683196D01*
X85533849Y-83658308D01*
X85514892Y-83626253D01*
X85514889Y-83626250D01*
X85514887Y-83626247D01*
X85398252Y-83509612D01*
X85398243Y-83509605D01*
X85256257Y-83425635D01*
X85256254Y-83425634D01*
X85097852Y-83379613D01*
X85097846Y-83379612D01*
X85060841Y-83376700D01*
X85060834Y-83376700D01*
X83709766Y-83376700D01*
X83709758Y-83376700D01*
X83672753Y-83379612D01*
X83672747Y-83379613D01*
X83514345Y-83425634D01*
X83514342Y-83425635D01*
X83372356Y-83509605D01*
X83372347Y-83509612D01*
X83255712Y-83626247D01*
X83255708Y-83626253D01*
X83222032Y-83683196D01*
X83170962Y-83730879D01*
X83102221Y-83743382D01*
X83037631Y-83716736D01*
X83008568Y-83683196D01*
X82993849Y-83658308D01*
X82974892Y-83626253D01*
X82974889Y-83626250D01*
X82974887Y-83626247D01*
X82858252Y-83509612D01*
X82858243Y-83509605D01*
X82716257Y-83425635D01*
X82716254Y-83425634D01*
X82557852Y-83379613D01*
X82557846Y-83379612D01*
X82520841Y-83376700D01*
X82520834Y-83376700D01*
X81169766Y-83376700D01*
X81169758Y-83376700D01*
X81132753Y-83379612D01*
X81132747Y-83379613D01*
X80974345Y-83425634D01*
X80974342Y-83425635D01*
X80832356Y-83509605D01*
X80832347Y-83509612D01*
X80715712Y-83626247D01*
X80715705Y-83626256D01*
X80631735Y-83768242D01*
X80631734Y-83768245D01*
X80585713Y-83926647D01*
X80585712Y-83926653D01*
X80582800Y-83963658D01*
X75100033Y-83963658D01*
X74956718Y-82864910D01*
X74955751Y-82844611D01*
X75006023Y-81386729D01*
X75006798Y-81376516D01*
X75158392Y-80087966D01*
X75158865Y-80084407D01*
X75252796Y-79450376D01*
X75282091Y-79386948D01*
X75300418Y-79369833D01*
X75892685Y-78919711D01*
X75897801Y-78916026D01*
X76444752Y-78543105D01*
X76464225Y-78532255D01*
X77139800Y-78232000D01*
X77139800Y-78231999D01*
X77139801Y-78231999D01*
X77139802Y-78231998D01*
X77393799Y-77673202D01*
X77393800Y-77673199D01*
X77402887Y-72248014D01*
X77419195Y-62512240D01*
X77419335Y-62506560D01*
X77420726Y-62477348D01*
X77428604Y-62311911D01*
X78464300Y-62311911D01*
X78464300Y-62554488D01*
X78495961Y-62794985D01*
X78558747Y-63029304D01*
X78648556Y-63246121D01*
X78651576Y-63253412D01*
X78772864Y-63463489D01*
X78772866Y-63463492D01*
X78772867Y-63463493D01*
X78920533Y-63655936D01*
X78920539Y-63655943D01*
X79092056Y-63827460D01*
X79092062Y-63827465D01*
X79284511Y-63975136D01*
X79494588Y-64096424D01*
X79718700Y-64189254D01*
X79953011Y-64252038D01*
X80133386Y-64275784D01*
X80193511Y-64283700D01*
X80193512Y-64283700D01*
X80436089Y-64283700D01*
X80484188Y-64277367D01*
X80676589Y-64252038D01*
X80910900Y-64189254D01*
X81135012Y-64096424D01*
X81345089Y-63975136D01*
X81537538Y-63827465D01*
X81709065Y-63655938D01*
X81765868Y-63581911D01*
X135411100Y-63581911D01*
X135411100Y-63824488D01*
X135442761Y-64064985D01*
X135505547Y-64299304D01*
X135595356Y-64516121D01*
X135598376Y-64523412D01*
X135719664Y-64733489D01*
X135719666Y-64733492D01*
X135719667Y-64733493D01*
X135867333Y-64925936D01*
X135867339Y-64925943D01*
X136038856Y-65097460D01*
X136038862Y-65097465D01*
X136231311Y-65245136D01*
X136441388Y-65366424D01*
X136665500Y-65459254D01*
X136899811Y-65522038D01*
X137080186Y-65545784D01*
X137140311Y-65553700D01*
X137140312Y-65553700D01*
X137382889Y-65553700D01*
X137430988Y-65547367D01*
X137623389Y-65522038D01*
X137857700Y-65459254D01*
X138081812Y-65366424D01*
X138291889Y-65245136D01*
X138484338Y-65097465D01*
X138655865Y-64925938D01*
X138803536Y-64733489D01*
X138924824Y-64523412D01*
X139017654Y-64299300D01*
X139080438Y-64064989D01*
X139112100Y-63824488D01*
X139112100Y-63581912D01*
X139080438Y-63341411D01*
X139017654Y-63107100D01*
X138924824Y-62882988D01*
X138803536Y-62672911D01*
X138655865Y-62480462D01*
X138655860Y-62480456D01*
X138484343Y-62308939D01*
X138484336Y-62308933D01*
X138291893Y-62161267D01*
X138291892Y-62161266D01*
X138291889Y-62161264D01*
X138109322Y-62055859D01*
X138081814Y-62039977D01*
X138081805Y-62039973D01*
X137857704Y-61947147D01*
X137623385Y-61884361D01*
X137382889Y-61852700D01*
X137382888Y-61852700D01*
X137140312Y-61852700D01*
X137140311Y-61852700D01*
X136899814Y-61884361D01*
X136665495Y-61947147D01*
X136441394Y-62039973D01*
X136441385Y-62039977D01*
X136231306Y-62161267D01*
X136038863Y-62308933D01*
X136038856Y-62308939D01*
X135867339Y-62480456D01*
X135867333Y-62480463D01*
X135719667Y-62672906D01*
X135598377Y-62882985D01*
X135598373Y-62882994D01*
X135505547Y-63107095D01*
X135442761Y-63341414D01*
X135411100Y-63581911D01*
X81765868Y-63581911D01*
X81856736Y-63463489D01*
X81978024Y-63253412D01*
X82070854Y-63029300D01*
X82133638Y-62794989D01*
X82165300Y-62554488D01*
X82165300Y-62311912D01*
X82133638Y-62071411D01*
X82070854Y-61837100D01*
X81978024Y-61612988D01*
X81856736Y-61402911D01*
X81756296Y-61272015D01*
X81709066Y-61210463D01*
X81709060Y-61210456D01*
X81537543Y-61038939D01*
X81537536Y-61038933D01*
X81345093Y-60891267D01*
X81345092Y-60891266D01*
X81345089Y-60891264D01*
X81135012Y-60769976D01*
X81065362Y-60741126D01*
X80910904Y-60677147D01*
X80676585Y-60614361D01*
X80436089Y-60582700D01*
X80436088Y-60582700D01*
X80193512Y-60582700D01*
X80193511Y-60582700D01*
X79953014Y-60614361D01*
X79718695Y-60677147D01*
X79494594Y-60769973D01*
X79494585Y-60769977D01*
X79354356Y-60850939D01*
X79288866Y-60888750D01*
X79284506Y-60891267D01*
X79092063Y-61038933D01*
X79092056Y-61038939D01*
X78920539Y-61210456D01*
X78920533Y-61210463D01*
X78772867Y-61402906D01*
X78651577Y-61612985D01*
X78651573Y-61612994D01*
X78558747Y-61837095D01*
X78495961Y-62071414D01*
X78464300Y-62311911D01*
X77428604Y-62311911D01*
X77468171Y-61480996D01*
X77472285Y-61454701D01*
X77474008Y-61448298D01*
X77490571Y-61411742D01*
X77622400Y-61214000D01*
X78074656Y-60409987D01*
X78085893Y-60393332D01*
X78537978Y-59828226D01*
X78560624Y-59806329D01*
X78595442Y-59780343D01*
X78600372Y-59776849D01*
X78627124Y-59758853D01*
X78706262Y-59705616D01*
X78711395Y-59702343D01*
X78820530Y-59636506D01*
X78825817Y-59633493D01*
X78938061Y-59573182D01*
X78943590Y-59570389D01*
X79058691Y-59515795D01*
X79064391Y-59513265D01*
X79182283Y-59464489D01*
X79188146Y-59462236D01*
X79308652Y-59419432D01*
X79314696Y-59417459D01*
X79437736Y-59380754D01*
X79443888Y-59379091D01*
X79569329Y-59348640D01*
X79575591Y-59347291D01*
X79703369Y-59323234D01*
X79709747Y-59322205D01*
X79839724Y-59304715D01*
X79846181Y-59304018D01*
X79978367Y-59293254D01*
X79984839Y-59292899D01*
X80127328Y-59288818D01*
X80130551Y-59288768D01*
X89001187Y-59267908D01*
X89001187Y-59267909D01*
X89001211Y-59267908D01*
X89001481Y-59267907D01*
X137823182Y-59182218D01*
X137890256Y-59201785D01*
G37*
%TD.AperFunction*%
%TD*%
M02*
