%TF.GenerationSoftware,KiCad,Pcbnew,10.0.3*%
%TF.CreationDate,2026-05-26T19:34:38+02:00*%
%TF.ProjectId,spell_tome_bottom,7370656c-6c5f-4746-9f6d-655f626f7474,rev?*%
%TF.SameCoordinates,Original*%
%TF.FileFunction,Copper,L1,Top*%
%TF.FilePolarity,Positive*%
%FSLAX46Y46*%
G04 Gerber Fmt 4.6, Leading zero omitted, Abs format (unit mm)*
G04 Created by KiCad (PCBNEW 10.0.3) date 2026-05-26 19:34:38*
%MOMM*%
%LPD*%
G01*
G04 APERTURE LIST*
G04 Aperture macros list*
%AMRoundRect*
0 Rectangle with rounded corners*
0 $1 Rounding radius*
0 $2 $3 $4 $5 $6 $7 $8 $9 X,Y pos of 4 corners*
0 Add a 4 corners polygon primitive as box body*
4,1,4,$2,$3,$4,$5,$6,$7,$8,$9,$2,$3,0*
0 Add four circle primitives for the rounded corners*
1,1,$1+$1,$2,$3*
1,1,$1+$1,$4,$5*
1,1,$1+$1,$6,$7*
1,1,$1+$1,$8,$9*
0 Add four rect primitives between the rounded corners*
20,1,$1+$1,$2,$3,$4,$5,0*
20,1,$1+$1,$4,$5,$6,$7,0*
20,1,$1+$1,$6,$7,$8,$9,0*
20,1,$1+$1,$8,$9,$2,$3,0*%
G04 Aperture macros list end*
%TA.AperFunction,SMDPad,CuDef*%
%ADD10R,1.300000X0.700000*%
%TD*%
%TA.AperFunction,ComponentPad*%
%ADD11R,1.700000X1.700000*%
%TD*%
%TA.AperFunction,ComponentPad*%
%ADD12C,1.700000*%
%TD*%
%TA.AperFunction,SMDPad,CuDef*%
%ADD13RoundRect,0.200000X-0.200000X-0.275000X0.200000X-0.275000X0.200000X0.275000X-0.200000X0.275000X0*%
%TD*%
%TA.AperFunction,SMDPad,CuDef*%
%ADD14RoundRect,0.225000X-0.225000X-0.250000X0.225000X-0.250000X0.225000X0.250000X-0.225000X0.250000X0*%
%TD*%
%TA.AperFunction,SMDPad,CuDef*%
%ADD15RoundRect,0.200000X0.275000X-0.200000X0.275000X0.200000X-0.275000X0.200000X-0.275000X-0.200000X0*%
%TD*%
%TA.AperFunction,SMDPad,CuDef*%
%ADD16RoundRect,0.225000X0.250000X-0.225000X0.250000X0.225000X-0.250000X0.225000X-0.250000X-0.225000X0*%
%TD*%
%TA.AperFunction,SMDPad,CuDef*%
%ADD17R,0.600000X1.100000*%
%TD*%
%TA.AperFunction,SMDPad,CuDef*%
%ADD18RoundRect,0.250000X0.475000X-0.250000X0.475000X0.250000X-0.475000X0.250000X-0.475000X-0.250000X0*%
%TD*%
%TA.AperFunction,SMDPad,CuDef*%
%ADD19R,2.000000X0.800000*%
%TD*%
%TA.AperFunction,SMDPad,CuDef*%
%ADD20R,0.600000X0.400000*%
%TD*%
%TA.AperFunction,SMDPad,CuDef*%
%ADD21R,6.000000X2.100000*%
%TD*%
%TA.AperFunction,ComponentPad*%
%ADD22C,1.524000*%
%TD*%
%TA.AperFunction,ViaPad*%
%ADD23C,0.600000*%
%TD*%
%TA.AperFunction,Conductor*%
%ADD24C,0.200000*%
%TD*%
%TA.AperFunction,Conductor*%
%ADD25C,0.500000*%
%TD*%
%TA.AperFunction,Conductor*%
%ADD26C,0.300000*%
%TD*%
G04 APERTURE END LIST*
D10*
%TO.P,SW5,1,1_1*%
%TO.N,BACK*%
X115138200Y-135915400D03*
%TO.P,SW5,2,2_2*%
%TO.N,unconnected-(SW5-Pad2)*%
X118838200Y-135915400D03*
%TO.P,SW5,3,3_3*%
%TO.N,unconnected-(SW5-Pad3)*%
X115138200Y-138065400D03*
%TO.P,SW5,4,4_4*%
%TO.N,GND*%
X118838200Y-138065400D03*
%TD*%
D11*
%TO.P,J2,1,Pin_1_1*%
%TO.N,BAT+*%
X106883200Y-102997000D03*
D12*
%TO.P,J2,2,Pin_2_2*%
%TO.N,GND*%
X109423200Y-102997000D03*
%TD*%
D13*
%TO.P,R2(green)1,1*%
%TO.N,green*%
X102642400Y-112458500D03*
%TO.P,R2(green)1,2*%
%TO.N,Net-(D1-GK)*%
X104292400Y-112458500D03*
%TD*%
D14*
%TO.P,C7(C_OLED)1,1*%
%TO.N,3V3*%
X103060200Y-68072000D03*
%TO.P,C7(C_OLED)1,2*%
%TO.N,GND*%
X104610200Y-68072000D03*
%TD*%
D10*
%TO.P,SW4,1,1_1*%
%TO.N,DOWN*%
X99724600Y-135958000D03*
%TO.P,SW4,2,2_2*%
%TO.N,unconnected-(SW4-Pad2)*%
X103424600Y-135958000D03*
%TO.P,SW4,3,3_3*%
%TO.N,unconnected-(SW4-Pad3)*%
X99724600Y-138108000D03*
%TO.P,SW4,4,4_4*%
%TO.N,GND*%
X103424600Y-138108000D03*
%TD*%
D15*
%TO.P,R4(R_top)1,1*%
%TO.N,3V3*%
X135624867Y-118388600D03*
%TO.P,R4(R_top)1,2*%
%TO.N,Net-(U2-V_{FB})*%
X135624867Y-116738600D03*
%TD*%
D10*
%TO.P,SW3,1,1_1*%
%TO.N,SELECT*%
X119989600Y-126009400D03*
%TO.P,SW3,2,2_2*%
%TO.N,unconnected-(SW3-Pad2)*%
X123689600Y-126009400D03*
%TO.P,SW3,3,3_3*%
%TO.N,unconnected-(SW3-Pad3)*%
X119989600Y-128159400D03*
%TO.P,SW3,4,4_4*%
%TO.N,GND*%
X123689600Y-128159400D03*
%TD*%
D16*
%TO.P,C2(CIN_HF)1,1*%
%TO.N,BAT+*%
X133951133Y-122542600D03*
%TO.P,C2(CIN_HF)1,2*%
%TO.N,GND*%
X133951133Y-120992600D03*
%TD*%
D17*
%TO.P,U2,1,SW_1*%
%TO.N,Net-(U2-SW)*%
X135859300Y-127638800D03*
%TO.P,U2,2,GND_2*%
%TO.N,GND*%
X136809300Y-127638800D03*
%TO.P,U2,3,EN_3*%
%TO.N,Net-(SW2-B)*%
X137759300Y-127638800D03*
%TO.P,U2,4,V_{FB}_4*%
%TO.N,Net-(U2-V_{FB})*%
X137759300Y-124938800D03*
%TO.P,U2,5,V_{OUT}_5*%
%TO.N,3V3*%
X136809300Y-124938800D03*
%TO.P,U2,6,V_{IN}_6*%
%TO.N,BAT+*%
X135859300Y-124938800D03*
%TD*%
D10*
%TO.P,SW1,1,1_1*%
%TO.N,UP*%
X94217000Y-126136400D03*
%TO.P,SW1,2,2_2*%
%TO.N,unconnected-(SW1-Pad2)*%
X97917000Y-126136400D03*
%TO.P,SW1,3,3_3*%
%TO.N,unconnected-(SW1-Pad3)*%
X94217000Y-128286400D03*
%TO.P,SW1,4,4_4*%
%TO.N,GND*%
X97917000Y-128286400D03*
%TD*%
D18*
%TO.P,C3(COUT)1,1*%
%TO.N,3V3*%
X136228667Y-122497600D03*
%TO.P,C3(COUT)1,2*%
%TO.N,GND*%
X136228667Y-120597600D03*
%TD*%
D15*
%TO.P,R5(R_bottom)1,1*%
%TO.N,Net-(U2-V_{FB})*%
X137725933Y-118388600D03*
%TO.P,R5(R_bottom)1,2*%
%TO.N,GND*%
X137725933Y-116738600D03*
%TD*%
D16*
%TO.P,C6(Cff)1,1*%
%TO.N,3V3*%
X139827000Y-118338600D03*
%TO.P,C6(Cff)1,2*%
%TO.N,Net-(U2-V_{FB})*%
X139827000Y-116788600D03*
%TD*%
D13*
%TO.P,R3(blue)1,1*%
%TO.N,blue*%
X102642400Y-114477800D03*
%TO.P,R3(blue)1,2*%
%TO.N,Net-(D1-BK)*%
X104292400Y-114477800D03*
%TD*%
%TO.P,R1(red)1,1*%
%TO.N,red*%
X102642400Y-110439200D03*
%TO.P,R1(red)1,2*%
%TO.N,Net-(D1-RK)*%
X104292400Y-110439200D03*
%TD*%
D18*
%TO.P,C1(CIN)1,1*%
%TO.N,BAT+*%
X131673600Y-122497600D03*
%TO.P,C1(CIN)1,2*%
%TO.N,GND*%
X131673600Y-120597600D03*
%TD*%
D14*
%TO.P,C5(C_RGB)1,1*%
%TO.N,3V3*%
X113474200Y-110439200D03*
%TO.P,C5(C_RGB)1,2*%
%TO.N,GND*%
X115024200Y-110439200D03*
%TD*%
D19*
%TO.P,SW2,1,C_1*%
%TO.N,BAT+*%
X140285384Y-105624883D03*
%TO.P,SW2,2,B_2*%
%TO.N,Net-(SW2-B)*%
X140285384Y-102624883D03*
%TO.P,SW2,3,A_3*%
%TO.N,unconnected-(SW2-A-Pad3)*%
X140285384Y-101124883D03*
%TD*%
D20*
%TO.P,D1,1,RK_1*%
%TO.N,Net-(D1-RK)*%
X108291400Y-112122000D03*
%TO.P,D1,2,A_2*%
%TO.N,3V3*%
X109691400Y-112122000D03*
%TO.P,D1,3,BK_3*%
%TO.N,Net-(D1-BK)*%
X109691400Y-112922000D03*
%TO.P,D1,4,GK_4*%
%TO.N,Net-(D1-GK)*%
X108291400Y-112922000D03*
%TD*%
D21*
%TO.P,L1,1,1_1*%
%TO.N,BAT+*%
X135559800Y-134786000D03*
%TO.P,L1,2,2_2*%
%TO.N,Net-(U2-SW)*%
X135559800Y-130136000D03*
%TD*%
D15*
%TO.P,R6,1*%
%TO.N,Net-(SW2-B)*%
X140385800Y-122592600D03*
%TO.P,R6,2*%
%TO.N,GND*%
X140385800Y-120942600D03*
%TD*%
D18*
%TO.P,C3(COUT)2,1*%
%TO.N,3V3*%
X133273800Y-118293600D03*
%TO.P,C3(COUT)2,2*%
%TO.N,GND*%
X133273800Y-116393600D03*
%TD*%
D16*
%TO.P,C4(COUT_HF)1,1*%
%TO.N,3V3*%
X138506200Y-122542600D03*
%TO.P,C4(COUT_HF)1,2*%
%TO.N,GND*%
X138506200Y-120992600D03*
%TD*%
D11*
%TO.P,J1,1,Pin_1_1*%
%TO.N,3V3*%
X104140000Y-71729600D03*
D12*
%TO.P,J1,2,Pin_2_2*%
%TO.N,GND*%
X106680000Y-71729600D03*
%TO.P,J1,3,Pin_3_3*%
%TO.N,SCL*%
X109220000Y-71729600D03*
%TO.P,J1,4,Pin_4_4*%
%TO.N,SDA*%
X111760000Y-71729600D03*
%TD*%
D22*
%TO.P,U1,1,GPIO26/ADC0/A0_1*%
%TO.N,UP*%
X81845300Y-85928200D03*
%TO.P,U1,2,GPIO27/ADC1/A1_2*%
%TO.N,DOWN*%
X84385300Y-85928200D03*
%TO.P,U1,3,GPIO28/ADC2/A2_3*%
%TO.N,SELECT*%
X86925300Y-85928200D03*
%TO.P,U1,4,GPIO29/ADC3/A3_4*%
%TO.N,BACK*%
X89465300Y-85928200D03*
%TO.P,U1,5,GPIO6/SDA_5*%
%TO.N,SDA*%
X92005300Y-85928200D03*
%TO.P,U1,6,GPIO7/SCL_6*%
%TO.N,SCL*%
X94545300Y-85928200D03*
%TO.P,U1,7,GPIO0/TX_7*%
%TO.N,red*%
X97085300Y-85928200D03*
%TO.P,U1,8,GPIO1/RX_8*%
%TO.N,green*%
X97085300Y-101168200D03*
%TO.P,U1,9,GPIO2/SCK_9*%
%TO.N,blue*%
X94545300Y-101168200D03*
%TO.P,U1,10,GPIO4/MISO_10*%
%TO.N,unconnected-(U1-GPIO4{slash}MISO-Pad10)*%
X92005300Y-101168200D03*
%TO.P,U1,11,GPIO3/MOSI_11*%
%TO.N,unconnected-(U1-GPIO3{slash}MOSI-Pad11)_1*%
X89465300Y-101168200D03*
%TO.P,U1,12,3V3_12*%
%TO.N,3V3*%
X86925300Y-101168200D03*
%TO.P,U1,13,GND_13*%
%TO.N,GND*%
X84385300Y-101168200D03*
%TO.P,U1,14,VBUS_14*%
%TO.N,unconnected-(U1-VBUS-Pad14)_1*%
X81845300Y-101168200D03*
%TD*%
D23*
%TO.N,GND*%
X131699000Y-120497600D03*
X137566400Y-120116600D03*
X133883400Y-120116600D03*
X140385800Y-120942600D03*
%TO.N,3V3*%
X130378200Y-118287800D03*
X125323600Y-118287800D03*
%TD*%
%TO.N,BACK*%
D24*
X78709200Y-108551300D02*
X78709200Y-92639200D01*
X115138200Y-135915400D02*
X110032800Y-135915400D01*
X91519100Y-121361200D02*
X78709200Y-108551300D01*
X83616800Y-87731600D02*
X87661900Y-87731600D01*
X110032800Y-135915400D02*
X95478600Y-121361200D01*
X87661900Y-87731600D02*
X89465300Y-85928200D01*
X95478600Y-121361200D02*
X91519100Y-121361200D01*
X78709200Y-92639200D02*
X83616800Y-87731600D01*
%TO.N,GND*%
D25*
X133951133Y-120201267D02*
X133959600Y-120192800D01*
X132068600Y-120992600D02*
X131673600Y-120597600D01*
X136108900Y-126136400D02*
X131902200Y-126136400D01*
X133951133Y-120992600D02*
X133951133Y-120201267D01*
X136809300Y-126836800D02*
X136108900Y-126136400D01*
X136874933Y-115887600D02*
X133779800Y-115887600D01*
X137725933Y-116738600D02*
X136874933Y-115887600D01*
X136809300Y-127638800D02*
X136809300Y-126836800D01*
X133951133Y-120992600D02*
X132068600Y-120992600D01*
X137566400Y-120992600D02*
X137566400Y-120116600D01*
X138506200Y-120992600D02*
X137566400Y-120992600D01*
X133779800Y-115887600D02*
X133273800Y-116393600D01*
X137566400Y-120992600D02*
X136623667Y-120992600D01*
X136623667Y-120992600D02*
X136228667Y-120597600D01*
%TO.N,BAT+*%
X133609800Y-134786000D02*
X129362200Y-130538400D01*
X135559800Y-134786000D02*
X133609800Y-134786000D01*
X129362200Y-122351800D02*
X129508000Y-122497600D01*
X133951133Y-123030633D02*
X135859300Y-124938800D01*
X106883200Y-103581200D02*
X110667800Y-107365800D01*
X140285384Y-105624883D02*
X137808717Y-105624883D01*
X110667800Y-107365800D02*
X119761000Y-107365800D01*
X106883200Y-102997000D02*
X106883200Y-103581200D01*
X127914400Y-115519200D02*
X127914400Y-120904000D01*
X127914400Y-120904000D02*
X129362200Y-122351800D01*
X129508000Y-122497600D02*
X131673600Y-122497600D01*
X133906133Y-122497600D02*
X133951133Y-122542600D01*
X131673600Y-122497600D02*
X133906133Y-122497600D01*
X137808717Y-105624883D02*
X127914400Y-115519200D01*
X119761000Y-107365800D02*
X127914400Y-115519200D01*
X129362200Y-130538400D02*
X129362200Y-122351800D01*
X133951133Y-122542600D02*
X133951133Y-123030633D01*
%TO.N,green*%
D24*
X102642400Y-112458500D02*
X97085300Y-106901400D01*
X97085300Y-106901400D02*
X97085300Y-101168200D01*
%TO.N,Net-(D1-GK)*%
X104755900Y-112922000D02*
X108291400Y-112922000D01*
X104292400Y-112458500D02*
X104755900Y-112922000D01*
%TO.N,3V3*%
D25*
X136228667Y-122497600D02*
X138461200Y-122497600D01*
X133273800Y-118293600D02*
X134975600Y-118293600D01*
X130384000Y-118293600D02*
X130378200Y-118287800D01*
X134975600Y-118293600D02*
X135529867Y-118293600D01*
X138926000Y-119239600D02*
X139827000Y-118338600D01*
D26*
X103060200Y-68072000D02*
X103060200Y-70649800D01*
X103060200Y-70649800D02*
X104140000Y-71729600D01*
D25*
X136809300Y-123078233D02*
X136809300Y-124938800D01*
X136475867Y-119239600D02*
X138926000Y-119239600D01*
X136228667Y-122497600D02*
X136809300Y-123078233D01*
X135529867Y-118293600D02*
X135624867Y-118388600D01*
X138461200Y-122497600D02*
X138506200Y-122542600D01*
D24*
X111374200Y-110439200D02*
X109691400Y-112122000D01*
D25*
X136228667Y-122497600D02*
X135052667Y-121321600D01*
X121322800Y-118287800D02*
X113474200Y-110439200D01*
X135624867Y-118388600D02*
X136475867Y-119239600D01*
X125323600Y-118287800D02*
X121322800Y-118287800D01*
X135052667Y-121321600D02*
X135052667Y-118370667D01*
X135052667Y-118370667D02*
X134975600Y-118293600D01*
X133273800Y-118293600D02*
X130384000Y-118293600D01*
D24*
X113474200Y-110439200D02*
X111374200Y-110439200D01*
%TO.N,DOWN*%
X95168000Y-131401400D02*
X95168000Y-125577200D01*
X78302800Y-108712000D02*
X78308200Y-108706600D01*
X84385300Y-86311000D02*
X84385300Y-85928200D01*
X99724600Y-135958000D02*
X95168000Y-131401400D01*
X78308200Y-108706600D02*
X78308200Y-92388100D01*
X78308200Y-92388100D02*
X84385300Y-86311000D01*
X95168000Y-125577200D02*
X78302800Y-108712000D01*
%TO.N,Net-(U2-V_{FB})*%
D25*
X137759300Y-124938800D02*
X139432200Y-123265900D01*
X138227000Y-118388600D02*
X139827000Y-116788600D01*
X139432200Y-123265900D02*
X139432200Y-120495004D01*
X139432200Y-120495004D02*
X140753000Y-119174204D01*
X140753000Y-119174204D02*
X140753000Y-117714600D01*
X140753000Y-117714600D02*
X139827000Y-116788600D01*
X137274867Y-118388600D02*
X135624867Y-116738600D01*
X137725933Y-118388600D02*
X137274867Y-118388600D01*
X137725933Y-118388600D02*
X138227000Y-118388600D01*
%TO.N,SELECT*%
D24*
X103343400Y-114965864D02*
X103343400Y-113989736D01*
X103055464Y-113701800D02*
X102433500Y-113701800D01*
X95608300Y-93574510D02*
X90528300Y-88494510D01*
X119989600Y-126009400D02*
X114386936Y-126009400D01*
X90528300Y-88494510D02*
X90528300Y-83771900D01*
X87426800Y-83007200D02*
X86925300Y-83508700D01*
X90528300Y-83771900D02*
X89763600Y-83007200D01*
X86925300Y-83508700D02*
X86925300Y-85928200D01*
X102433500Y-113701800D02*
X95608300Y-106876600D01*
X103343400Y-113989736D02*
X103055464Y-113701800D01*
X114386936Y-126009400D02*
X103343400Y-114965864D01*
X95608300Y-106876600D02*
X95608300Y-93574510D01*
X89763600Y-83007200D02*
X87426800Y-83007200D01*
%TO.N,Net-(U2-SW)*%
D25*
X135559800Y-130136000D02*
X135559800Y-127938300D01*
X135559800Y-127938300D02*
X135859300Y-127638800D01*
%TO.N,Net-(SW2-B)*%
X140385800Y-122592600D02*
X140385800Y-123799600D01*
X140630462Y-102969961D02*
X140285384Y-102624883D01*
X143432962Y-104349541D02*
X142053382Y-102969961D01*
X140385800Y-122592600D02*
X141454000Y-121524400D01*
X142053382Y-102969961D02*
X140630462Y-102969961D01*
X137759300Y-126426100D02*
X137759300Y-127638800D01*
X141454000Y-121524400D02*
X141454000Y-107279187D01*
X140385800Y-123799600D02*
X137759300Y-126426100D01*
X143432962Y-105300225D02*
X143432962Y-104349541D01*
X141454000Y-107279187D02*
X143432962Y-105300225D01*
%TO.N,UP*%
D24*
X81845300Y-88283900D02*
X81845300Y-85928200D01*
X77901800Y-109821200D02*
X77901800Y-92227400D01*
X94217000Y-126136400D02*
X77901800Y-109821200D01*
X77901800Y-92227400D02*
X81845300Y-88283900D01*
%TO.N,blue*%
X102642400Y-114477800D02*
X94545300Y-106380700D01*
X94545300Y-106380700D02*
X94545300Y-101168200D01*
%TO.N,Net-(D1-BK)*%
X104292400Y-114477800D02*
X108135600Y-114477800D01*
X108135600Y-114477800D02*
X109691400Y-112922000D01*
%TO.N,red*%
X102642400Y-110439200D02*
X102642400Y-91485300D01*
X102642400Y-91485300D02*
X97085300Y-85928200D01*
%TO.N,Net-(D1-RK)*%
X104292400Y-110439200D02*
X106608600Y-110439200D01*
X106608600Y-110439200D02*
X108291400Y-112122000D01*
%TO.N,SCL*%
X108743900Y-71729600D02*
X109220000Y-71729600D01*
X109143800Y-71329700D02*
X109143800Y-71145400D01*
X94545300Y-85928200D02*
X108743900Y-71729600D01*
%TO.N,SDA*%
X94985610Y-86991200D02*
X96022300Y-85954510D01*
X93068300Y-86991200D02*
X94985610Y-86991200D01*
X92005300Y-85928200D02*
X93068300Y-86991200D01*
X101287790Y-80222400D02*
X103267200Y-80222400D01*
X96022300Y-85954510D02*
X96022300Y-85487890D01*
X96022300Y-85487890D02*
X101287790Y-80222400D01*
X103267200Y-80222400D02*
X111760000Y-71729600D01*
%TD*%
%TA.AperFunction,Conductor*%
%TO.N,GND*%
G36*
X137890256Y-59201785D02*
G01*
X137936104Y-59254509D01*
X137947400Y-59306218D01*
X137947400Y-59842401D01*
X138150600Y-60604401D01*
X138365750Y-60891267D01*
X138379200Y-60909200D01*
X138607800Y-61112400D01*
X138696054Y-61118033D01*
X138715701Y-61120880D01*
X138736446Y-61125610D01*
X138746616Y-61128389D01*
X138806128Y-61147415D01*
X138821377Y-61153429D01*
X138843541Y-61163911D01*
X138868534Y-61168457D01*
X138868535Y-61168457D01*
X138876448Y-61169896D01*
X138908297Y-61180079D01*
X138940994Y-61181637D01*
X139013169Y-61194765D01*
X139035767Y-61201135D01*
X139038637Y-61202246D01*
X139041834Y-61203485D01*
X139084927Y-61208145D01*
X139093765Y-61209425D01*
X139117242Y-61213696D01*
X139136418Y-61217185D01*
X139136419Y-61217184D01*
X139136425Y-61217186D01*
X139142916Y-61216653D01*
X139166376Y-61216955D01*
X139235552Y-61224438D01*
X139251563Y-61227966D01*
X139251582Y-61227874D01*
X139259551Y-61229448D01*
X139259554Y-61229449D01*
X139314420Y-61232969D01*
X139369050Y-61238879D01*
X139380002Y-61237178D01*
X139475068Y-61243278D01*
X139488127Y-61245678D01*
X139488260Y-61244897D01*
X139496266Y-61246252D01*
X139496271Y-61246254D01*
X139555319Y-61248428D01*
X139614244Y-61252210D01*
X139621037Y-61250849D01*
X139732621Y-61254958D01*
X139746165Y-61256204D01*
X139750973Y-61256913D01*
X139750981Y-61256916D01*
X139810319Y-61257846D01*
X139812825Y-61257912D01*
X139872139Y-61260097D01*
X139872147Y-61260095D01*
X139876986Y-61259639D01*
X139890582Y-61259105D01*
X140279634Y-61265206D01*
X140280853Y-61265547D01*
X140345511Y-61266239D01*
X140410139Y-61267253D01*
X140410142Y-61267252D01*
X140415040Y-61267329D01*
X140420519Y-61267042D01*
X140879803Y-61271961D01*
X140882347Y-61272014D01*
X141367790Y-61287280D01*
X141372535Y-61287522D01*
X141373078Y-61287560D01*
X141432000Y-61307290D01*
X141703749Y-61483927D01*
X141749230Y-61536967D01*
X141760062Y-61582731D01*
X141782798Y-62128368D01*
X141782801Y-62128417D01*
X141833142Y-62707342D01*
X141833608Y-62717877D01*
X141884391Y-93187336D01*
X141883963Y-93197841D01*
X141833600Y-93802204D01*
X141921859Y-94876017D01*
X141922276Y-94886175D01*
X141922276Y-95119607D01*
X141922276Y-95251391D01*
X141935213Y-95299671D01*
X141956384Y-95378684D01*
X141957424Y-95381195D01*
X141966445Y-95418488D01*
X141985999Y-95656399D01*
X141986000Y-95656400D01*
X143027394Y-95884999D01*
X143027395Y-95884999D01*
X143027400Y-95885000D01*
X143296827Y-95867038D01*
X143365028Y-95882219D01*
X143414194Y-95931863D01*
X143427293Y-95969812D01*
X143559422Y-96740565D01*
X143561113Y-96756750D01*
X143636999Y-98729782D01*
X143732246Y-100834736D01*
X143732373Y-100840341D01*
X143732373Y-103288222D01*
X143712688Y-103355261D01*
X143659884Y-103401016D01*
X143590726Y-103410960D01*
X143527170Y-103381935D01*
X143520692Y-103375903D01*
X142849340Y-102704551D01*
X142815855Y-102643228D01*
X142820839Y-102573536D01*
X142861533Y-102518496D01*
X142889331Y-102497166D01*
X142963167Y-102423330D01*
X143043501Y-102318638D01*
X143095712Y-102228206D01*
X143146212Y-102106288D01*
X143173238Y-102005425D01*
X143190462Y-101874593D01*
X143190462Y-101770173D01*
X143190072Y-101767214D01*
X143181646Y-101703206D01*
X143173238Y-101639341D01*
X143146212Y-101538478D01*
X143095712Y-101416560D01*
X143043501Y-101326128D01*
X143029493Y-101307873D01*
X142963170Y-101221440D01*
X142963167Y-101221436D01*
X142889331Y-101147600D01*
X142873063Y-101135117D01*
X142784649Y-101067273D01*
X142784643Y-101067269D01*
X142784639Y-101067266D01*
X142694207Y-101015055D01*
X142694203Y-101015053D01*
X142572298Y-100964558D01*
X142572291Y-100964556D01*
X142572289Y-100964555D01*
X142471426Y-100937529D01*
X142471420Y-100937528D01*
X142471415Y-100937527D01*
X142340595Y-100920305D01*
X142340594Y-100920305D01*
X142236174Y-100920305D01*
X142236173Y-100920305D01*
X142105352Y-100937527D01*
X142105345Y-100937528D01*
X142105342Y-100937529D01*
X142020758Y-100960193D01*
X142004479Y-100964555D01*
X142004470Y-100964558D01*
X141957334Y-100984082D01*
X141887864Y-100991549D01*
X141825386Y-100960274D01*
X141789734Y-100900184D01*
X141785883Y-100869520D01*
X141785883Y-100677012D01*
X141785882Y-100677006D01*
X141785881Y-100676999D01*
X141779475Y-100617400D01*
X141738211Y-100506766D01*
X141729181Y-100482554D01*
X141729177Y-100482547D01*
X141642931Y-100367338D01*
X141642928Y-100367335D01*
X141527719Y-100281089D01*
X141527712Y-100281085D01*
X141392866Y-100230791D01*
X141392867Y-100230791D01*
X141333267Y-100224384D01*
X141333265Y-100224383D01*
X141333257Y-100224383D01*
X141333248Y-100224383D01*
X139237513Y-100224383D01*
X139237507Y-100224384D01*
X139177900Y-100230791D01*
X139043055Y-100281085D01*
X139043048Y-100281089D01*
X138927839Y-100367335D01*
X138927836Y-100367338D01*
X138841590Y-100482547D01*
X138841586Y-100482554D01*
X138791292Y-100617400D01*
X138784887Y-100676981D01*
X138784885Y-100677006D01*
X138784884Y-100677018D01*
X138784884Y-101572753D01*
X138784885Y-101572759D01*
X138791292Y-101632366D01*
X138841586Y-101767211D01*
X138841587Y-101767213D01*
X138866560Y-101800573D01*
X138890976Y-101866038D01*
X138876124Y-101934311D01*
X138866560Y-101949193D01*
X138841587Y-101982552D01*
X138841586Y-101982554D01*
X138791292Y-102117400D01*
X138784885Y-102176999D01*
X138784884Y-102177018D01*
X138784884Y-103072753D01*
X138784885Y-103072759D01*
X138791292Y-103132366D01*
X138841586Y-103267211D01*
X138841590Y-103267218D01*
X138927836Y-103382427D01*
X138927839Y-103382430D01*
X139043048Y-103468676D01*
X139043055Y-103468680D01*
X139177901Y-103518974D01*
X139177900Y-103518974D01*
X139184828Y-103519718D01*
X139237511Y-103525383D01*
X140074132Y-103525382D01*
X140141171Y-103545066D01*
X140150894Y-103552144D01*
X140214446Y-103594607D01*
X140214447Y-103594607D01*
X140274970Y-103635047D01*
X140411544Y-103691617D01*
X140411549Y-103691619D01*
X140411553Y-103691619D01*
X140411554Y-103691620D01*
X140556541Y-103720461D01*
X140556544Y-103720461D01*
X140556545Y-103720461D01*
X140704379Y-103720461D01*
X141691152Y-103720461D01*
X141720592Y-103729105D01*
X141750579Y-103735629D01*
X141755594Y-103739383D01*
X141758191Y-103740146D01*
X141778833Y-103756780D01*
X141866758Y-103844705D01*
X141900243Y-103906028D01*
X141895259Y-103975720D01*
X141853387Y-104031653D01*
X141841078Y-104039772D01*
X141789141Y-104069758D01*
X141789118Y-104069773D01*
X141684441Y-104150096D01*
X141684431Y-104150105D01*
X141610606Y-104223930D01*
X141610597Y-104223940D01*
X141530274Y-104328617D01*
X141530267Y-104328628D01*
X141478056Y-104419059D01*
X141478054Y-104419063D01*
X141427559Y-104540968D01*
X141427557Y-104540975D01*
X141403039Y-104632477D01*
X141366673Y-104692137D01*
X141303826Y-104722666D01*
X141283264Y-104724383D01*
X139237513Y-104724383D01*
X139237507Y-104724384D01*
X139177900Y-104730791D01*
X139043055Y-104781085D01*
X139043052Y-104781087D01*
X138951464Y-104849650D01*
X138885999Y-104874067D01*
X138877153Y-104874383D01*
X137734797Y-104874383D01*
X137589809Y-104903223D01*
X137589799Y-104903226D01*
X137453228Y-104959795D01*
X137453215Y-104959802D01*
X137330301Y-105041931D01*
X137330297Y-105041934D01*
X128002081Y-114370150D01*
X127940758Y-114403635D01*
X127871066Y-114398651D01*
X127826719Y-114370150D01*
X120239420Y-106782851D01*
X120215731Y-106767023D01*
X120153696Y-106725573D01*
X120151691Y-106724233D01*
X120116500Y-106700719D01*
X120116488Y-106700712D01*
X119979917Y-106644143D01*
X119979907Y-106644140D01*
X119834920Y-106615300D01*
X119834918Y-106615300D01*
X111030029Y-106615300D01*
X110962990Y-106595615D01*
X110942348Y-106578981D01*
X108835407Y-104472040D01*
X108801922Y-104410717D01*
X108806906Y-104341025D01*
X108848778Y-104285092D01*
X108914242Y-104260675D01*
X108961406Y-104266428D01*
X109107071Y-104313757D01*
X109316954Y-104347000D01*
X109529446Y-104347000D01*
X109739327Y-104313757D01*
X109739330Y-104313757D01*
X109941417Y-104248095D01*
X110130754Y-104151622D01*
X110184916Y-104112270D01*
X110184917Y-104112270D01*
X109552608Y-103479962D01*
X109616193Y-103462925D01*
X109730207Y-103397099D01*
X109823299Y-103304007D01*
X109889125Y-103189993D01*
X109906162Y-103126409D01*
X110538470Y-103758717D01*
X110538470Y-103758716D01*
X110577822Y-103704554D01*
X110674295Y-103515217D01*
X110739957Y-103313130D01*
X110739957Y-103313127D01*
X110773200Y-103103246D01*
X110773200Y-102890753D01*
X110739957Y-102680872D01*
X110739957Y-102680869D01*
X110674295Y-102478782D01*
X110577824Y-102289449D01*
X110538470Y-102235282D01*
X110538469Y-102235282D01*
X109906162Y-102867590D01*
X109889125Y-102804007D01*
X109823299Y-102689993D01*
X109730207Y-102596901D01*
X109616193Y-102531075D01*
X109552609Y-102514037D01*
X110184916Y-101881728D01*
X110130750Y-101842375D01*
X109941417Y-101745904D01*
X109739329Y-101680242D01*
X109529446Y-101647000D01*
X109316954Y-101647000D01*
X109107072Y-101680242D01*
X109107069Y-101680242D01*
X108904982Y-101745904D01*
X108715639Y-101842380D01*
X108661482Y-101881727D01*
X108661482Y-101881728D01*
X109293791Y-102514037D01*
X109230207Y-102531075D01*
X109116193Y-102596901D01*
X109023101Y-102689993D01*
X108957275Y-102804007D01*
X108940237Y-102867591D01*
X108270018Y-102197372D01*
X108236533Y-102136049D01*
X108236530Y-102136036D01*
X108233699Y-102123015D01*
X108233699Y-102099128D01*
X108227291Y-102039517D01*
X108199126Y-101964002D01*
X108176998Y-101904673D01*
X108176993Y-101904664D01*
X108090747Y-101789455D01*
X108090744Y-101789452D01*
X107975535Y-101703206D01*
X107975528Y-101703202D01*
X107840682Y-101652908D01*
X107840683Y-101652908D01*
X107781083Y-101646501D01*
X107781081Y-101646500D01*
X107781073Y-101646500D01*
X107781064Y-101646500D01*
X105985329Y-101646500D01*
X105985323Y-101646501D01*
X105925716Y-101652908D01*
X105790871Y-101703202D01*
X105790864Y-101703206D01*
X105675655Y-101789452D01*
X105675652Y-101789455D01*
X105589406Y-101904664D01*
X105589402Y-101904671D01*
X105539108Y-102039517D01*
X105532701Y-102099116D01*
X105532700Y-102099135D01*
X105532700Y-103894870D01*
X105532701Y-103894876D01*
X105539108Y-103954483D01*
X105589402Y-104089328D01*
X105589406Y-104089335D01*
X105675652Y-104204544D01*
X105675655Y-104204547D01*
X105790864Y-104290793D01*
X105790871Y-104290797D01*
X105835818Y-104307561D01*
X105925717Y-104341091D01*
X105985327Y-104347500D01*
X106536769Y-104347499D01*
X106603808Y-104367183D01*
X106624450Y-104383818D01*
X110189385Y-107948752D01*
X110223281Y-107971400D01*
X110312305Y-108030884D01*
X110350423Y-108046673D01*
X110448888Y-108087459D01*
X110542599Y-108106099D01*
X110566227Y-108110799D01*
X110593881Y-108116300D01*
X110593882Y-108116300D01*
X110593883Y-108116300D01*
X110741718Y-108116300D01*
X119398770Y-108116300D01*
X119465809Y-108135985D01*
X119486451Y-108152619D01*
X127127581Y-115793749D01*
X127161066Y-115855072D01*
X127163900Y-115881429D01*
X127163900Y-120977918D01*
X127163900Y-120977920D01*
X127163899Y-120977920D01*
X127192740Y-121122907D01*
X127192743Y-121122917D01*
X127249313Y-121259490D01*
X127249314Y-121259491D01*
X127249316Y-121259495D01*
X127264449Y-121282143D01*
X127306501Y-121345080D01*
X127331451Y-121382420D01*
X127331452Y-121382421D01*
X128575381Y-122626348D01*
X128608866Y-122687671D01*
X128611700Y-122714029D01*
X128611700Y-130612318D01*
X128611700Y-130612320D01*
X128611699Y-130612320D01*
X128640540Y-130757307D01*
X128640543Y-130757317D01*
X128680601Y-130854025D01*
X128697116Y-130893895D01*
X128714495Y-130919905D01*
X128723070Y-130932739D01*
X128779249Y-131016818D01*
X128779252Y-131016821D01*
X132022981Y-134260548D01*
X132056466Y-134321871D01*
X132059300Y-134348229D01*
X132059300Y-135883870D01*
X132059301Y-135883876D01*
X132065708Y-135943483D01*
X132116002Y-136078328D01*
X132116006Y-136078335D01*
X132202252Y-136193544D01*
X132202255Y-136193547D01*
X132317464Y-136279793D01*
X132317471Y-136279797D01*
X132452317Y-136330091D01*
X132452316Y-136330091D01*
X132459244Y-136330835D01*
X132511927Y-136336500D01*
X138607672Y-136336499D01*
X138667283Y-136330091D01*
X138802131Y-136279796D01*
X138917346Y-136193546D01*
X139003596Y-136078331D01*
X139053891Y-135943483D01*
X139060300Y-135883873D01*
X139060299Y-133688128D01*
X139053891Y-133628517D01*
X139003596Y-133493669D01*
X139003595Y-133493668D01*
X139003593Y-133493664D01*
X138917347Y-133378455D01*
X138917344Y-133378452D01*
X138802135Y-133292206D01*
X138802128Y-133292202D01*
X138667282Y-133241908D01*
X138667283Y-133241908D01*
X138607683Y-133235501D01*
X138607681Y-133235500D01*
X138607673Y-133235500D01*
X138607665Y-133235500D01*
X133172030Y-133235500D01*
X133104991Y-133215815D01*
X133084349Y-133199181D01*
X130149019Y-130263851D01*
X130115534Y-130202528D01*
X130112700Y-130176170D01*
X130112700Y-123372100D01*
X130132385Y-123305061D01*
X130185189Y-123259306D01*
X130236700Y-123248100D01*
X130586370Y-123248100D01*
X130653409Y-123267785D01*
X130674051Y-123284419D01*
X130729944Y-123340312D01*
X130879266Y-123432414D01*
X131045803Y-123487599D01*
X131148591Y-123498100D01*
X132198608Y-123498099D01*
X132198616Y-123498098D01*
X132198619Y-123498098D01*
X132284686Y-123489306D01*
X132301397Y-123487599D01*
X132467934Y-123432414D01*
X132617256Y-123340312D01*
X132673149Y-123284419D01*
X132734472Y-123250934D01*
X132760830Y-123248100D01*
X133104259Y-123248100D01*
X133132923Y-123256516D01*
X133162207Y-123262473D01*
X133168152Y-123266861D01*
X133171298Y-123267785D01*
X133190745Y-123283240D01*
X133191343Y-123283822D01*
X133248089Y-123340568D01*
X133252341Y-123343190D01*
X133260966Y-123351585D01*
X133266241Y-123360942D01*
X133283839Y-123381993D01*
X133286049Y-123386128D01*
X133315097Y-123429601D01*
X133315098Y-123429604D01*
X133368179Y-123509047D01*
X133368185Y-123509054D01*
X135022481Y-125163348D01*
X135055966Y-125224671D01*
X135058800Y-125251029D01*
X135058800Y-125536669D01*
X135058801Y-125536676D01*
X135065208Y-125596283D01*
X135115502Y-125731128D01*
X135115506Y-125731135D01*
X135201752Y-125846344D01*
X135201755Y-125846347D01*
X135316964Y-125932593D01*
X135316971Y-125932597D01*
X135361918Y-125949361D01*
X135451817Y-125982891D01*
X135511427Y-125989300D01*
X136207172Y-125989299D01*
X136266783Y-125982891D01*
X136290963Y-125973871D01*
X136360653Y-125968885D01*
X136377629Y-125973869D01*
X136401817Y-125982891D01*
X136461427Y-125989300D01*
X136942315Y-125989299D01*
X137009353Y-126008983D01*
X137055108Y-126061787D01*
X137065052Y-126130946D01*
X137056876Y-126160749D01*
X137037643Y-126207183D01*
X137037640Y-126207192D01*
X137008800Y-126352179D01*
X137008800Y-126842071D01*
X137008551Y-126842918D01*
X137008788Y-126843769D01*
X137000981Y-126885404D01*
X136965209Y-126981317D01*
X136958800Y-127040927D01*
X136958800Y-127514802D01*
X136956250Y-127523486D01*
X136957539Y-127532447D01*
X136946561Y-127556483D01*
X136939117Y-127581839D01*
X136932274Y-127587767D01*
X136928514Y-127596003D01*
X136906282Y-127610289D01*
X136886313Y-127627594D01*
X136875797Y-127629881D01*
X136869736Y-127633777D01*
X136834801Y-127638800D01*
X136783799Y-127638800D01*
X136716760Y-127619115D01*
X136671005Y-127566311D01*
X136659799Y-127514800D01*
X136659799Y-127040929D01*
X136659798Y-127040923D01*
X136659797Y-127040916D01*
X136653391Y-126981317D01*
X136634324Y-126930197D01*
X136603097Y-126846471D01*
X136603095Y-126846468D01*
X136599803Y-126842071D01*
X136584033Y-126821004D01*
X136582134Y-126815912D01*
X136578076Y-126812298D01*
X136570054Y-126783524D01*
X136559616Y-126755539D01*
X136559300Y-126746693D01*
X136559300Y-126588800D01*
X136461455Y-126588800D01*
X136401924Y-126595201D01*
X136401923Y-126595202D01*
X136378344Y-126603996D01*
X136308653Y-126608978D01*
X136291681Y-126603995D01*
X136266786Y-126594710D01*
X136266785Y-126594709D01*
X136266783Y-126594709D01*
X136207173Y-126588300D01*
X136207163Y-126588300D01*
X135511429Y-126588300D01*
X135511423Y-126588301D01*
X135451816Y-126594708D01*
X135316971Y-126645002D01*
X135316964Y-126645006D01*
X135201755Y-126731252D01*
X135201752Y-126731255D01*
X135115506Y-126846464D01*
X135115502Y-126846471D01*
X135065208Y-126981317D01*
X135058962Y-127039417D01*
X135058801Y-127040923D01*
X135058800Y-127040935D01*
X135058800Y-127326568D01*
X135039115Y-127393607D01*
X135022483Y-127414247D01*
X134976851Y-127459880D01*
X134976847Y-127459885D01*
X134947274Y-127504143D01*
X134947275Y-127504144D01*
X134894714Y-127582808D01*
X134838143Y-127719382D01*
X134838140Y-127719392D01*
X134809300Y-127864379D01*
X134809300Y-128461500D01*
X134789615Y-128528539D01*
X134736811Y-128574294D01*
X134685300Y-128585500D01*
X132511929Y-128585500D01*
X132511923Y-128585501D01*
X132452316Y-128591908D01*
X132317471Y-128642202D01*
X132317464Y-128642206D01*
X132202255Y-128728452D01*
X132202252Y-128728455D01*
X132116006Y-128843664D01*
X132116002Y-128843671D01*
X132065708Y-128978517D01*
X132059301Y-129038116D01*
X132059301Y-129038123D01*
X132059300Y-129038135D01*
X132059300Y-131233870D01*
X132059301Y-131233876D01*
X132065708Y-131293483D01*
X132116002Y-131428328D01*
X132116006Y-131428335D01*
X132202252Y-131543544D01*
X132202255Y-131543547D01*
X132317464Y-131629793D01*
X132317471Y-131629797D01*
X132452317Y-131680091D01*
X132452316Y-131680091D01*
X132459244Y-131680835D01*
X132511927Y-131686500D01*
X138607672Y-131686499D01*
X138667283Y-131680091D01*
X138802131Y-131629796D01*
X138917346Y-131543546D01*
X139003596Y-131428331D01*
X139053891Y-131293483D01*
X139060300Y-131233873D01*
X139060299Y-129038128D01*
X139053891Y-128978517D01*
X139044447Y-128953197D01*
X139003597Y-128843671D01*
X139003593Y-128843664D01*
X138917347Y-128728455D01*
X138917344Y-128728452D01*
X138802135Y-128642206D01*
X138802128Y-128642202D01*
X138667283Y-128591908D01*
X138610478Y-128585801D01*
X138545928Y-128559063D01*
X138506080Y-128501670D01*
X138503587Y-128431844D01*
X138507546Y-128419197D01*
X138553391Y-128296283D01*
X138559800Y-128236673D01*
X138559799Y-127040928D01*
X138553391Y-126981317D01*
X138517618Y-126885404D01*
X138516602Y-126879774D01*
X138514823Y-126877006D01*
X138509800Y-126842071D01*
X138509800Y-126788330D01*
X138529485Y-126721291D01*
X138546119Y-126700649D01*
X139748625Y-125498143D01*
X140968752Y-124278016D01*
X141017986Y-124204329D01*
X141050884Y-124155095D01*
X141107458Y-124018513D01*
X141133360Y-123888300D01*
X141136300Y-123873520D01*
X141136300Y-123359119D01*
X141155985Y-123292080D01*
X141172620Y-123271437D01*
X141193123Y-123250934D01*
X141216272Y-123227785D01*
X141304278Y-123082206D01*
X141354886Y-122919796D01*
X141361300Y-122849216D01*
X141361300Y-122729829D01*
X141380985Y-122662790D01*
X141397614Y-122642153D01*
X141662775Y-122376992D01*
X141724094Y-122343510D01*
X141793785Y-122348494D01*
X141849719Y-122390365D01*
X141874136Y-122455830D01*
X141874434Y-122466800D01*
X141863892Y-123082206D01*
X141859118Y-123360942D01*
X141859000Y-123367811D01*
X141859000Y-154609803D01*
X141883564Y-155543260D01*
X141869879Y-155603233D01*
X141427828Y-156462778D01*
X141426534Y-156465226D01*
X140960877Y-157323014D01*
X140915272Y-157370437D01*
X140026779Y-157898731D01*
X139979444Y-157915107D01*
X138844389Y-158063158D01*
X138828351Y-158064200D01*
X80076709Y-158064200D01*
X80045409Y-158060185D01*
X78920078Y-157766620D01*
X78870680Y-157740783D01*
X78438610Y-157370437D01*
X78194185Y-157160930D01*
X78171711Y-157135567D01*
X77687670Y-156409506D01*
X77668703Y-156362103D01*
X77497290Y-155382604D01*
X77495436Y-155360823D01*
X77496722Y-154971111D01*
X78565900Y-154971111D01*
X78565900Y-155213688D01*
X78597561Y-155454185D01*
X78660347Y-155688504D01*
X78753173Y-155912605D01*
X78753177Y-155912614D01*
X78775374Y-155951061D01*
X78874464Y-156122689D01*
X78874466Y-156122692D01*
X78874467Y-156122693D01*
X79022133Y-156315136D01*
X79022139Y-156315143D01*
X79193656Y-156486660D01*
X79193663Y-156486666D01*
X79212452Y-156501083D01*
X79386111Y-156634336D01*
X79596188Y-156755624D01*
X79676920Y-156789064D01*
X79802089Y-156840911D01*
X79820300Y-156848454D01*
X80054611Y-156911238D01*
X80234986Y-156934984D01*
X80295111Y-156942900D01*
X80295112Y-156942900D01*
X80537689Y-156942900D01*
X80585788Y-156936567D01*
X80778189Y-156911238D01*
X81012500Y-156848454D01*
X81236612Y-156755624D01*
X81446689Y-156634336D01*
X81639138Y-156486665D01*
X81810665Y-156315138D01*
X81958336Y-156122689D01*
X82079624Y-155912612D01*
X82172454Y-155688500D01*
X82235238Y-155454189D01*
X82266900Y-155213688D01*
X82266900Y-154971112D01*
X82266900Y-154971111D01*
X136427100Y-154971111D01*
X136427100Y-155213688D01*
X136458761Y-155454185D01*
X136521547Y-155688504D01*
X136614373Y-155912605D01*
X136614377Y-155912614D01*
X136636574Y-155951061D01*
X136735664Y-156122689D01*
X136735666Y-156122692D01*
X136735667Y-156122693D01*
X136883333Y-156315136D01*
X136883339Y-156315143D01*
X137054856Y-156486660D01*
X137054863Y-156486666D01*
X137073652Y-156501083D01*
X137247311Y-156634336D01*
X137457388Y-156755624D01*
X137538120Y-156789064D01*
X137663289Y-156840911D01*
X137681500Y-156848454D01*
X137915811Y-156911238D01*
X138096186Y-156934984D01*
X138156311Y-156942900D01*
X138156312Y-156942900D01*
X138398889Y-156942900D01*
X138446988Y-156936567D01*
X138639389Y-156911238D01*
X138873700Y-156848454D01*
X139097812Y-156755624D01*
X139307889Y-156634336D01*
X139500338Y-156486665D01*
X139671865Y-156315138D01*
X139819536Y-156122689D01*
X139940824Y-155912612D01*
X140033654Y-155688500D01*
X140096438Y-155454189D01*
X140128100Y-155213688D01*
X140128100Y-154971112D01*
X140096438Y-154730611D01*
X140033654Y-154496300D01*
X139940824Y-154272188D01*
X139819536Y-154062111D01*
X139671865Y-153869662D01*
X139671860Y-153869656D01*
X139500343Y-153698139D01*
X139500336Y-153698133D01*
X139307893Y-153550467D01*
X139307892Y-153550466D01*
X139307889Y-153550464D01*
X139097812Y-153429176D01*
X139097805Y-153429173D01*
X138873704Y-153336347D01*
X138639385Y-153273561D01*
X138398889Y-153241900D01*
X138398888Y-153241900D01*
X138156312Y-153241900D01*
X138156311Y-153241900D01*
X137915814Y-153273561D01*
X137681495Y-153336347D01*
X137457394Y-153429173D01*
X137457385Y-153429177D01*
X137247306Y-153550467D01*
X137054863Y-153698133D01*
X137054856Y-153698139D01*
X136883339Y-153869656D01*
X136883333Y-153869663D01*
X136735667Y-154062106D01*
X136614377Y-154272185D01*
X136614373Y-154272194D01*
X136521547Y-154496295D01*
X136458761Y-154730614D01*
X136427100Y-154971111D01*
X82266900Y-154971111D01*
X82235238Y-154730611D01*
X82172454Y-154496300D01*
X82079624Y-154272188D01*
X81958336Y-154062111D01*
X81810665Y-153869662D01*
X81810660Y-153869656D01*
X81639143Y-153698139D01*
X81639136Y-153698133D01*
X81446693Y-153550467D01*
X81446692Y-153550466D01*
X81446689Y-153550464D01*
X81236612Y-153429176D01*
X81236605Y-153429173D01*
X81012504Y-153336347D01*
X80778185Y-153273561D01*
X80537689Y-153241900D01*
X80537688Y-153241900D01*
X80295112Y-153241900D01*
X80295111Y-153241900D01*
X80054614Y-153273561D01*
X79820295Y-153336347D01*
X79596194Y-153429173D01*
X79596185Y-153429177D01*
X79386106Y-153550467D01*
X79193663Y-153698133D01*
X79193656Y-153698139D01*
X79022139Y-153869656D01*
X79022133Y-153869663D01*
X78874467Y-154062106D01*
X78753177Y-154272185D01*
X78753173Y-154272194D01*
X78660347Y-154496295D01*
X78597561Y-154730614D01*
X78565900Y-154971111D01*
X77496722Y-154971111D01*
X77496737Y-154966644D01*
X77498883Y-154316593D01*
X77514057Y-149718595D01*
X77553690Y-137710135D01*
X98574100Y-137710135D01*
X98574100Y-138505870D01*
X98574101Y-138505876D01*
X98580508Y-138565483D01*
X98630802Y-138700328D01*
X98630806Y-138700335D01*
X98717052Y-138815544D01*
X98717055Y-138815547D01*
X98832264Y-138901793D01*
X98832271Y-138901797D01*
X98967117Y-138952091D01*
X98967116Y-138952091D01*
X98974044Y-138952835D01*
X99026727Y-138958500D01*
X100422472Y-138958499D01*
X100482083Y-138952091D01*
X100616931Y-138901796D01*
X100732146Y-138815546D01*
X100818396Y-138700331D01*
X100868691Y-138565483D01*
X100875100Y-138505873D01*
X100875100Y-138505844D01*
X102274600Y-138505844D01*
X102281001Y-138565372D01*
X102281003Y-138565379D01*
X102331245Y-138700086D01*
X102331249Y-138700093D01*
X102417409Y-138815187D01*
X102417412Y-138815190D01*
X102532506Y-138901350D01*
X102532513Y-138901354D01*
X102667220Y-138951596D01*
X102667227Y-138951598D01*
X102726755Y-138957999D01*
X102726772Y-138958000D01*
X103174600Y-138958000D01*
X103674600Y-138958000D01*
X104122428Y-138958000D01*
X104122444Y-138957999D01*
X104181972Y-138951598D01*
X104181979Y-138951596D01*
X104316686Y-138901354D01*
X104316693Y-138901350D01*
X104431787Y-138815190D01*
X104431790Y-138815187D01*
X104517950Y-138700093D01*
X104517954Y-138700086D01*
X104568196Y-138565379D01*
X104568198Y-138565372D01*
X104574599Y-138505844D01*
X104574600Y-138505827D01*
X104574600Y-138358000D01*
X103674600Y-138358000D01*
X103674600Y-138958000D01*
X103174600Y-138958000D01*
X103174600Y-138358000D01*
X102274600Y-138358000D01*
X102274600Y-138505844D01*
X100875100Y-138505844D01*
X100875099Y-137710155D01*
X102274600Y-137710155D01*
X102274600Y-137858000D01*
X103174600Y-137858000D01*
X103674600Y-137858000D01*
X104574600Y-137858000D01*
X104574600Y-137710172D01*
X104574599Y-137710155D01*
X104571084Y-137677462D01*
X104570016Y-137667535D01*
X113987700Y-137667535D01*
X113987700Y-138463270D01*
X113987701Y-138463276D01*
X113994108Y-138522883D01*
X114044402Y-138657728D01*
X114044406Y-138657735D01*
X114130652Y-138772944D01*
X114130655Y-138772947D01*
X114245864Y-138859193D01*
X114245871Y-138859197D01*
X114380717Y-138909491D01*
X114380716Y-138909491D01*
X114387644Y-138910235D01*
X114440327Y-138915900D01*
X115836072Y-138915899D01*
X115895683Y-138909491D01*
X116030531Y-138859196D01*
X116145746Y-138772946D01*
X116231996Y-138657731D01*
X116282291Y-138522883D01*
X116288700Y-138463273D01*
X116288700Y-138463244D01*
X117688200Y-138463244D01*
X117694601Y-138522772D01*
X117694603Y-138522779D01*
X117744845Y-138657486D01*
X117744849Y-138657493D01*
X117831009Y-138772587D01*
X117831012Y-138772590D01*
X117946106Y-138858750D01*
X117946113Y-138858754D01*
X118080820Y-138908996D01*
X118080827Y-138908998D01*
X118140355Y-138915399D01*
X118140372Y-138915400D01*
X118588200Y-138915400D01*
X119088200Y-138915400D01*
X119536028Y-138915400D01*
X119536044Y-138915399D01*
X119595572Y-138908998D01*
X119595579Y-138908996D01*
X119730286Y-138858754D01*
X119730293Y-138858750D01*
X119845387Y-138772590D01*
X119845390Y-138772587D01*
X119931550Y-138657493D01*
X119931554Y-138657486D01*
X119981796Y-138522779D01*
X119981798Y-138522772D01*
X119988199Y-138463244D01*
X119988200Y-138463227D01*
X119988200Y-138315400D01*
X119088200Y-138315400D01*
X119088200Y-138915400D01*
X118588200Y-138915400D01*
X118588200Y-138315400D01*
X117688200Y-138315400D01*
X117688200Y-138463244D01*
X116288700Y-138463244D01*
X116288699Y-137667555D01*
X117688200Y-137667555D01*
X117688200Y-137815400D01*
X118588200Y-137815400D01*
X119088200Y-137815400D01*
X119988200Y-137815400D01*
X119988200Y-137667572D01*
X119988199Y-137667555D01*
X119981798Y-137608027D01*
X119981796Y-137608020D01*
X119931554Y-137473313D01*
X119931550Y-137473306D01*
X119845390Y-137358212D01*
X119845387Y-137358209D01*
X119730293Y-137272049D01*
X119730286Y-137272045D01*
X119595579Y-137221803D01*
X119595572Y-137221801D01*
X119536044Y-137215400D01*
X119088200Y-137215400D01*
X119088200Y-137815400D01*
X118588200Y-137815400D01*
X118588200Y-137215400D01*
X118140355Y-137215400D01*
X118080827Y-137221801D01*
X118080820Y-137221803D01*
X117946113Y-137272045D01*
X117946106Y-137272049D01*
X117831012Y-137358209D01*
X117831009Y-137358212D01*
X117744849Y-137473306D01*
X117744845Y-137473313D01*
X117694603Y-137608020D01*
X117694601Y-137608027D01*
X117688200Y-137667555D01*
X116288699Y-137667555D01*
X116288699Y-137667528D01*
X116282291Y-137607917D01*
X116232084Y-137473306D01*
X116231997Y-137473071D01*
X116231993Y-137473064D01*
X116145747Y-137357855D01*
X116145744Y-137357852D01*
X116030535Y-137271606D01*
X116030528Y-137271602D01*
X115895682Y-137221308D01*
X115895683Y-137221308D01*
X115836083Y-137214901D01*
X115836081Y-137214900D01*
X115836073Y-137214900D01*
X115836064Y-137214900D01*
X114440329Y-137214900D01*
X114440323Y-137214901D01*
X114380716Y-137221308D01*
X114245871Y-137271602D01*
X114245864Y-137271606D01*
X114130655Y-137357852D01*
X114130652Y-137357855D01*
X114044406Y-137473064D01*
X114044402Y-137473071D01*
X113994108Y-137607917D01*
X113989517Y-137650626D01*
X113987701Y-137667523D01*
X113987700Y-137667535D01*
X104570016Y-137667535D01*
X104568198Y-137650626D01*
X104568196Y-137650620D01*
X104517954Y-137515913D01*
X104517950Y-137515906D01*
X104431790Y-137400812D01*
X104431787Y-137400809D01*
X104316693Y-137314649D01*
X104316686Y-137314645D01*
X104181979Y-137264403D01*
X104181972Y-137264401D01*
X104122444Y-137258000D01*
X103674600Y-137258000D01*
X103674600Y-137858000D01*
X103174600Y-137858000D01*
X103174600Y-137258000D01*
X102726755Y-137258000D01*
X102667227Y-137264401D01*
X102667220Y-137264403D01*
X102532513Y-137314645D01*
X102532506Y-137314649D01*
X102417412Y-137400809D01*
X102417409Y-137400812D01*
X102331249Y-137515906D01*
X102331245Y-137515913D01*
X102281003Y-137650620D01*
X102281001Y-137650627D01*
X102274600Y-137710155D01*
X100875099Y-137710155D01*
X100875099Y-137710128D01*
X100868691Y-137650517D01*
X100852843Y-137608027D01*
X100818397Y-137515671D01*
X100818393Y-137515664D01*
X100732147Y-137400455D01*
X100732144Y-137400452D01*
X100616935Y-137314206D01*
X100616928Y-137314202D01*
X100482082Y-137263908D01*
X100482083Y-137263908D01*
X100422483Y-137257501D01*
X100422481Y-137257500D01*
X100422473Y-137257500D01*
X100422464Y-137257500D01*
X99026729Y-137257500D01*
X99026723Y-137257501D01*
X98967116Y-137263908D01*
X98832271Y-137314202D01*
X98832264Y-137314206D01*
X98717055Y-137400452D01*
X98717052Y-137400455D01*
X98630806Y-137515664D01*
X98630802Y-137515671D01*
X98580508Y-137650517D01*
X98574501Y-137706397D01*
X98574101Y-137710123D01*
X98574100Y-137710135D01*
X77553690Y-137710135D01*
X77553702Y-137706397D01*
X77571600Y-132283201D01*
X77571599Y-132283200D01*
X77571600Y-132283200D01*
X76075515Y-131293482D01*
X75927566Y-131195608D01*
X75914326Y-131185509D01*
X75147980Y-130514956D01*
X75110490Y-130455997D01*
X75105728Y-130426449D01*
X75006343Y-127867305D01*
X75006279Y-127859868D01*
X75006936Y-127829027D01*
X75031373Y-126680447D01*
X75033640Y-126659343D01*
X75233785Y-125633600D01*
X75236259Y-125623292D01*
X75239619Y-125611535D01*
X75326943Y-125305896D01*
X75361564Y-125249313D01*
X76087540Y-124571735D01*
X76111349Y-124554316D01*
X76911200Y-124104400D01*
X77393800Y-123799600D01*
X77557904Y-110624345D01*
X77578422Y-110557558D01*
X77631791Y-110512464D01*
X77701068Y-110503382D01*
X77764258Y-110533197D01*
X77769575Y-110538210D01*
X93030181Y-125798816D01*
X93063666Y-125860139D01*
X93066500Y-125886497D01*
X93066500Y-126534270D01*
X93066501Y-126534276D01*
X93072908Y-126593883D01*
X93123202Y-126728728D01*
X93123206Y-126728735D01*
X93209452Y-126843944D01*
X93209455Y-126843947D01*
X93324664Y-126930193D01*
X93324671Y-126930197D01*
X93459517Y-126980491D01*
X93459516Y-126980491D01*
X93466444Y-126981235D01*
X93519127Y-126986900D01*
X94443500Y-126986899D01*
X94452186Y-126989449D01*
X94461147Y-126988161D01*
X94485183Y-126999138D01*
X94510539Y-127006583D01*
X94516467Y-127013425D01*
X94524703Y-127017186D01*
X94538989Y-127039417D01*
X94556294Y-127059387D01*
X94558581Y-127069902D01*
X94562477Y-127075964D01*
X94567500Y-127110899D01*
X94567500Y-127311900D01*
X94547815Y-127378939D01*
X94495011Y-127424694D01*
X94443500Y-127435900D01*
X93519129Y-127435900D01*
X93519123Y-127435901D01*
X93459516Y-127442308D01*
X93324671Y-127492602D01*
X93324664Y-127492606D01*
X93209455Y-127578852D01*
X93209452Y-127578855D01*
X93123206Y-127694064D01*
X93123202Y-127694071D01*
X93072908Y-127828917D01*
X93066501Y-127888516D01*
X93066500Y-127888535D01*
X93066500Y-128684270D01*
X93066501Y-128684276D01*
X93072908Y-128743883D01*
X93123202Y-128878728D01*
X93123206Y-128878735D01*
X93209452Y-128993944D01*
X93209455Y-128993947D01*
X93324664Y-129080193D01*
X93324671Y-129080197D01*
X93459517Y-129130491D01*
X93459516Y-129130491D01*
X93466444Y-129131235D01*
X93519127Y-129136900D01*
X94443500Y-129136899D01*
X94510539Y-129156583D01*
X94556294Y-129209387D01*
X94567500Y-129260899D01*
X94567500Y-131314730D01*
X94567499Y-131314748D01*
X94567499Y-131480454D01*
X94567498Y-131480454D01*
X94578563Y-131521749D01*
X94608423Y-131633185D01*
X94629654Y-131669958D01*
X94637358Y-131683300D01*
X94637359Y-131683304D01*
X94637360Y-131683304D01*
X94687479Y-131770114D01*
X94687481Y-131770117D01*
X94806349Y-131888985D01*
X94806355Y-131888990D01*
X98537781Y-135620416D01*
X98571266Y-135681739D01*
X98574100Y-135708097D01*
X98574100Y-136355870D01*
X98574101Y-136355876D01*
X98580508Y-136415483D01*
X98630802Y-136550328D01*
X98630806Y-136550335D01*
X98717052Y-136665544D01*
X98717055Y-136665547D01*
X98832264Y-136751793D01*
X98832271Y-136751797D01*
X98967117Y-136802091D01*
X98967116Y-136802091D01*
X98974044Y-136802835D01*
X99026727Y-136808500D01*
X100422472Y-136808499D01*
X100482083Y-136802091D01*
X100616931Y-136751796D01*
X100732146Y-136665546D01*
X100818396Y-136550331D01*
X100868691Y-136415483D01*
X100875100Y-136355873D01*
X100875099Y-135560135D01*
X102274100Y-135560135D01*
X102274100Y-136355870D01*
X102274101Y-136355876D01*
X102280508Y-136415483D01*
X102330802Y-136550328D01*
X102330806Y-136550335D01*
X102417052Y-136665544D01*
X102417055Y-136665547D01*
X102532264Y-136751793D01*
X102532271Y-136751797D01*
X102667117Y-136802091D01*
X102667116Y-136802091D01*
X102674044Y-136802835D01*
X102726727Y-136808500D01*
X104122472Y-136808499D01*
X104182083Y-136802091D01*
X104316931Y-136751796D01*
X104432146Y-136665546D01*
X104518396Y-136550331D01*
X104568691Y-136415483D01*
X104575100Y-136355873D01*
X104575099Y-135560128D01*
X104568691Y-135500517D01*
X104552802Y-135457917D01*
X104518397Y-135365671D01*
X104518393Y-135365664D01*
X104432147Y-135250455D01*
X104432144Y-135250452D01*
X104316935Y-135164206D01*
X104316928Y-135164202D01*
X104182082Y-135113908D01*
X104182083Y-135113908D01*
X104122483Y-135107501D01*
X104122481Y-135107500D01*
X104122473Y-135107500D01*
X104122464Y-135107500D01*
X102726729Y-135107500D01*
X102726723Y-135107501D01*
X102667116Y-135113908D01*
X102532271Y-135164202D01*
X102532264Y-135164206D01*
X102417055Y-135250452D01*
X102417052Y-135250455D01*
X102330806Y-135365664D01*
X102330802Y-135365671D01*
X102280508Y-135500517D01*
X102278679Y-135517535D01*
X102274101Y-135560123D01*
X102274100Y-135560135D01*
X100875099Y-135560135D01*
X100875099Y-135560128D01*
X100868691Y-135500517D01*
X100852802Y-135457917D01*
X100818397Y-135365671D01*
X100818393Y-135365664D01*
X100732147Y-135250455D01*
X100732144Y-135250452D01*
X100616935Y-135164206D01*
X100616928Y-135164202D01*
X100482082Y-135113908D01*
X100482083Y-135113908D01*
X100422483Y-135107501D01*
X100422481Y-135107500D01*
X100422473Y-135107500D01*
X100422465Y-135107500D01*
X99774698Y-135107500D01*
X99707659Y-135087815D01*
X99687017Y-135071181D01*
X95804819Y-131188983D01*
X95771334Y-131127660D01*
X95768500Y-131101302D01*
X95768500Y-128684244D01*
X96767000Y-128684244D01*
X96773401Y-128743772D01*
X96773403Y-128743779D01*
X96823645Y-128878486D01*
X96823649Y-128878493D01*
X96909809Y-128993587D01*
X96909812Y-128993590D01*
X97024906Y-129079750D01*
X97024913Y-129079754D01*
X97159620Y-129129996D01*
X97159627Y-129129998D01*
X97219155Y-129136399D01*
X97219172Y-129136400D01*
X97667000Y-129136400D01*
X98167000Y-129136400D01*
X98614828Y-129136400D01*
X98614844Y-129136399D01*
X98674372Y-129129998D01*
X98674379Y-129129996D01*
X98809086Y-129079754D01*
X98809093Y-129079750D01*
X98924187Y-128993590D01*
X98924190Y-128993587D01*
X99010350Y-128878493D01*
X99010354Y-128878486D01*
X99060596Y-128743779D01*
X99060598Y-128743772D01*
X99066999Y-128684244D01*
X99067000Y-128684227D01*
X99067000Y-128536400D01*
X98167000Y-128536400D01*
X98167000Y-129136400D01*
X97667000Y-129136400D01*
X97667000Y-128536400D01*
X96767000Y-128536400D01*
X96767000Y-128684244D01*
X95768500Y-128684244D01*
X95768500Y-127888555D01*
X96767000Y-127888555D01*
X96767000Y-128036400D01*
X97667000Y-128036400D01*
X98167000Y-128036400D01*
X99067000Y-128036400D01*
X99067000Y-127888572D01*
X99066999Y-127888555D01*
X99060598Y-127829027D01*
X99060596Y-127829020D01*
X99010354Y-127694313D01*
X99010350Y-127694306D01*
X98924190Y-127579212D01*
X98924187Y-127579209D01*
X98809093Y-127493049D01*
X98809086Y-127493045D01*
X98674379Y-127442803D01*
X98674372Y-127442801D01*
X98614844Y-127436400D01*
X98167000Y-127436400D01*
X98167000Y-128036400D01*
X97667000Y-128036400D01*
X97667000Y-127436400D01*
X97219155Y-127436400D01*
X97159627Y-127442801D01*
X97159620Y-127442803D01*
X97024913Y-127493045D01*
X97024906Y-127493049D01*
X96909812Y-127579209D01*
X96909809Y-127579212D01*
X96823649Y-127694306D01*
X96823645Y-127694313D01*
X96773403Y-127829020D01*
X96773401Y-127829027D01*
X96767000Y-127888555D01*
X95768500Y-127888555D01*
X95768500Y-125666260D01*
X95768501Y-125666247D01*
X95768501Y-125498144D01*
X95762639Y-125476267D01*
X95727577Y-125345416D01*
X95725952Y-125342602D01*
X95648524Y-125208490D01*
X95648518Y-125208482D01*
X92613417Y-122173381D01*
X92579932Y-122112058D01*
X92584916Y-122042366D01*
X92626788Y-121986433D01*
X92692252Y-121962016D01*
X92701098Y-121961700D01*
X95178503Y-121961700D01*
X95245542Y-121981385D01*
X95266184Y-121998019D01*
X98342384Y-125074219D01*
X98375869Y-125135542D01*
X98370885Y-125205234D01*
X98329013Y-125261167D01*
X98263549Y-125285584D01*
X98254703Y-125285900D01*
X97219129Y-125285900D01*
X97219123Y-125285901D01*
X97159516Y-125292308D01*
X97024671Y-125342602D01*
X97024664Y-125342606D01*
X96909455Y-125428852D01*
X96909452Y-125428855D01*
X96823206Y-125544064D01*
X96823202Y-125544071D01*
X96772908Y-125678917D01*
X96766501Y-125738516D01*
X96766500Y-125738535D01*
X96766500Y-126534270D01*
X96766501Y-126534276D01*
X96772908Y-126593883D01*
X96823202Y-126728728D01*
X96823206Y-126728735D01*
X96909452Y-126843944D01*
X96909455Y-126843947D01*
X97024664Y-126930193D01*
X97024671Y-126930197D01*
X97159517Y-126980491D01*
X97159516Y-126980491D01*
X97166444Y-126981235D01*
X97219127Y-126986900D01*
X98614872Y-126986899D01*
X98674483Y-126980491D01*
X98809331Y-126930196D01*
X98924546Y-126843946D01*
X99010796Y-126728731D01*
X99061091Y-126593883D01*
X99067500Y-126534273D01*
X99067499Y-126098694D01*
X99087183Y-126031657D01*
X99139987Y-125985902D01*
X99209146Y-125975958D01*
X99272702Y-126004983D01*
X99279180Y-126011015D01*
X109547939Y-136279774D01*
X109547949Y-136279785D01*
X109552279Y-136284115D01*
X109552280Y-136284116D01*
X109664084Y-136395920D01*
X109737870Y-136438520D01*
X109801015Y-136474977D01*
X109953743Y-136515901D01*
X109953746Y-136515901D01*
X110119453Y-136515901D01*
X110119469Y-136515900D01*
X113988449Y-136515900D01*
X114055488Y-136535585D01*
X114087715Y-136565588D01*
X114130651Y-136622942D01*
X114130654Y-136622946D01*
X114130657Y-136622948D01*
X114245864Y-136709193D01*
X114245871Y-136709197D01*
X114380717Y-136759491D01*
X114380716Y-136759491D01*
X114387644Y-136760235D01*
X114440327Y-136765900D01*
X115836072Y-136765899D01*
X115895683Y-136759491D01*
X116030531Y-136709196D01*
X116145746Y-136622946D01*
X116231996Y-136507731D01*
X116282291Y-136372883D01*
X116288700Y-136313273D01*
X116288699Y-135517535D01*
X117687700Y-135517535D01*
X117687700Y-136313270D01*
X117687701Y-136313276D01*
X117694108Y-136372883D01*
X117744402Y-136507728D01*
X117744406Y-136507735D01*
X117830652Y-136622944D01*
X117830655Y-136622947D01*
X117945864Y-136709193D01*
X117945871Y-136709197D01*
X118080717Y-136759491D01*
X118080716Y-136759491D01*
X118087644Y-136760235D01*
X118140327Y-136765900D01*
X119536072Y-136765899D01*
X119595683Y-136759491D01*
X119730531Y-136709196D01*
X119845746Y-136622946D01*
X119931996Y-136507731D01*
X119982291Y-136372883D01*
X119988700Y-136313273D01*
X119988699Y-135517528D01*
X119982291Y-135457917D01*
X119931996Y-135323069D01*
X119931995Y-135323068D01*
X119931993Y-135323064D01*
X119845747Y-135207855D01*
X119845744Y-135207852D01*
X119730535Y-135121606D01*
X119730528Y-135121602D01*
X119595682Y-135071308D01*
X119595683Y-135071308D01*
X119536083Y-135064901D01*
X119536081Y-135064900D01*
X119536073Y-135064900D01*
X119536064Y-135064900D01*
X118140329Y-135064900D01*
X118140323Y-135064901D01*
X118080716Y-135071308D01*
X117945871Y-135121602D01*
X117945864Y-135121606D01*
X117830655Y-135207852D01*
X117830652Y-135207855D01*
X117744406Y-135323064D01*
X117744402Y-135323071D01*
X117694108Y-135457917D01*
X117687701Y-135517516D01*
X117687701Y-135517523D01*
X117687700Y-135517535D01*
X116288699Y-135517535D01*
X116288699Y-135517528D01*
X116282291Y-135457917D01*
X116231996Y-135323069D01*
X116231995Y-135323068D01*
X116231993Y-135323064D01*
X116145747Y-135207855D01*
X116145744Y-135207852D01*
X116030535Y-135121606D01*
X116030528Y-135121602D01*
X115895682Y-135071308D01*
X115895683Y-135071308D01*
X115836083Y-135064901D01*
X115836081Y-135064900D01*
X115836073Y-135064900D01*
X115836064Y-135064900D01*
X114440329Y-135064900D01*
X114440323Y-135064901D01*
X114380716Y-135071308D01*
X114245871Y-135121602D01*
X114245864Y-135121606D01*
X114130657Y-135207851D01*
X114130651Y-135207857D01*
X114087715Y-135265212D01*
X114031781Y-135307082D01*
X113988449Y-135314900D01*
X110332897Y-135314900D01*
X110265858Y-135295215D01*
X110245216Y-135278581D01*
X102728170Y-127761535D01*
X118839100Y-127761535D01*
X118839100Y-128557270D01*
X118839101Y-128557276D01*
X118845508Y-128616883D01*
X118895802Y-128751728D01*
X118895806Y-128751735D01*
X118982052Y-128866944D01*
X118982055Y-128866947D01*
X119097264Y-128953193D01*
X119097271Y-128953197D01*
X119232117Y-129003491D01*
X119232116Y-129003491D01*
X119239044Y-129004235D01*
X119291727Y-129009900D01*
X120687472Y-129009899D01*
X120747083Y-129003491D01*
X120881931Y-128953196D01*
X120997146Y-128866946D01*
X121083396Y-128751731D01*
X121133691Y-128616883D01*
X121140100Y-128557273D01*
X121140100Y-128557244D01*
X122539600Y-128557244D01*
X122546001Y-128616772D01*
X122546003Y-128616779D01*
X122596245Y-128751486D01*
X122596249Y-128751493D01*
X122682409Y-128866587D01*
X122682412Y-128866590D01*
X122797506Y-128952750D01*
X122797513Y-128952754D01*
X122932220Y-129002996D01*
X122932227Y-129002998D01*
X122991755Y-129009399D01*
X122991772Y-129009400D01*
X123439600Y-129009400D01*
X123939600Y-129009400D01*
X124387428Y-129009400D01*
X124387444Y-129009399D01*
X124446972Y-129002998D01*
X124446979Y-129002996D01*
X124581686Y-128952754D01*
X124581693Y-128952750D01*
X124696787Y-128866590D01*
X124696790Y-128866587D01*
X124782950Y-128751493D01*
X124782954Y-128751486D01*
X124833196Y-128616779D01*
X124833198Y-128616772D01*
X124839599Y-128557244D01*
X124839600Y-128557227D01*
X124839600Y-128409400D01*
X123939600Y-128409400D01*
X123939600Y-129009400D01*
X123439600Y-129009400D01*
X123439600Y-128409400D01*
X122539600Y-128409400D01*
X122539600Y-128557244D01*
X121140100Y-128557244D01*
X121140099Y-127761555D01*
X122539600Y-127761555D01*
X122539600Y-127909400D01*
X123439600Y-127909400D01*
X123939600Y-127909400D01*
X124839600Y-127909400D01*
X124839600Y-127761572D01*
X124839599Y-127761555D01*
X124833198Y-127702027D01*
X124833196Y-127702020D01*
X124782954Y-127567313D01*
X124782950Y-127567306D01*
X124696790Y-127452212D01*
X124696787Y-127452209D01*
X124581693Y-127366049D01*
X124581686Y-127366045D01*
X124446979Y-127315803D01*
X124446972Y-127315801D01*
X124387444Y-127309400D01*
X123939600Y-127309400D01*
X123939600Y-127909400D01*
X123439600Y-127909400D01*
X123439600Y-127309400D01*
X122991755Y-127309400D01*
X122932227Y-127315801D01*
X122932220Y-127315803D01*
X122797513Y-127366045D01*
X122797506Y-127366049D01*
X122682412Y-127452209D01*
X122682409Y-127452212D01*
X122596249Y-127567306D01*
X122596245Y-127567313D01*
X122546003Y-127702020D01*
X122546001Y-127702027D01*
X122539600Y-127761555D01*
X121140099Y-127761555D01*
X121140099Y-127761528D01*
X121133691Y-127701917D01*
X121130852Y-127694306D01*
X121083397Y-127567071D01*
X121083393Y-127567064D01*
X120997147Y-127451855D01*
X120997144Y-127451852D01*
X120881935Y-127365606D01*
X120881928Y-127365602D01*
X120747082Y-127315308D01*
X120747083Y-127315308D01*
X120687483Y-127308901D01*
X120687481Y-127308900D01*
X120687473Y-127308900D01*
X120687464Y-127308900D01*
X119291729Y-127308900D01*
X119291723Y-127308901D01*
X119232116Y-127315308D01*
X119097271Y-127365602D01*
X119097264Y-127365606D01*
X118982055Y-127451852D01*
X118982052Y-127451855D01*
X118895806Y-127567064D01*
X118895802Y-127567071D01*
X118845508Y-127701917D01*
X118839101Y-127761516D01*
X118839101Y-127761523D01*
X118839100Y-127761535D01*
X102728170Y-127761535D01*
X95966190Y-120999555D01*
X95966188Y-120999552D01*
X95847317Y-120880681D01*
X95847309Y-120880675D01*
X95759680Y-120830083D01*
X95759679Y-120830083D01*
X95710385Y-120801623D01*
X95557657Y-120760699D01*
X95399543Y-120760699D01*
X95391947Y-120760699D01*
X95391931Y-120760700D01*
X91819197Y-120760700D01*
X91752158Y-120741015D01*
X91731516Y-120724381D01*
X79346019Y-108338884D01*
X79312534Y-108277561D01*
X79309700Y-108251203D01*
X79309700Y-92939297D01*
X79329385Y-92872258D01*
X79346019Y-92851616D01*
X83829216Y-88368419D01*
X83890539Y-88334934D01*
X83916897Y-88332100D01*
X87575231Y-88332100D01*
X87575247Y-88332101D01*
X87582843Y-88332101D01*
X87740954Y-88332101D01*
X87740957Y-88332101D01*
X87893685Y-88291177D01*
X87943804Y-88262239D01*
X88030616Y-88212120D01*
X88142420Y-88100316D01*
X88142420Y-88100314D01*
X88152628Y-88090107D01*
X88152630Y-88090104D01*
X89050773Y-87191960D01*
X89112094Y-87158477D01*
X89164821Y-87159041D01*
X89164852Y-87158851D01*
X89166143Y-87159055D01*
X89167399Y-87159069D01*
X89169652Y-87159609D01*
X89169664Y-87159613D01*
X89365939Y-87190700D01*
X89365940Y-87190700D01*
X89564660Y-87190700D01*
X89564661Y-87190700D01*
X89760936Y-87159613D01*
X89762653Y-87159055D01*
X89765479Y-87158137D01*
X89835320Y-87156140D01*
X89895154Y-87192219D01*
X89925983Y-87254919D01*
X89927800Y-87276067D01*
X89927800Y-88407840D01*
X89927799Y-88407858D01*
X89927799Y-88573564D01*
X89927798Y-88573564D01*
X89968722Y-88726293D01*
X89990734Y-88764418D01*
X89990736Y-88764421D01*
X90047779Y-88863224D01*
X90047781Y-88863227D01*
X90166649Y-88982095D01*
X90166655Y-88982100D01*
X94971481Y-93786926D01*
X95004966Y-93848249D01*
X95007800Y-93874607D01*
X95007800Y-99820332D01*
X94988115Y-99887371D01*
X94935311Y-99933126D01*
X94866153Y-99943070D01*
X94845491Y-99938266D01*
X94840938Y-99936787D01*
X94840939Y-99936787D01*
X94693729Y-99913471D01*
X94644661Y-99905700D01*
X94445939Y-99905700D01*
X94380514Y-99916062D01*
X94249662Y-99936787D01*
X94060670Y-99998193D01*
X94060667Y-99998194D01*
X93883605Y-100088413D01*
X93722833Y-100205221D01*
X93582321Y-100345733D01*
X93465513Y-100506505D01*
X93385785Y-100662980D01*
X93337810Y-100713776D01*
X93269989Y-100730571D01*
X93203854Y-100708033D01*
X93164815Y-100662980D01*
X93141590Y-100617399D01*
X93085087Y-100506506D01*
X92968281Y-100345736D01*
X92827764Y-100205219D01*
X92666994Y-100088413D01*
X92609227Y-100058979D01*
X92489932Y-99998194D01*
X92489929Y-99998193D01*
X92300937Y-99936787D01*
X92202798Y-99921243D01*
X92104661Y-99905700D01*
X91905939Y-99905700D01*
X91840514Y-99916062D01*
X91709662Y-99936787D01*
X91520670Y-99998193D01*
X91520667Y-99998194D01*
X91343605Y-100088413D01*
X91182833Y-100205221D01*
X91042321Y-100345733D01*
X90925513Y-100506505D01*
X90845785Y-100662980D01*
X90797810Y-100713776D01*
X90729989Y-100730571D01*
X90663854Y-100708033D01*
X90624815Y-100662980D01*
X90601590Y-100617399D01*
X90545087Y-100506506D01*
X90428281Y-100345736D01*
X90287764Y-100205219D01*
X90126994Y-100088413D01*
X90069227Y-100058979D01*
X89949932Y-99998194D01*
X89949929Y-99998193D01*
X89760937Y-99936787D01*
X89662798Y-99921243D01*
X89564661Y-99905700D01*
X89365939Y-99905700D01*
X89300514Y-99916062D01*
X89169662Y-99936787D01*
X88980670Y-99998193D01*
X88980667Y-99998194D01*
X88803605Y-100088413D01*
X88642833Y-100205221D01*
X88502321Y-100345733D01*
X88385513Y-100506505D01*
X88305785Y-100662980D01*
X88257810Y-100713776D01*
X88189989Y-100730571D01*
X88123854Y-100708033D01*
X88084815Y-100662980D01*
X88061590Y-100617399D01*
X88005087Y-100506506D01*
X87888281Y-100345736D01*
X87747764Y-100205219D01*
X87586994Y-100088413D01*
X87529227Y-100058979D01*
X87409932Y-99998194D01*
X87409929Y-99998193D01*
X87220937Y-99936787D01*
X87122798Y-99921243D01*
X87024661Y-99905700D01*
X86825939Y-99905700D01*
X86760514Y-99916062D01*
X86629662Y-99936787D01*
X86440670Y-99998193D01*
X86440667Y-99998194D01*
X86263605Y-100088413D01*
X86102833Y-100205221D01*
X85962321Y-100345733D01*
X85845513Y-100506505D01*
X85765504Y-100663531D01*
X85717529Y-100714327D01*
X85649708Y-100731122D01*
X85583573Y-100708584D01*
X85544534Y-100663531D01*
X85464658Y-100506767D01*
X85437568Y-100469483D01*
X84822947Y-101084104D01*
X84799508Y-100996629D01*
X84740989Y-100895270D01*
X84658230Y-100812511D01*
X84556871Y-100753992D01*
X84469394Y-100730552D01*
X85084016Y-100115931D01*
X85084015Y-100115930D01*
X85046732Y-100088841D01*
X84869737Y-99998657D01*
X84680822Y-99937275D01*
X84484621Y-99906200D01*
X84285979Y-99906200D01*
X84089779Y-99937275D01*
X84089776Y-99937275D01*
X83900862Y-99998657D01*
X83723864Y-100088843D01*
X83686583Y-100115929D01*
X83686582Y-100115930D01*
X84301206Y-100730552D01*
X84213729Y-100753992D01*
X84112370Y-100812511D01*
X84029611Y-100895270D01*
X83971092Y-100996629D01*
X83947652Y-101084105D01*
X83333030Y-100469482D01*
X83333029Y-100469483D01*
X83305941Y-100506766D01*
X83226064Y-100663532D01*
X83178090Y-100714327D01*
X83110269Y-100731122D01*
X83044134Y-100708584D01*
X83005096Y-100663532D01*
X82925087Y-100506506D01*
X82808281Y-100345736D01*
X82667764Y-100205219D01*
X82506994Y-100088413D01*
X82449227Y-100058979D01*
X82329932Y-99998194D01*
X82329929Y-99998193D01*
X82140937Y-99936787D01*
X82042798Y-99921243D01*
X81944661Y-99905700D01*
X81745939Y-99905700D01*
X81680514Y-99916062D01*
X81549662Y-99936787D01*
X81360670Y-99998193D01*
X81360667Y-99998194D01*
X81183605Y-100088413D01*
X81022833Y-100205221D01*
X80882321Y-100345733D01*
X80765513Y-100506505D01*
X80675294Y-100683567D01*
X80675293Y-100683570D01*
X80613887Y-100872562D01*
X80583049Y-101067266D01*
X80582800Y-101068839D01*
X80582800Y-101267561D01*
X80588705Y-101304844D01*
X80613887Y-101463837D01*
X80675293Y-101652829D01*
X80675294Y-101652832D01*
X80750573Y-101800573D01*
X80765513Y-101829894D01*
X80882319Y-101990664D01*
X81022836Y-102131181D01*
X81183606Y-102247987D01*
X81244800Y-102279167D01*
X81360667Y-102338205D01*
X81360670Y-102338206D01*
X81455166Y-102368909D01*
X81549664Y-102399613D01*
X81745939Y-102430700D01*
X81745940Y-102430700D01*
X81944660Y-102430700D01*
X81944661Y-102430700D01*
X82140936Y-102399613D01*
X82329932Y-102338205D01*
X82506994Y-102247987D01*
X82667764Y-102131181D01*
X82808281Y-101990664D01*
X82925087Y-101829894D01*
X83005096Y-101672867D01*
X83053069Y-101622072D01*
X83120890Y-101605277D01*
X83187025Y-101627814D01*
X83226065Y-101672868D01*
X83305941Y-101829632D01*
X83333030Y-101866915D01*
X83947652Y-101252293D01*
X83971092Y-101339771D01*
X84029611Y-101441130D01*
X84112370Y-101523889D01*
X84213729Y-101582408D01*
X84301205Y-101605847D01*
X83686583Y-102220468D01*
X83686583Y-102220469D01*
X83723867Y-102247558D01*
X83900862Y-102337742D01*
X84089777Y-102399124D01*
X84285979Y-102430200D01*
X84484621Y-102430200D01*
X84680820Y-102399124D01*
X84680823Y-102399124D01*
X84869737Y-102337742D01*
X85046725Y-102247562D01*
X85084016Y-102220468D01*
X84469395Y-101605847D01*
X84556871Y-101582408D01*
X84658230Y-101523889D01*
X84740989Y-101441130D01*
X84799508Y-101339771D01*
X84822947Y-101252294D01*
X85437568Y-101866915D01*
X85464664Y-101829622D01*
X85544534Y-101672869D01*
X85592508Y-101622072D01*
X85660329Y-101605277D01*
X85726464Y-101627814D01*
X85765503Y-101672867D01*
X85845513Y-101829894D01*
X85962319Y-101990664D01*
X86102836Y-102131181D01*
X86263606Y-102247987D01*
X86324800Y-102279167D01*
X86440667Y-102338205D01*
X86440670Y-102338206D01*
X86535166Y-102368909D01*
X86629664Y-102399613D01*
X86825939Y-102430700D01*
X86825940Y-102430700D01*
X87024660Y-102430700D01*
X87024661Y-102430700D01*
X87220936Y-102399613D01*
X87409932Y-102338205D01*
X87586994Y-102247987D01*
X87747764Y-102131181D01*
X87888281Y-101990664D01*
X88005087Y-101829894D01*
X88084815Y-101673418D01*
X88132790Y-101622623D01*
X88200611Y-101605828D01*
X88266746Y-101628365D01*
X88305784Y-101673418D01*
X88385513Y-101829894D01*
X88502319Y-101990664D01*
X88642836Y-102131181D01*
X88803606Y-102247987D01*
X88864800Y-102279167D01*
X88980667Y-102338205D01*
X88980670Y-102338206D01*
X89075166Y-102368909D01*
X89169664Y-102399613D01*
X89365939Y-102430700D01*
X89365940Y-102430700D01*
X89564660Y-102430700D01*
X89564661Y-102430700D01*
X89760936Y-102399613D01*
X89949932Y-102338205D01*
X90126994Y-102247987D01*
X90287764Y-102131181D01*
X90428281Y-101990664D01*
X90545087Y-101829894D01*
X90624815Y-101673418D01*
X90672790Y-101622623D01*
X90740611Y-101605828D01*
X90806746Y-101628365D01*
X90845784Y-101673418D01*
X90925513Y-101829894D01*
X91042319Y-101990664D01*
X91182836Y-102131181D01*
X91343606Y-102247987D01*
X91404800Y-102279167D01*
X91520667Y-102338205D01*
X91520670Y-102338206D01*
X91615166Y-102368909D01*
X91709664Y-102399613D01*
X91905939Y-102430700D01*
X91905940Y-102430700D01*
X92104660Y-102430700D01*
X92104661Y-102430700D01*
X92300936Y-102399613D01*
X92489932Y-102338205D01*
X92666994Y-102247987D01*
X92827764Y-102131181D01*
X92968281Y-101990664D01*
X93085087Y-101829894D01*
X93164815Y-101673418D01*
X93212790Y-101622623D01*
X93280611Y-101605828D01*
X93346746Y-101628365D01*
X93385784Y-101673418D01*
X93465513Y-101829894D01*
X93582319Y-101990664D01*
X93722836Y-102131181D01*
X93856380Y-102228206D01*
X93883609Y-102247989D01*
X93885585Y-102249200D01*
X93886178Y-102249856D01*
X93887548Y-102250851D01*
X93887339Y-102251138D01*
X93932463Y-102301010D01*
X93944800Y-102354930D01*
X93944800Y-106294030D01*
X93944799Y-106294048D01*
X93944799Y-106459754D01*
X93944798Y-106459754D01*
X93985723Y-106612485D01*
X94004389Y-106644815D01*
X94004388Y-106644815D01*
X94004389Y-106644816D01*
X94064775Y-106749409D01*
X94064781Y-106749417D01*
X94183649Y-106868285D01*
X94183655Y-106868290D01*
X101705581Y-114390216D01*
X101739066Y-114451539D01*
X101741900Y-114477897D01*
X101741900Y-114809413D01*
X101748313Y-114879992D01*
X101798922Y-115042406D01*
X101886930Y-115187988D01*
X102007211Y-115308269D01*
X102007213Y-115308270D01*
X102007215Y-115308272D01*
X102152794Y-115396278D01*
X102315204Y-115446886D01*
X102385784Y-115453300D01*
X102385787Y-115453300D01*
X102899013Y-115453300D01*
X102899016Y-115453300D01*
X102916884Y-115451676D01*
X102985430Y-115465212D01*
X103015787Y-115487486D01*
X113902075Y-126373774D01*
X113902085Y-126373785D01*
X113906415Y-126378115D01*
X113906416Y-126378116D01*
X114018220Y-126489920D01*
X114018222Y-126489921D01*
X114018226Y-126489924D01*
X114155145Y-126568973D01*
X114155152Y-126568977D01*
X114266955Y-126598934D01*
X114307878Y-126609900D01*
X114307879Y-126609900D01*
X118839849Y-126609900D01*
X118906888Y-126629585D01*
X118939115Y-126659588D01*
X118969854Y-126700649D01*
X118982054Y-126716946D01*
X118982057Y-126716948D01*
X119097264Y-126803193D01*
X119097271Y-126803197D01*
X119232117Y-126853491D01*
X119232116Y-126853491D01*
X119239044Y-126854235D01*
X119291727Y-126859900D01*
X120687472Y-126859899D01*
X120747083Y-126853491D01*
X120881931Y-126803196D01*
X120997146Y-126716946D01*
X121083396Y-126601731D01*
X121133691Y-126466883D01*
X121140100Y-126407273D01*
X121140099Y-125611535D01*
X122539100Y-125611535D01*
X122539100Y-126407270D01*
X122539101Y-126407276D01*
X122545508Y-126466883D01*
X122595802Y-126601728D01*
X122595806Y-126601735D01*
X122682052Y-126716944D01*
X122682055Y-126716947D01*
X122797264Y-126803193D01*
X122797271Y-126803197D01*
X122932117Y-126853491D01*
X122932116Y-126853491D01*
X122939044Y-126854235D01*
X122991727Y-126859900D01*
X124387472Y-126859899D01*
X124447083Y-126853491D01*
X124581931Y-126803196D01*
X124697146Y-126716946D01*
X124783396Y-126601731D01*
X124833691Y-126466883D01*
X124840100Y-126407273D01*
X124840099Y-125611528D01*
X124833691Y-125551917D01*
X124828006Y-125536676D01*
X124783397Y-125417071D01*
X124783393Y-125417064D01*
X124697147Y-125301855D01*
X124697144Y-125301852D01*
X124581935Y-125215606D01*
X124581928Y-125215602D01*
X124447082Y-125165308D01*
X124447083Y-125165308D01*
X124387483Y-125158901D01*
X124387481Y-125158900D01*
X124387473Y-125158900D01*
X124387464Y-125158900D01*
X122991729Y-125158900D01*
X122991723Y-125158901D01*
X122932116Y-125165308D01*
X122797271Y-125215602D01*
X122797264Y-125215606D01*
X122682055Y-125301852D01*
X122682052Y-125301855D01*
X122595806Y-125417064D01*
X122595802Y-125417071D01*
X122545508Y-125551917D01*
X122539101Y-125611516D01*
X122539101Y-125611523D01*
X122539100Y-125611535D01*
X121140099Y-125611535D01*
X121140099Y-125611528D01*
X121133691Y-125551917D01*
X121128006Y-125536676D01*
X121083397Y-125417071D01*
X121083393Y-125417064D01*
X120997147Y-125301855D01*
X120997144Y-125301852D01*
X120881935Y-125215606D01*
X120881928Y-125215602D01*
X120747082Y-125165308D01*
X120747083Y-125165308D01*
X120687483Y-125158901D01*
X120687481Y-125158900D01*
X120687473Y-125158900D01*
X120687464Y-125158900D01*
X119291729Y-125158900D01*
X119291723Y-125158901D01*
X119232116Y-125165308D01*
X119097271Y-125215602D01*
X119097264Y-125215606D01*
X118982057Y-125301851D01*
X118982051Y-125301857D01*
X118939115Y-125359212D01*
X118883181Y-125401082D01*
X118839849Y-125408900D01*
X114687033Y-125408900D01*
X114619994Y-125389215D01*
X114599352Y-125372581D01*
X104794854Y-115568083D01*
X104761369Y-115506760D01*
X104766353Y-115437068D01*
X104808225Y-115381135D01*
X104818370Y-115374294D01*
X104927585Y-115308272D01*
X105047872Y-115187985D01*
X105077998Y-115138149D01*
X105129526Y-115090962D01*
X105184115Y-115078300D01*
X108048931Y-115078300D01*
X108048947Y-115078301D01*
X108056543Y-115078301D01*
X108214654Y-115078301D01*
X108214657Y-115078301D01*
X108367385Y-115037377D01*
X108417504Y-115008439D01*
X108504316Y-114958320D01*
X108616120Y-114846516D01*
X108616120Y-114846514D01*
X108626328Y-114836307D01*
X108626330Y-114836304D01*
X109803816Y-113658818D01*
X109865139Y-113625333D01*
X109891497Y-113622499D01*
X110039271Y-113622499D01*
X110039272Y-113622499D01*
X110098883Y-113616091D01*
X110233731Y-113565796D01*
X110348946Y-113479546D01*
X110435196Y-113364331D01*
X110485491Y-113229483D01*
X110491900Y-113169873D01*
X110491899Y-112674128D01*
X110485491Y-112614517D01*
X110485490Y-112614514D01*
X110467147Y-112565334D01*
X110462162Y-112495643D01*
X110467147Y-112478665D01*
X110485489Y-112429488D01*
X110485488Y-112429488D01*
X110485491Y-112429483D01*
X110491900Y-112369873D01*
X110491899Y-112222096D01*
X110511583Y-112155057D01*
X110528213Y-112134420D01*
X111586617Y-111076019D01*
X111647940Y-111042534D01*
X111674298Y-111039700D01*
X112543775Y-111039700D01*
X112610814Y-111059385D01*
X112649313Y-111098602D01*
X112676231Y-111142243D01*
X112796155Y-111262167D01*
X112796159Y-111262170D01*
X112940494Y-111351198D01*
X112940497Y-111351199D01*
X112940503Y-111351203D01*
X113101492Y-111404549D01*
X113200855Y-111414700D01*
X113336968Y-111414699D01*
X113404008Y-111434383D01*
X113424650Y-111451018D01*
X120844379Y-118870747D01*
X120844385Y-118870752D01*
X120864370Y-118884106D01*
X120864371Y-118884106D01*
X120967308Y-118952886D01*
X121002174Y-118967327D01*
X121012371Y-118971551D01*
X121103888Y-119009459D01*
X121220041Y-119032563D01*
X121225546Y-119033658D01*
X121248881Y-119038300D01*
X121248882Y-119038300D01*
X121248883Y-119038300D01*
X121396718Y-119038300D01*
X125018996Y-119038300D01*
X125066444Y-119047737D01*
X125090103Y-119057537D01*
X125090108Y-119057538D01*
X125090111Y-119057539D01*
X125244753Y-119088299D01*
X125244756Y-119088300D01*
X125244758Y-119088300D01*
X125402444Y-119088300D01*
X125402445Y-119088299D01*
X125557097Y-119057537D01*
X125702779Y-118997194D01*
X125833889Y-118909589D01*
X125945389Y-118798089D01*
X126032994Y-118666979D01*
X126093337Y-118521297D01*
X126124100Y-118366642D01*
X126124100Y-118208958D01*
X126124100Y-118208955D01*
X126124099Y-118208953D01*
X126093338Y-118054310D01*
X126093337Y-118054303D01*
X126093335Y-118054298D01*
X126032997Y-117908627D01*
X126032990Y-117908614D01*
X125945389Y-117777511D01*
X125945386Y-117777507D01*
X125833892Y-117666013D01*
X125833888Y-117666010D01*
X125702785Y-117578409D01*
X125702772Y-117578402D01*
X125557101Y-117518064D01*
X125557089Y-117518061D01*
X125402445Y-117487300D01*
X125402442Y-117487300D01*
X125244758Y-117487300D01*
X125244755Y-117487300D01*
X125090111Y-117518060D01*
X125090106Y-117518062D01*
X125090104Y-117518062D01*
X125090103Y-117518063D01*
X125066444Y-117527862D01*
X125018996Y-117537300D01*
X121685029Y-117537300D01*
X121617990Y-117517615D01*
X121597348Y-117500981D01*
X115600187Y-111503819D01*
X115566702Y-111442496D01*
X115571686Y-111372804D01*
X115613558Y-111316871D01*
X115622772Y-111310599D01*
X115701931Y-111261773D01*
X115821772Y-111141932D01*
X115821775Y-111141928D01*
X115910742Y-110997692D01*
X115910747Y-110997681D01*
X115964055Y-110836806D01*
X115974199Y-110737522D01*
X115974200Y-110737509D01*
X115974200Y-110689200D01*
X115148200Y-110689200D01*
X115081161Y-110669515D01*
X115035406Y-110616711D01*
X115024200Y-110565200D01*
X115024200Y-110439200D01*
X114898200Y-110439200D01*
X114831161Y-110419515D01*
X114785406Y-110366711D01*
X114774200Y-110315200D01*
X114774200Y-110189200D01*
X115274200Y-110189200D01*
X115974199Y-110189200D01*
X115974199Y-110140892D01*
X115974198Y-110140877D01*
X115964055Y-110041592D01*
X115910747Y-109880718D01*
X115910742Y-109880707D01*
X115821775Y-109736471D01*
X115821772Y-109736467D01*
X115701932Y-109616627D01*
X115701928Y-109616624D01*
X115557692Y-109527657D01*
X115557681Y-109527652D01*
X115396806Y-109474344D01*
X115297522Y-109464200D01*
X115274200Y-109464200D01*
X115274200Y-110189200D01*
X114774200Y-110189200D01*
X114774200Y-109464199D01*
X114750893Y-109464200D01*
X114750874Y-109464201D01*
X114651592Y-109474344D01*
X114490718Y-109527652D01*
X114490707Y-109527657D01*
X114346471Y-109616624D01*
X114346465Y-109616628D01*
X114337231Y-109625863D01*
X114275907Y-109659346D01*
X114206215Y-109654359D01*
X114161872Y-109625860D01*
X114152244Y-109616232D01*
X114152240Y-109616229D01*
X114007905Y-109527201D01*
X114007899Y-109527198D01*
X114007897Y-109527197D01*
X114007894Y-109527196D01*
X113846909Y-109473851D01*
X113747546Y-109463700D01*
X113200862Y-109463700D01*
X113200844Y-109463701D01*
X113101492Y-109473850D01*
X113101489Y-109473851D01*
X112940505Y-109527196D01*
X112940494Y-109527201D01*
X112796159Y-109616229D01*
X112796155Y-109616232D01*
X112676231Y-109736156D01*
X112649313Y-109779798D01*
X112597365Y-109826522D01*
X112543775Y-109838700D01*
X111460870Y-109838700D01*
X111460854Y-109838699D01*
X111453258Y-109838699D01*
X111295143Y-109838699D01*
X111220705Y-109858645D01*
X111142414Y-109879623D01*
X111142409Y-109879626D01*
X111005490Y-109958675D01*
X111005482Y-109958681D01*
X109578982Y-111385181D01*
X109517659Y-111418666D01*
X109491302Y-111421500D01*
X109343530Y-111421500D01*
X109343523Y-111421501D01*
X109283916Y-111427908D01*
X109149071Y-111478202D01*
X109149069Y-111478203D01*
X109065711Y-111540606D01*
X109000247Y-111565023D01*
X108931974Y-111550172D01*
X108917089Y-111540606D01*
X108833730Y-111478203D01*
X108833728Y-111478202D01*
X108698882Y-111427908D01*
X108698883Y-111427908D01*
X108639283Y-111421501D01*
X108639281Y-111421500D01*
X108639273Y-111421500D01*
X108639265Y-111421500D01*
X108491498Y-111421500D01*
X108424459Y-111401815D01*
X108403817Y-111385181D01*
X107096190Y-110077555D01*
X107096188Y-110077552D01*
X106977317Y-109958681D01*
X106977309Y-109958675D01*
X106886609Y-109906310D01*
X106886608Y-109906310D01*
X106856901Y-109889159D01*
X106840385Y-109879623D01*
X106687657Y-109838699D01*
X106529543Y-109838699D01*
X106521947Y-109838699D01*
X106521931Y-109838700D01*
X105184115Y-109838700D01*
X105117076Y-109819015D01*
X105077998Y-109778850D01*
X105058662Y-109746864D01*
X105047872Y-109729015D01*
X105047870Y-109729013D01*
X105047869Y-109729011D01*
X104927588Y-109608730D01*
X104899306Y-109591633D01*
X104782006Y-109520722D01*
X104619596Y-109470114D01*
X104619594Y-109470113D01*
X104619592Y-109470113D01*
X104570178Y-109465623D01*
X104549016Y-109463700D01*
X104035784Y-109463700D01*
X104016545Y-109465448D01*
X103965207Y-109470113D01*
X103802793Y-109520722D01*
X103657211Y-109608730D01*
X103657210Y-109608731D01*
X103555081Y-109710861D01*
X103547135Y-109715199D01*
X103541710Y-109722447D01*
X103516950Y-109731681D01*
X103493758Y-109744346D01*
X103484728Y-109743700D01*
X103476246Y-109746864D01*
X103450425Y-109741247D01*
X103424066Y-109739362D01*
X103415012Y-109733543D01*
X103407973Y-109732012D01*
X103379719Y-109710861D01*
X103279219Y-109610361D01*
X103245734Y-109549038D01*
X103242900Y-109522680D01*
X103242900Y-91406245D01*
X103242900Y-91406243D01*
X103201977Y-91253516D01*
X103201977Y-91253515D01*
X103201977Y-91253514D01*
X103173039Y-91203395D01*
X103173037Y-91203392D01*
X103122920Y-91116584D01*
X103011116Y-91004780D01*
X103011115Y-91004779D01*
X103006785Y-91000449D01*
X103006774Y-91000439D01*
X98349062Y-86342727D01*
X98315577Y-86281404D01*
X98316143Y-86228678D01*
X98315951Y-86228648D01*
X98316157Y-86227343D01*
X98316171Y-86226091D01*
X98316709Y-86223846D01*
X98316713Y-86223836D01*
X98347800Y-86027561D01*
X98347800Y-85828839D01*
X98316713Y-85632564D01*
X98263254Y-85468033D01*
X98255306Y-85443570D01*
X98255305Y-85443567D01*
X98165086Y-85266505D01*
X98155287Y-85253018D01*
X98048281Y-85105736D01*
X97907764Y-84965219D01*
X97760985Y-84858578D01*
X97746989Y-84848409D01*
X97742733Y-84846241D01*
X97691937Y-84798267D01*
X97675142Y-84730446D01*
X97697680Y-84664311D01*
X97711341Y-84648082D01*
X101500206Y-80859219D01*
X101561529Y-80825734D01*
X101587887Y-80822900D01*
X103180531Y-80822900D01*
X103180547Y-80822901D01*
X103188143Y-80822901D01*
X103346254Y-80822901D01*
X103346257Y-80822901D01*
X103498985Y-80781977D01*
X103549104Y-80753039D01*
X103635916Y-80702920D01*
X103747720Y-80591116D01*
X103747720Y-80591114D01*
X103757928Y-80580907D01*
X103757930Y-80580904D01*
X111275478Y-73063355D01*
X111336799Y-73029872D01*
X111401473Y-73033106D01*
X111443757Y-73046846D01*
X111653713Y-73080100D01*
X111653714Y-73080100D01*
X111866286Y-73080100D01*
X111866287Y-73080100D01*
X112076243Y-73046846D01*
X112278412Y-72981157D01*
X112467816Y-72884651D01*
X112554138Y-72821935D01*
X112639786Y-72759709D01*
X112639788Y-72759706D01*
X112639792Y-72759704D01*
X112790104Y-72609392D01*
X112790106Y-72609388D01*
X112790109Y-72609386D01*
X112915048Y-72437420D01*
X112915047Y-72437420D01*
X112915051Y-72437416D01*
X113011557Y-72248012D01*
X113077246Y-72045843D01*
X113110500Y-71835887D01*
X113110500Y-71623313D01*
X113077246Y-71413357D01*
X113011557Y-71211188D01*
X112915051Y-71021784D01*
X112915049Y-71021781D01*
X112915048Y-71021779D01*
X112790109Y-70849813D01*
X112639786Y-70699490D01*
X112467820Y-70574551D01*
X112278414Y-70478044D01*
X112278413Y-70478043D01*
X112278412Y-70478043D01*
X112076243Y-70412354D01*
X112076241Y-70412353D01*
X112076240Y-70412353D01*
X111914957Y-70386808D01*
X111866287Y-70379100D01*
X111653713Y-70379100D01*
X111605042Y-70386808D01*
X111443760Y-70412353D01*
X111241585Y-70478044D01*
X111052179Y-70574551D01*
X110880213Y-70699490D01*
X110729890Y-70849813D01*
X110604949Y-71021782D01*
X110600484Y-71030546D01*
X110552509Y-71081342D01*
X110484688Y-71098136D01*
X110418553Y-71075598D01*
X110379516Y-71030546D01*
X110375050Y-71021782D01*
X110250109Y-70849813D01*
X110099786Y-70699490D01*
X109927820Y-70574551D01*
X109738414Y-70478044D01*
X109738413Y-70478043D01*
X109738412Y-70478043D01*
X109536243Y-70412354D01*
X109536241Y-70412353D01*
X109536240Y-70412353D01*
X109374957Y-70386808D01*
X109326287Y-70379100D01*
X109113713Y-70379100D01*
X109065042Y-70386808D01*
X108903760Y-70412353D01*
X108701585Y-70478044D01*
X108512179Y-70574551D01*
X108340213Y-70699490D01*
X108189890Y-70849813D01*
X108064949Y-71021782D01*
X108060202Y-71031099D01*
X108012227Y-71081893D01*
X107944405Y-71098687D01*
X107878271Y-71076148D01*
X107839234Y-71031095D01*
X107834626Y-71022052D01*
X107795270Y-70967882D01*
X107795269Y-70967882D01*
X107162962Y-71600190D01*
X107145925Y-71536607D01*
X107080099Y-71422593D01*
X106987007Y-71329501D01*
X106872993Y-71263675D01*
X106809409Y-71246637D01*
X107441716Y-70614328D01*
X107387550Y-70574975D01*
X107198217Y-70478504D01*
X106996129Y-70412842D01*
X106786246Y-70379600D01*
X106573754Y-70379600D01*
X106363872Y-70412842D01*
X106363869Y-70412842D01*
X106161782Y-70478504D01*
X105972439Y-70574980D01*
X105918282Y-70614327D01*
X105918282Y-70614328D01*
X106550591Y-71246637D01*
X106487007Y-71263675D01*
X106372993Y-71329501D01*
X106279901Y-71422593D01*
X106214075Y-71536607D01*
X106197037Y-71600191D01*
X105526818Y-70929972D01*
X105493333Y-70868649D01*
X105493330Y-70868636D01*
X105490499Y-70855615D01*
X105490499Y-70831728D01*
X105484091Y-70772117D01*
X105455926Y-70696602D01*
X105433798Y-70637273D01*
X105433793Y-70637264D01*
X105347547Y-70522055D01*
X105347544Y-70522052D01*
X105232335Y-70435806D01*
X105232328Y-70435802D01*
X105097482Y-70385508D01*
X105097483Y-70385508D01*
X105037883Y-70379101D01*
X105037881Y-70379100D01*
X105037873Y-70379100D01*
X105037865Y-70379100D01*
X103834700Y-70379100D01*
X103767661Y-70359415D01*
X103721906Y-70306611D01*
X103710700Y-70255100D01*
X103710700Y-68973874D01*
X103719334Y-68944468D01*
X103725833Y-68914511D01*
X103729617Y-68909449D01*
X103730385Y-68906835D01*
X103746962Y-68886249D01*
X103747824Y-68885387D01*
X103809124Y-68851869D01*
X103878818Y-68856813D01*
X103923234Y-68885339D01*
X103932467Y-68894572D01*
X103932471Y-68894575D01*
X104076707Y-68983542D01*
X104076718Y-68983547D01*
X104237593Y-69036855D01*
X104336883Y-69046999D01*
X104860200Y-69046999D01*
X104883508Y-69046999D01*
X104883522Y-69046998D01*
X104982807Y-69036855D01*
X105143681Y-68983547D01*
X105143692Y-68983542D01*
X105287928Y-68894575D01*
X105287932Y-68894572D01*
X105407772Y-68774732D01*
X105407775Y-68774728D01*
X105496742Y-68630492D01*
X105496747Y-68630481D01*
X105550055Y-68469606D01*
X105560199Y-68370322D01*
X105560200Y-68370309D01*
X105560200Y-68322000D01*
X104860200Y-68322000D01*
X104860200Y-69046999D01*
X104336883Y-69046999D01*
X104360200Y-69046998D01*
X104360200Y-67822000D01*
X104860200Y-67822000D01*
X105560199Y-67822000D01*
X105560199Y-67773692D01*
X105560198Y-67773677D01*
X105550055Y-67674392D01*
X105496747Y-67513518D01*
X105496742Y-67513507D01*
X105407775Y-67369271D01*
X105407772Y-67369267D01*
X105287932Y-67249427D01*
X105287928Y-67249424D01*
X105143692Y-67160457D01*
X105143681Y-67160452D01*
X104982806Y-67107144D01*
X104883522Y-67097000D01*
X104860200Y-67097000D01*
X104860200Y-67822000D01*
X104360200Y-67822000D01*
X104360200Y-67096999D01*
X104336893Y-67097000D01*
X104336874Y-67097001D01*
X104237592Y-67107144D01*
X104076718Y-67160452D01*
X104076707Y-67160457D01*
X103932471Y-67249424D01*
X103932465Y-67249428D01*
X103923231Y-67258663D01*
X103861907Y-67292146D01*
X103792215Y-67287159D01*
X103747872Y-67258660D01*
X103738244Y-67249032D01*
X103738240Y-67249029D01*
X103593905Y-67160001D01*
X103593899Y-67159998D01*
X103593897Y-67159997D01*
X103593894Y-67159996D01*
X103432909Y-67106651D01*
X103333546Y-67096500D01*
X102786862Y-67096500D01*
X102786844Y-67096501D01*
X102687492Y-67106650D01*
X102687489Y-67106651D01*
X102526505Y-67159996D01*
X102526494Y-67160001D01*
X102382159Y-67249029D01*
X102382155Y-67249032D01*
X102262232Y-67368955D01*
X102262229Y-67368959D01*
X102173201Y-67513294D01*
X102173196Y-67513305D01*
X102119851Y-67674290D01*
X102109700Y-67773647D01*
X102109700Y-68370337D01*
X102109701Y-68370355D01*
X102119850Y-68469707D01*
X102119851Y-68469710D01*
X102173196Y-68630694D01*
X102173201Y-68630705D01*
X102262229Y-68775040D01*
X102262232Y-68775044D01*
X102373381Y-68886193D01*
X102406866Y-68947516D01*
X102409700Y-68973874D01*
X102409700Y-70713871D01*
X102433144Y-70831727D01*
X102433145Y-70831731D01*
X102434698Y-70839542D01*
X102472156Y-70929972D01*
X102483735Y-70957927D01*
X102554923Y-71064469D01*
X102554926Y-71064473D01*
X102554927Y-71064474D01*
X102753181Y-71262727D01*
X102786666Y-71324050D01*
X102789500Y-71350408D01*
X102789500Y-72627470D01*
X102789501Y-72627476D01*
X102795908Y-72687083D01*
X102846202Y-72821928D01*
X102846206Y-72821935D01*
X102932452Y-72937144D01*
X102932455Y-72937147D01*
X103047664Y-73023393D01*
X103047671Y-73023397D01*
X103182517Y-73073691D01*
X103182516Y-73073691D01*
X103189444Y-73074435D01*
X103242127Y-73080100D01*
X105037872Y-73080099D01*
X105097483Y-73073691D01*
X105232331Y-73023396D01*
X105347546Y-72937146D01*
X105433796Y-72821931D01*
X105484091Y-72687083D01*
X105490500Y-72627473D01*
X105490499Y-72616912D01*
X105510179Y-72549875D01*
X105526818Y-72529226D01*
X106197037Y-71859008D01*
X106214075Y-71922593D01*
X106279901Y-72036607D01*
X106372993Y-72129699D01*
X106487007Y-72195525D01*
X106550590Y-72212562D01*
X105918282Y-72844869D01*
X105918282Y-72844870D01*
X105972449Y-72884224D01*
X106161782Y-72980695D01*
X106332970Y-73036317D01*
X106390645Y-73075754D01*
X106417844Y-73140113D01*
X106405930Y-73208959D01*
X106382333Y-73241929D01*
X94959826Y-84664437D01*
X94898503Y-84697922D01*
X94845778Y-84697358D01*
X94845748Y-84697549D01*
X94844456Y-84697344D01*
X94843203Y-84697331D01*
X94840936Y-84696786D01*
X94671496Y-84669950D01*
X94644661Y-84665700D01*
X94445939Y-84665700D01*
X94380514Y-84676062D01*
X94249662Y-84696787D01*
X94060670Y-84758193D01*
X94060667Y-84758194D01*
X93883605Y-84848413D01*
X93722833Y-84965221D01*
X93582321Y-85105733D01*
X93465513Y-85266505D01*
X93385785Y-85422980D01*
X93337810Y-85473776D01*
X93269989Y-85490571D01*
X93203854Y-85468033D01*
X93164815Y-85422980D01*
X93085086Y-85266505D01*
X93075287Y-85253018D01*
X92968281Y-85105736D01*
X92827764Y-84965219D01*
X92666994Y-84848413D01*
X92609227Y-84818979D01*
X92489932Y-84758194D01*
X92489929Y-84758193D01*
X92300937Y-84696787D01*
X92202798Y-84681243D01*
X92104661Y-84665700D01*
X91905939Y-84665700D01*
X91840514Y-84676062D01*
X91709662Y-84696787D01*
X91520670Y-84758193D01*
X91520667Y-84758194D01*
X91343604Y-84848414D01*
X91325683Y-84861434D01*
X91259877Y-84884912D01*
X91191823Y-84869085D01*
X91143129Y-84818979D01*
X91128800Y-84761114D01*
X91128800Y-83692845D01*
X91128800Y-83692843D01*
X91105986Y-83607700D01*
X91087877Y-83540115D01*
X91028774Y-83437746D01*
X91008820Y-83403184D01*
X90897016Y-83291380D01*
X90897013Y-83291378D01*
X90251190Y-82645555D01*
X90251188Y-82645552D01*
X90132317Y-82526681D01*
X90132309Y-82526675D01*
X90043994Y-82475687D01*
X90043993Y-82475687D01*
X89995385Y-82447623D01*
X89842657Y-82406699D01*
X89684543Y-82406699D01*
X89676947Y-82406699D01*
X89676931Y-82406700D01*
X87347743Y-82406700D01*
X87195014Y-82447623D01*
X87170711Y-82461655D01*
X87146407Y-82475687D01*
X87146406Y-82475687D01*
X87058090Y-82526675D01*
X87058082Y-82526681D01*
X86444781Y-83139982D01*
X86444779Y-83139985D01*
X86394661Y-83226794D01*
X86394659Y-83226796D01*
X86365725Y-83276909D01*
X86365724Y-83276910D01*
X86361847Y-83291380D01*
X86324799Y-83429643D01*
X86324799Y-83429645D01*
X86324799Y-83597746D01*
X86324800Y-83597759D01*
X86324800Y-84741470D01*
X86305115Y-84808509D01*
X86267433Y-84845391D01*
X86267548Y-84845549D01*
X86266476Y-84846327D01*
X86265585Y-84847200D01*
X86263609Y-84848410D01*
X86102833Y-84965221D01*
X85962321Y-85105733D01*
X85845513Y-85266505D01*
X85765785Y-85422980D01*
X85717810Y-85473776D01*
X85649989Y-85490571D01*
X85583854Y-85468033D01*
X85544815Y-85422980D01*
X85465086Y-85266505D01*
X85455287Y-85253018D01*
X85348281Y-85105736D01*
X85207764Y-84965219D01*
X85046994Y-84848413D01*
X84989227Y-84818979D01*
X84869932Y-84758194D01*
X84869929Y-84758193D01*
X84680937Y-84696787D01*
X84582798Y-84681243D01*
X84484661Y-84665700D01*
X84285939Y-84665700D01*
X84220514Y-84676062D01*
X84089662Y-84696787D01*
X83900670Y-84758193D01*
X83900667Y-84758194D01*
X83723605Y-84848413D01*
X83562833Y-84965221D01*
X83422321Y-85105733D01*
X83305513Y-85266505D01*
X83225785Y-85422980D01*
X83177810Y-85473776D01*
X83109989Y-85490571D01*
X83043854Y-85468033D01*
X83004815Y-85422980D01*
X82925086Y-85266505D01*
X82915287Y-85253018D01*
X82808281Y-85105736D01*
X82667764Y-84965219D01*
X82506994Y-84848413D01*
X82449227Y-84818979D01*
X82329932Y-84758194D01*
X82329929Y-84758193D01*
X82140937Y-84696787D01*
X82042798Y-84681243D01*
X81944661Y-84665700D01*
X81745939Y-84665700D01*
X81680514Y-84676062D01*
X81549662Y-84696787D01*
X81360670Y-84758193D01*
X81360667Y-84758194D01*
X81183605Y-84848413D01*
X81022833Y-84965221D01*
X80882321Y-85105733D01*
X80765513Y-85266505D01*
X80675294Y-85443567D01*
X80675293Y-85443570D01*
X80613887Y-85632562D01*
X80584508Y-85818054D01*
X80582800Y-85828839D01*
X80582800Y-86027561D01*
X80596643Y-86114964D01*
X80613887Y-86223837D01*
X80675293Y-86412829D01*
X80675294Y-86412832D01*
X80749195Y-86557869D01*
X80765513Y-86589894D01*
X80882319Y-86750664D01*
X81022836Y-86891181D01*
X81148514Y-86982491D01*
X81183609Y-87007989D01*
X81185585Y-87009200D01*
X81186178Y-87009856D01*
X81187548Y-87010851D01*
X81187339Y-87011138D01*
X81232463Y-87061010D01*
X81244800Y-87114930D01*
X81244800Y-87983802D01*
X81225115Y-88050841D01*
X81208481Y-88071483D01*
X77803008Y-91476954D01*
X77741685Y-91510439D01*
X77671993Y-91505455D01*
X77616060Y-91463583D01*
X77591643Y-91398119D01*
X77591348Y-91387039D01*
X77673200Y-86893400D01*
X77495400Y-86537800D01*
X77235433Y-86340583D01*
X77225879Y-86332546D01*
X77222202Y-86329122D01*
X77208283Y-86313877D01*
X77200446Y-86308864D01*
X77192223Y-86301207D01*
X77191885Y-86300637D01*
X77190405Y-86299502D01*
X77158958Y-86281345D01*
X77146016Y-86272749D01*
X76092823Y-85473776D01*
X76023821Y-85421429D01*
X76020617Y-85418914D01*
X75247359Y-84790641D01*
X75207743Y-84733091D01*
X75202717Y-84711348D01*
X75184646Y-84580332D01*
X75107843Y-84023512D01*
X75107733Y-84022689D01*
X75072083Y-83749370D01*
X74956718Y-82864910D01*
X74955751Y-82844611D01*
X75006023Y-81386729D01*
X75006798Y-81376516D01*
X75158392Y-80087966D01*
X75158865Y-80084407D01*
X75252796Y-79450376D01*
X75282091Y-79386948D01*
X75300418Y-79369833D01*
X75892685Y-78919711D01*
X75897801Y-78916026D01*
X76444752Y-78543105D01*
X76464225Y-78532255D01*
X77139800Y-78232000D01*
X77139800Y-78231999D01*
X77139801Y-78231999D01*
X77139802Y-78231998D01*
X77393799Y-77673202D01*
X77393800Y-77673199D01*
X77410388Y-67770290D01*
X77417279Y-63655943D01*
X77419195Y-62512240D01*
X77419335Y-62506560D01*
X77420726Y-62477348D01*
X77428604Y-62311911D01*
X78464300Y-62311911D01*
X78464300Y-62554488D01*
X78495961Y-62794985D01*
X78558747Y-63029304D01*
X78648556Y-63246121D01*
X78651576Y-63253412D01*
X78772864Y-63463489D01*
X78772866Y-63463492D01*
X78772867Y-63463493D01*
X78920533Y-63655936D01*
X78920539Y-63655943D01*
X79092056Y-63827460D01*
X79092062Y-63827465D01*
X79284511Y-63975136D01*
X79494588Y-64096424D01*
X79718700Y-64189254D01*
X79953011Y-64252038D01*
X80133386Y-64275784D01*
X80193511Y-64283700D01*
X80193512Y-64283700D01*
X80436089Y-64283700D01*
X80484188Y-64277367D01*
X80676589Y-64252038D01*
X80910900Y-64189254D01*
X81135012Y-64096424D01*
X81345089Y-63975136D01*
X81537538Y-63827465D01*
X81709065Y-63655938D01*
X81765868Y-63581911D01*
X135411100Y-63581911D01*
X135411100Y-63824488D01*
X135442761Y-64064985D01*
X135505547Y-64299304D01*
X135595356Y-64516121D01*
X135598376Y-64523412D01*
X135719664Y-64733489D01*
X135719666Y-64733492D01*
X135719667Y-64733493D01*
X135867333Y-64925936D01*
X135867339Y-64925943D01*
X136038856Y-65097460D01*
X136038862Y-65097465D01*
X136231311Y-65245136D01*
X136441388Y-65366424D01*
X136665500Y-65459254D01*
X136899811Y-65522038D01*
X137080186Y-65545784D01*
X137140311Y-65553700D01*
X137140312Y-65553700D01*
X137382889Y-65553700D01*
X137430988Y-65547367D01*
X137623389Y-65522038D01*
X137857700Y-65459254D01*
X138081812Y-65366424D01*
X138291889Y-65245136D01*
X138484338Y-65097465D01*
X138655865Y-64925938D01*
X138803536Y-64733489D01*
X138924824Y-64523412D01*
X139017654Y-64299300D01*
X139080438Y-64064989D01*
X139112100Y-63824488D01*
X139112100Y-63581912D01*
X139080438Y-63341411D01*
X139017654Y-63107100D01*
X138924824Y-62882988D01*
X138803536Y-62672911D01*
X138655865Y-62480462D01*
X138655860Y-62480456D01*
X138484343Y-62308939D01*
X138484336Y-62308933D01*
X138291893Y-62161267D01*
X138291892Y-62161266D01*
X138291889Y-62161264D01*
X138109322Y-62055859D01*
X138081814Y-62039977D01*
X138081805Y-62039973D01*
X137857704Y-61947147D01*
X137623385Y-61884361D01*
X137382889Y-61852700D01*
X137382888Y-61852700D01*
X137140312Y-61852700D01*
X137140311Y-61852700D01*
X136899814Y-61884361D01*
X136665495Y-61947147D01*
X136441394Y-62039973D01*
X136441385Y-62039977D01*
X136231306Y-62161267D01*
X136038863Y-62308933D01*
X136038856Y-62308939D01*
X135867339Y-62480456D01*
X135867333Y-62480463D01*
X135719667Y-62672906D01*
X135598377Y-62882985D01*
X135598373Y-62882994D01*
X135505547Y-63107095D01*
X135442761Y-63341414D01*
X135411100Y-63581911D01*
X81765868Y-63581911D01*
X81856736Y-63463489D01*
X81978024Y-63253412D01*
X82070854Y-63029300D01*
X82133638Y-62794989D01*
X82165300Y-62554488D01*
X82165300Y-62311912D01*
X82133638Y-62071411D01*
X82070854Y-61837100D01*
X81978024Y-61612988D01*
X81856736Y-61402911D01*
X81756296Y-61272015D01*
X81709066Y-61210463D01*
X81709060Y-61210456D01*
X81537543Y-61038939D01*
X81537536Y-61038933D01*
X81345093Y-60891267D01*
X81345092Y-60891266D01*
X81345089Y-60891264D01*
X81135012Y-60769976D01*
X81065362Y-60741126D01*
X80910904Y-60677147D01*
X80676585Y-60614361D01*
X80436089Y-60582700D01*
X80436088Y-60582700D01*
X80193512Y-60582700D01*
X80193511Y-60582700D01*
X79953014Y-60614361D01*
X79718695Y-60677147D01*
X79494594Y-60769973D01*
X79494585Y-60769977D01*
X79354356Y-60850939D01*
X79288866Y-60888750D01*
X79284506Y-60891267D01*
X79092063Y-61038933D01*
X79092056Y-61038939D01*
X78920539Y-61210456D01*
X78920533Y-61210463D01*
X78772867Y-61402906D01*
X78651577Y-61612985D01*
X78651573Y-61612994D01*
X78558747Y-61837095D01*
X78495961Y-62071414D01*
X78464300Y-62311911D01*
X77428604Y-62311911D01*
X77468171Y-61480996D01*
X77472285Y-61454701D01*
X77474008Y-61448298D01*
X77490571Y-61411742D01*
X77622400Y-61214000D01*
X78074656Y-60409987D01*
X78085893Y-60393332D01*
X78537978Y-59828226D01*
X78560624Y-59806329D01*
X78595442Y-59780343D01*
X78600372Y-59776849D01*
X78627124Y-59758853D01*
X78706262Y-59705616D01*
X78711395Y-59702343D01*
X78820530Y-59636506D01*
X78825817Y-59633493D01*
X78938061Y-59573182D01*
X78943590Y-59570389D01*
X79058691Y-59515795D01*
X79064391Y-59513265D01*
X79182283Y-59464489D01*
X79188146Y-59462236D01*
X79308652Y-59419432D01*
X79314696Y-59417459D01*
X79437736Y-59380754D01*
X79443888Y-59379091D01*
X79569329Y-59348640D01*
X79575591Y-59347291D01*
X79703369Y-59323234D01*
X79709747Y-59322205D01*
X79839724Y-59304715D01*
X79846181Y-59304018D01*
X79978367Y-59293254D01*
X79984839Y-59292899D01*
X80127328Y-59288818D01*
X80130551Y-59288768D01*
X89001187Y-59267908D01*
X89001187Y-59267909D01*
X89001211Y-59267908D01*
X89001481Y-59267907D01*
X137823182Y-59182218D01*
X137890256Y-59201785D01*
G37*
%TD.AperFunction*%
%TA.AperFunction,Conductor*%
G36*
X138944192Y-106395068D02*
G01*
X138951464Y-106400116D01*
X139043052Y-106468678D01*
X139043055Y-106468680D01*
X139177901Y-106518974D01*
X139177900Y-106518974D01*
X139184828Y-106519718D01*
X139237511Y-106525383D01*
X140847074Y-106525382D01*
X140864327Y-106530448D01*
X140882311Y-106530494D01*
X140897156Y-106540087D01*
X140914113Y-106545067D01*
X140925888Y-106558656D01*
X140940993Y-106568418D01*
X140948293Y-106584513D01*
X140959868Y-106597870D01*
X140962427Y-106615670D01*
X140969856Y-106632047D01*
X140967296Y-106649533D01*
X140969812Y-106667029D01*
X140962341Y-106683387D01*
X140959737Y-106701180D01*
X140943687Y-106724233D01*
X140940787Y-106730585D01*
X140940580Y-106730823D01*
X140937773Y-106734045D01*
X140871048Y-106800771D01*
X140847084Y-106836637D01*
X140842686Y-106843218D01*
X140842686Y-106843219D01*
X140788914Y-106923694D01*
X140732343Y-107060269D01*
X140732340Y-107060279D01*
X140703500Y-107205266D01*
X140703500Y-115875445D01*
X140683815Y-115942484D01*
X140631011Y-115988239D01*
X140561853Y-115998183D01*
X140514403Y-115980984D01*
X140385699Y-115901598D01*
X140385694Y-115901596D01*
X140224709Y-115848251D01*
X140125346Y-115838100D01*
X139528662Y-115838100D01*
X139528644Y-115838101D01*
X139429292Y-115848250D01*
X139429289Y-115848251D01*
X139268305Y-115901596D01*
X139268294Y-115901601D01*
X139123959Y-115990629D01*
X139123955Y-115990632D01*
X139004032Y-116110555D01*
X139004029Y-116110559D01*
X138915001Y-116254894D01*
X138914997Y-116254903D01*
X138898260Y-116305414D01*
X138897559Y-116307528D01*
X138857786Y-116364973D01*
X138793269Y-116391795D01*
X138724494Y-116379480D01*
X138673294Y-116331936D01*
X138661468Y-116305414D01*
X138643951Y-116249203D01*
X138556005Y-116103722D01*
X138435810Y-115983527D01*
X138290328Y-115895580D01*
X138290329Y-115895580D01*
X138128038Y-115845009D01*
X138128039Y-115845009D01*
X138057505Y-115838600D01*
X137975933Y-115838600D01*
X137975933Y-116614600D01*
X137956248Y-116681639D01*
X137903444Y-116727394D01*
X137851933Y-116738600D01*
X137599933Y-116738600D01*
X137532894Y-116718915D01*
X137487139Y-116666111D01*
X137475933Y-116614600D01*
X137475933Y-115838600D01*
X137475932Y-115838599D01*
X137394350Y-115838600D01*
X137323830Y-115845008D01*
X137323825Y-115845009D01*
X137161536Y-115895581D01*
X137016055Y-115983527D01*
X136895860Y-116103722D01*
X136807914Y-116249203D01*
X136794047Y-116293704D01*
X136755309Y-116351851D01*
X136691284Y-116379825D01*
X136622299Y-116368743D01*
X136570256Y-116322124D01*
X136557277Y-116293707D01*
X136543345Y-116248994D01*
X136455339Y-116103415D01*
X136455337Y-116103413D01*
X136455336Y-116103411D01*
X136335055Y-115983130D01*
X136189473Y-115895122D01*
X136060945Y-115855072D01*
X136027063Y-115844514D01*
X136027061Y-115844513D01*
X136027059Y-115844513D01*
X135977645Y-115840023D01*
X135956483Y-115838100D01*
X135293251Y-115838100D01*
X135274012Y-115839848D01*
X135222674Y-115844513D01*
X135060260Y-115895122D01*
X134914678Y-115983130D01*
X134794397Y-116103411D01*
X134728916Y-116211730D01*
X134677388Y-116258918D01*
X134608528Y-116270756D01*
X134544200Y-116243487D01*
X134504826Y-116185768D01*
X134498799Y-116147580D01*
X134498799Y-116093628D01*
X134498798Y-116093612D01*
X134488305Y-115990902D01*
X134433158Y-115824480D01*
X134433156Y-115824475D01*
X134341115Y-115675254D01*
X134217145Y-115551284D01*
X134067924Y-115459243D01*
X134067919Y-115459241D01*
X133901497Y-115404094D01*
X133901490Y-115404093D01*
X133798786Y-115393600D01*
X133523800Y-115393600D01*
X133523800Y-116269600D01*
X133504115Y-116336639D01*
X133451311Y-116382394D01*
X133399800Y-116393600D01*
X133273800Y-116393600D01*
X133273800Y-116519600D01*
X133254115Y-116586639D01*
X133201311Y-116632394D01*
X133149800Y-116643600D01*
X132048801Y-116643600D01*
X132048801Y-116693586D01*
X132059294Y-116796297D01*
X132114441Y-116962719D01*
X132114443Y-116962724D01*
X132206484Y-117111945D01*
X132330455Y-117235916D01*
X132330459Y-117235919D01*
X132333456Y-117237768D01*
X132335079Y-117239572D01*
X132336123Y-117240398D01*
X132335981Y-117240576D01*
X132380181Y-117289716D01*
X132391402Y-117358679D01*
X132363559Y-117422761D01*
X132352644Y-117434257D01*
X132343760Y-117442489D01*
X132330144Y-117450888D01*
X132272574Y-117508457D01*
X132270855Y-117510051D01*
X132241592Y-117524613D01*
X132212928Y-117540266D01*
X132209373Y-117540648D01*
X132208303Y-117541181D01*
X132206381Y-117540969D01*
X132186570Y-117543100D01*
X130696807Y-117543100D01*
X130649355Y-117533661D01*
X130611701Y-117518064D01*
X130611689Y-117518061D01*
X130457045Y-117487300D01*
X130457042Y-117487300D01*
X130299358Y-117487300D01*
X130299355Y-117487300D01*
X130144710Y-117518061D01*
X130144698Y-117518064D01*
X129999027Y-117578402D01*
X129999014Y-117578409D01*
X129867911Y-117666010D01*
X129867907Y-117666013D01*
X129756413Y-117777507D01*
X129756410Y-117777511D01*
X129668809Y-117908614D01*
X129668802Y-117908627D01*
X129608464Y-118054298D01*
X129608461Y-118054310D01*
X129577700Y-118208953D01*
X129577700Y-118366646D01*
X129608461Y-118521289D01*
X129608464Y-118521301D01*
X129668802Y-118666972D01*
X129668809Y-118666985D01*
X129756410Y-118798088D01*
X129756413Y-118798092D01*
X129867907Y-118909586D01*
X129867911Y-118909589D01*
X129999014Y-118997190D01*
X129999027Y-118997197D01*
X130098260Y-119038300D01*
X130144703Y-119057537D01*
X130259738Y-119080419D01*
X130299353Y-119088299D01*
X130299356Y-119088300D01*
X130299358Y-119088300D01*
X130457044Y-119088300D01*
X130457045Y-119088299D01*
X130611697Y-119057537D01*
X130621347Y-119053540D01*
X130668801Y-119044100D01*
X132186570Y-119044100D01*
X132253609Y-119063785D01*
X132274251Y-119080419D01*
X132330144Y-119136312D01*
X132479466Y-119228414D01*
X132646003Y-119283599D01*
X132748791Y-119294100D01*
X133798808Y-119294099D01*
X133798816Y-119294098D01*
X133798819Y-119294098D01*
X133855102Y-119288348D01*
X133901597Y-119283599D01*
X134068134Y-119228414D01*
X134113072Y-119200696D01*
X134180461Y-119182256D01*
X134247125Y-119203178D01*
X134291895Y-119256819D01*
X134302167Y-119306235D01*
X134302167Y-119918600D01*
X134282482Y-119985639D01*
X134229678Y-120031394D01*
X134207518Y-120036214D01*
X134201133Y-120042600D01*
X134201133Y-120868600D01*
X134181448Y-120935639D01*
X134128644Y-120981394D01*
X134077133Y-120992600D01*
X133825133Y-120992600D01*
X133758094Y-120972915D01*
X133712339Y-120920111D01*
X133701133Y-120868600D01*
X133701133Y-120042600D01*
X133701132Y-120042599D01*
X133652826Y-120042600D01*
X133652808Y-120042601D01*
X133553525Y-120052744D01*
X133392651Y-120106052D01*
X133392640Y-120106057D01*
X133248404Y-120195024D01*
X133248400Y-120195027D01*
X133128560Y-120314867D01*
X133128558Y-120314870D01*
X133124555Y-120321360D01*
X133072606Y-120368082D01*
X133003643Y-120379302D01*
X132939561Y-120351456D01*
X132900708Y-120293386D01*
X132895661Y-120268860D01*
X132888106Y-120194903D01*
X132832958Y-120028480D01*
X132832956Y-120028475D01*
X132740915Y-119879254D01*
X132616945Y-119755284D01*
X132467724Y-119663243D01*
X132467719Y-119663241D01*
X132301297Y-119608094D01*
X132301290Y-119608093D01*
X132198586Y-119597600D01*
X131923600Y-119597600D01*
X131923600Y-120473600D01*
X131903915Y-120540639D01*
X131851111Y-120586394D01*
X131799600Y-120597600D01*
X131673600Y-120597600D01*
X131673600Y-120723600D01*
X131653915Y-120790639D01*
X131601111Y-120836394D01*
X131549600Y-120847600D01*
X130448601Y-120847600D01*
X130448601Y-120897586D01*
X130459094Y-121000297D01*
X130514241Y-121166719D01*
X130514243Y-121166724D01*
X130606284Y-121315945D01*
X130730255Y-121439916D01*
X130730259Y-121439919D01*
X130733256Y-121441768D01*
X130734879Y-121443572D01*
X130735923Y-121444398D01*
X130735781Y-121444576D01*
X130779981Y-121493716D01*
X130791202Y-121562679D01*
X130763359Y-121626761D01*
X130752444Y-121638257D01*
X130743560Y-121646489D01*
X130729944Y-121654888D01*
X130672374Y-121712457D01*
X130670655Y-121714051D01*
X130641392Y-121728613D01*
X130612728Y-121744266D01*
X130609173Y-121744648D01*
X130608103Y-121745181D01*
X130606181Y-121744969D01*
X130586370Y-121747100D01*
X129870229Y-121747100D01*
X129803190Y-121727415D01*
X129782548Y-121710781D01*
X128701219Y-120629451D01*
X128667734Y-120568128D01*
X128664900Y-120541770D01*
X128664900Y-120297613D01*
X130448600Y-120297613D01*
X130448600Y-120347600D01*
X131423600Y-120347600D01*
X131423600Y-119597600D01*
X131148629Y-119597600D01*
X131148612Y-119597601D01*
X131045902Y-119608094D01*
X130879480Y-119663241D01*
X130879475Y-119663243D01*
X130730254Y-119755284D01*
X130606284Y-119879254D01*
X130514243Y-120028475D01*
X130514241Y-120028480D01*
X130459094Y-120194902D01*
X130459093Y-120194909D01*
X130448600Y-120297613D01*
X128664900Y-120297613D01*
X128664900Y-116093613D01*
X132048800Y-116093613D01*
X132048800Y-116143600D01*
X133023800Y-116143600D01*
X133023800Y-115393600D01*
X132748829Y-115393600D01*
X132748812Y-115393601D01*
X132646102Y-115404094D01*
X132479680Y-115459241D01*
X132479675Y-115459243D01*
X132330454Y-115551284D01*
X132206484Y-115675254D01*
X132114443Y-115824475D01*
X132114441Y-115824480D01*
X132059294Y-115990902D01*
X132059293Y-115990909D01*
X132048800Y-116093613D01*
X128664900Y-116093613D01*
X128664900Y-115881429D01*
X128684585Y-115814390D01*
X128701219Y-115793748D01*
X138083265Y-106411702D01*
X138144588Y-106378217D01*
X138170946Y-106375383D01*
X138877153Y-106375383D01*
X138944192Y-106395068D01*
G37*
%TD.AperFunction*%
%TA.AperFunction,Conductor*%
G36*
X132940316Y-121262481D02*
G01*
X132979173Y-121320549D01*
X132984221Y-121345080D01*
X132986277Y-121365207D01*
X133039585Y-121526081D01*
X133039588Y-121526088D01*
X133059274Y-121558002D01*
X133061358Y-121565621D01*
X133066530Y-121571589D01*
X133070447Y-121598836D01*
X133077715Y-121625394D01*
X133075349Y-121632929D01*
X133076474Y-121640747D01*
X133065036Y-121665791D01*
X133056793Y-121692058D01*
X133050730Y-121697118D01*
X133047449Y-121704303D01*
X133024287Y-121719187D01*
X133003152Y-121736828D01*
X132993820Y-121738767D01*
X132988671Y-121742077D01*
X132953736Y-121747100D01*
X132760830Y-121747100D01*
X132693791Y-121727415D01*
X132673149Y-121710781D01*
X132617257Y-121654889D01*
X132617256Y-121654888D01*
X132613942Y-121652843D01*
X132612146Y-121650848D01*
X132611589Y-121650407D01*
X132611664Y-121650311D01*
X132567218Y-121600897D01*
X132555997Y-121531934D01*
X132583840Y-121467852D01*
X132613948Y-121441765D01*
X132616942Y-121439918D01*
X132740917Y-121315943D01*
X132755324Y-121292586D01*
X132807271Y-121245861D01*
X132876233Y-121234638D01*
X132940316Y-121262481D01*
G37*
%TD.AperFunction*%
%TA.AperFunction,Conductor*%
G36*
X137495383Y-121262481D02*
G01*
X137534240Y-121320549D01*
X137539288Y-121345080D01*
X137541344Y-121365207D01*
X137594652Y-121526081D01*
X137594655Y-121526088D01*
X137614341Y-121558002D01*
X137616425Y-121565621D01*
X137621597Y-121571589D01*
X137625514Y-121598836D01*
X137632782Y-121625394D01*
X137630416Y-121632929D01*
X137631541Y-121640747D01*
X137620103Y-121665791D01*
X137611860Y-121692058D01*
X137605797Y-121697118D01*
X137602516Y-121704303D01*
X137579354Y-121719187D01*
X137558219Y-121736828D01*
X137548887Y-121738767D01*
X137543738Y-121742077D01*
X137508803Y-121747100D01*
X137315897Y-121747100D01*
X137248858Y-121727415D01*
X137228216Y-121710781D01*
X137172324Y-121654889D01*
X137172323Y-121654888D01*
X137169009Y-121652843D01*
X137167213Y-121650848D01*
X137166656Y-121650407D01*
X137166731Y-121650311D01*
X137122285Y-121600897D01*
X137111064Y-121531934D01*
X137138907Y-121467852D01*
X137169015Y-121441765D01*
X137172009Y-121439918D01*
X137295984Y-121315943D01*
X137310391Y-121292586D01*
X137362338Y-121245861D01*
X137431300Y-121234638D01*
X137495383Y-121262481D01*
G37*
%TD.AperFunction*%
%TD*%
M02*
