M48
METRIC
T1C0.300
T2C0.889
T3C1.000
%
G90
G05
T1
X125.324Y-118.288
X130.378Y-118.288
X131.699Y-120.498
X133.883Y-120.117
X137.566Y-120.117
X140.386Y-120.943
T2
X81.845Y-85.928
X81.845Y-101.168
X84.385Y-85.928
X84.385Y-101.168
X86.925Y-85.928
X86.925Y-101.168
X89.465Y-85.928
X89.465Y-101.168
X92.005Y-85.928
X92.005Y-101.168
X94.545Y-85.928
X94.545Y-101.168
X97.085Y-85.928
X97.085Y-101.168
T3
X104.14Y-71.73
X106.68Y-71.73
X106.883Y-102.997
X109.22Y-71.73
X109.423Y-102.997
X111.76Y-71.73
M30
