%TF.GenerationSoftware,KiCad,Pcbnew,10.0.3*%
%TF.CreationDate,2026-05-26T19:34:39+02:00*%
%TF.ProjectId,spell_tome_bottom,7370656c-6c5f-4746-9f6d-655f626f7474,rev?*%
%TF.SameCoordinates,Original*%
%TF.FileFunction,Soldermask,Top*%
%TF.FilePolarity,Negative*%
%FSLAX46Y46*%
G04 Gerber Fmt 4.6, Leading zero omitted, Abs format (unit mm)*
G04 Created by KiCad (PCBNEW 10.0.3) date 2026-05-26 19:34:39*
%MOMM*%
%LPD*%
G01*
G04 APERTURE LIST*
G04 Aperture macros list*
%AMRoundRect*
0 Rectangle with rounded corners*
0 $1 Rounding radius*
0 $2 $3 $4 $5 $6 $7 $8 $9 X,Y pos of 4 corners*
0 Add a 4 corners polygon primitive as box body*
4,1,4,$2,$3,$4,$5,$6,$7,$8,$9,$2,$3,0*
0 Add four circle primitives for the rounded corners*
1,1,$1+$1,$2,$3*
1,1,$1+$1,$4,$5*
1,1,$1+$1,$6,$7*
1,1,$1+$1,$8,$9*
0 Add four rect primitives between the rounded corners*
20,1,$1+$1,$2,$3,$4,$5,0*
20,1,$1+$1,$4,$5,$6,$7,0*
20,1,$1+$1,$6,$7,$8,$9,0*
20,1,$1+$1,$8,$9,$2,$3,0*%
G04 Aperture macros list end*
%ADD10R,1.300000X0.700000*%
%ADD11R,1.700000X1.700000*%
%ADD12C,1.700000*%
%ADD13RoundRect,0.200000X-0.200000X-0.275000X0.200000X-0.275000X0.200000X0.275000X-0.200000X0.275000X0*%
%ADD14RoundRect,0.225000X-0.225000X-0.250000X0.225000X-0.250000X0.225000X0.250000X-0.225000X0.250000X0*%
%ADD15RoundRect,0.200000X0.275000X-0.200000X0.275000X0.200000X-0.275000X0.200000X-0.275000X-0.200000X0*%
%ADD16RoundRect,0.225000X0.250000X-0.225000X0.250000X0.225000X-0.250000X0.225000X-0.250000X-0.225000X0*%
%ADD17R,0.600000X1.100000*%
%ADD18RoundRect,0.250000X0.475000X-0.250000X0.475000X0.250000X-0.475000X0.250000X-0.475000X-0.250000X0*%
%ADD19R,2.000000X0.800000*%
%ADD20R,0.600000X0.400000*%
%ADD21R,6.000000X2.100000*%
%ADD22C,1.524000*%
G04 APERTURE END LIST*
D10*
%TO.C,SW5*%
X115138200Y-135915400D03*
X118838200Y-135915400D03*
X115138200Y-138065400D03*
X118838200Y-138065400D03*
%TD*%
D11*
%TO.C,J2*%
X106883200Y-102997000D03*
D12*
X109423200Y-102997000D03*
%TD*%
D13*
%TO.C,R2(green)1*%
X102642400Y-112458500D03*
X104292400Y-112458500D03*
%TD*%
D14*
%TO.C,C7(C_OLED)1*%
X103060200Y-68072000D03*
X104610200Y-68072000D03*
%TD*%
D10*
%TO.C,SW4*%
X99724600Y-135958000D03*
X103424600Y-135958000D03*
X99724600Y-138108000D03*
X103424600Y-138108000D03*
%TD*%
D15*
%TO.C,R4(R_top)1*%
X135624867Y-118388600D03*
X135624867Y-116738600D03*
%TD*%
D10*
%TO.C,SW3*%
X119989600Y-126009400D03*
X123689600Y-126009400D03*
X119989600Y-128159400D03*
X123689600Y-128159400D03*
%TD*%
D16*
%TO.C,C2(CIN_HF)1*%
X133951133Y-122542600D03*
X133951133Y-120992600D03*
%TD*%
D17*
%TO.C,U2*%
X135859300Y-127638800D03*
X136809300Y-127638800D03*
X137759300Y-127638800D03*
X137759300Y-124938800D03*
X136809300Y-124938800D03*
X135859300Y-124938800D03*
%TD*%
D10*
%TO.C,SW1*%
X94217000Y-126136400D03*
X97917000Y-126136400D03*
X94217000Y-128286400D03*
X97917000Y-128286400D03*
%TD*%
D18*
%TO.C,C3(COUT)1*%
X136228667Y-122497600D03*
X136228667Y-120597600D03*
%TD*%
D15*
%TO.C,R5(R_bottom)1*%
X137725933Y-118388600D03*
X137725933Y-116738600D03*
%TD*%
D16*
%TO.C,C6(Cff)1*%
X139827000Y-118338600D03*
X139827000Y-116788600D03*
%TD*%
D13*
%TO.C,R3(blue)1*%
X102642400Y-114477800D03*
X104292400Y-114477800D03*
%TD*%
%TO.C,R1(red)1*%
X102642400Y-110439200D03*
X104292400Y-110439200D03*
%TD*%
D18*
%TO.C,C1(CIN)1*%
X131673600Y-122497600D03*
X131673600Y-120597600D03*
%TD*%
D14*
%TO.C,C5(C_RGB)1*%
X113474200Y-110439200D03*
X115024200Y-110439200D03*
%TD*%
D19*
%TO.C,SW2*%
X140285384Y-105624883D03*
X140285384Y-102624883D03*
X140285384Y-101124883D03*
%TD*%
D20*
%TO.C,D1*%
X108291400Y-112122000D03*
X109691400Y-112122000D03*
X109691400Y-112922000D03*
X108291400Y-112922000D03*
%TD*%
D21*
%TO.C,L1*%
X135559800Y-134786000D03*
X135559800Y-130136000D03*
%TD*%
D15*
%TO.C,R6*%
X140385800Y-122592600D03*
X140385800Y-120942600D03*
%TD*%
D18*
%TO.C,C3(COUT)2*%
X133273800Y-118293600D03*
X133273800Y-116393600D03*
%TD*%
D16*
%TO.C,C4(COUT_HF)1*%
X138506200Y-122542600D03*
X138506200Y-120992600D03*
%TD*%
D11*
%TO.C,J1*%
X104140000Y-71729600D03*
D12*
X106680000Y-71729600D03*
X109220000Y-71729600D03*
X111760000Y-71729600D03*
%TD*%
D22*
%TO.C,U1*%
X81845300Y-85928200D03*
X84385300Y-85928200D03*
X86925300Y-85928200D03*
X89465300Y-85928200D03*
X92005300Y-85928200D03*
X94545300Y-85928200D03*
X97085300Y-85928200D03*
X97085300Y-101168200D03*
X94545300Y-101168200D03*
X92005300Y-101168200D03*
X89465300Y-101168200D03*
X86925300Y-101168200D03*
X84385300Y-101168200D03*
X81845300Y-101168200D03*
%TD*%
M02*
