<?xml version="1.0" encoding="UTF-8" standalone="no"?>
<svg
   version="1.1"
   width="386.11523mm"
   height="565.94373mm"
   viewBox="0 0 386.11524 565.94372"
   id="svg8"
   xml:space="preserve"
   sodipodi:docname="tome_decor.svg"
   inkscape:version="1.4.4 (dcaf3e7d9e, 2026-05-05)"
   xmlns:inkscape="http://www.inkscape.org/namespaces/inkscape"
   xmlns:sodipodi="http://sodipodi.sourceforge.net/DTD/sodipodi-0.dtd"
   xmlns="http://www.w3.org/2000/svg"
   xmlns:svg="http://www.w3.org/2000/svg"
   xmlns:rdf="http://www.w3.org/1999/02/22-rdf-syntax-ns#"
   xmlns:cc="http://creativecommons.org/ns#"
   xmlns:dc="http://purl.org/dc/elements/1.1/"><sodipodi:namedview
     id="namedview1"
     pagecolor="#ffffff"
     bordercolor="#666666"
     borderopacity="1.0"
     inkscape:showpageshadow="2"
     inkscape:pageopacity="0.0"
     inkscape:pagecheckerboard="0"
     inkscape:deskcolor="#d1d1d1"
     inkscape:document-units="mm"
     inkscape:zoom="0.57012341"
     inkscape:cx="729.66659"
     inkscape:cy="1248.8524"
     inkscape:window-width="956"
     inkscape:window-height="1076"
     inkscape:window-x="0"
     inkscape:window-y="0"
     inkscape:window-maximized="1"
     inkscape:current-layer="layer13" /><defs
     id="defs8" /><title
     id="title1">SVG Image created as tome_pcb-Edge_Cuts.svg date 2025/12/01 14:33:59 </title><desc
     id="desc1">Image generated by PCBNEW </desc><g
     id="layer1"
     transform="translate(38.276373,192.88123)"><path
       style="fill:#000000;stroke-width:0.0634396"
       d="m 109.0743,66.390612 c -0.0706,-0.0537 -0.18034,-0.133459 -0.24397,-0.177237 l -0.11568,-0.0796 0.11008,-0.08175 c 0.0606,-0.04496 0.13971,-0.124408 0.17594,-0.176549 0.0565,-0.08135 0.066,-0.118251 0.0666,-0.260056 6.6e-4,-0.144477 -0.0113,-0.191098 -0.0948,-0.370813 -0.0862,-0.185511 -0.0955,-0.223606 -0.0952,-0.390564 4.2e-4,-0.225733 0.0511,-0.349588 0.23201,-0.566886 l 0.12509,-0.150285 0.0837,0.08108 c 0.19514,0.18911 0.32072,0.509911 0.2843,0.726248 -0.009,0.05217 -0.0553,0.1966 -0.1032,0.320963 -0.14168,0.36726 -0.1103,0.552565 0.13033,0.769594 l 0.11406,0.102872 -0.0818,0.05711 c -0.045,0.03141 -0.12567,0.09003 -0.17935,0.130256 -0.13254,0.09935 -0.2339,0.163249 -0.25898,0.163249 -0.0114,0 -0.0786,-0.04394 -0.14911,-0.09764 z m -3.51412,-0.178208 c -0.0732,-0.01716 -0.14417,-0.05112 -0.17959,-0.08585 l -0.0586,-0.05746 0.0856,-0.06279 c 0.0471,-0.03453 0.15058,-0.1105 0.23002,-0.168819 0.12819,-0.0941 0.54308,-0.501123 0.54308,-0.532776 0,-0.02009 -0.44905,0.1903 -0.80287,0.376175 -0.69152,0.363278 -1.12127,0.502753 -1.56064,0.50651 -0.51218,0.0044 -0.885,-0.15901 -1.07199,-0.46981 -0.0723,-0.120112 -0.0822,-0.155655 -0.0819,-0.294505 3.3e-4,-0.207122 0.0567,-0.345714 0.19248,-0.473123 0.14743,-0.138331 0.31168,-0.196787 0.51438,-0.183061 0.18843,0.01276 0.30884,0.07194 0.37755,0.18556 0.10193,0.16855 0.0497,0.362823 -0.12423,0.461677 -0.10582,0.06016 -0.21485,0.05862 -0.35681,-0.005 -0.063,-0.02826 -0.11842,-0.05139 -0.12312,-0.05139 -0.0265,0 -0.002,0.115632 0.0391,0.183237 0.10388,0.171798 0.27082,0.238084 0.59804,0.237469 0.35182,-6.67e-4 0.66571,-0.0933 1.26703,-0.373931 0.5132,-0.239515 0.63546,-0.291963 0.91765,-0.393673 0.15196,-0.05476 0.39141,-0.125924 0.53213,-0.158127 0.23851,-0.05459 0.28718,-0.05859 0.71879,-0.05913 0.46113,-5.75e-4 0.46386,-3.14e-4 0.69321,0.06694 0.62109,0.182112 0.94087,0.438643 0.9383,0.752717 -0.003,0.290763 -0.27367,0.487989 -0.66979,0.486932 -0.24742,-6.53e-4 -0.40105,-0.06654 -0.48714,-0.208885 -0.18568,-0.307068 0.19855,-0.559758 0.60716,-0.39929 0.1433,0.05628 0.16619,0.055 0.12683,-0.007 -0.062,-0.09772 -0.25293,-0.209449 -0.44577,-0.260841 -0.46436,-0.123753 -0.97073,-0.02647 -1.13816,0.218667 -0.0734,0.107576 -0.0662,0.186763 0.0239,0.262849 0.085,0.07177 0.16937,0.08074 0.30607,0.03256 0.10278,-0.03623 0.12177,-0.02965 0.14234,0.04936 0.0167,0.06433 -0.0341,0.18946 -0.104,0.255855 -0.10856,0.103146 -0.38245,0.146792 -0.55017,0.08767 -0.0909,-0.03204 -0.25907,-0.169116 -0.25907,-0.211174 0,-0.04861 -0.0363,-0.02983 -0.0826,0.04279 -0.12872,0.201655 -0.47518,0.315963 -0.75715,0.249808 z m 7.08587,0.0078 c -0.18904,-0.03155 -0.3565,-0.129276 -0.44175,-0.257788 -0.0162,-0.02447 -0.0392,-0.01503 -0.11854,0.04862 -0.13957,0.111997 -0.24428,0.148352 -0.42734,0.148352 -0.30045,0 -0.4827,-0.141231 -0.4827,-0.374061 v -0.09812 l 0.0792,0.04073 c 0.0776,0.03992 0.24114,0.05421 0.32175,0.02812 0.0558,-0.01808 0.11074,-0.11673 0.11074,-0.199008 0,-0.09744 -0.0881,-0.197896 -0.24164,-0.27554 -0.1676,-0.08475 -0.34965,-0.115794 -0.60998,-0.104018 -0.25995,0.01176 -0.45944,0.06116 -0.59239,0.146715 -0.0943,0.0607 -0.2245,0.194991 -0.20498,0.211463 0.005,0.0038 0.0757,-0.01614 0.15807,-0.04438 0.16859,-0.05779 0.28614,-0.06458 0.40132,-0.02317 0.19441,0.06988 0.26329,0.240211 0.16582,0.410068 -0.08,0.139474 -0.2062,0.203015 -0.42683,0.21496 -0.3057,0.01655 -0.53261,-0.08031 -0.63879,-0.272676 -0.1698,-0.307623 0.0398,-0.625012 0.55356,-0.83846 0.3678,-0.152784 0.57031,-0.189755 1.0338,-0.188718 0.66193,0.0014 0.89606,0.06804 2.10766,0.599208 0.65602,0.287597 0.99129,0.382089 1.35232,0.381129 0.10342,-2.74e-4 0.21371,-0.01464 0.2802,-0.0365 0.19424,-0.06385 0.34113,-0.213669 0.34113,-0.347927 0,-0.06486 -0.008,-0.06473 -0.11143,0.0018 -0.23016,0.148098 -0.52189,0.0413 -0.56203,-0.20574 -0.0201,-0.123492 0.0718,-0.288008 0.20216,-0.36209 0.0773,-0.04394 0.11738,-0.05126 0.27626,-0.05049 0.15723,7.71e-4 0.20326,0.0095 0.29925,0.05699 0.43596,0.215545 0.46605,0.778295 0.0592,1.10738 -0.25867,0.209229 -0.56598,0.28058 -1.001,0.232409 -0.39291,-0.04351 -0.82918,-0.198764 -1.51375,-0.538689 -0.57227,-0.284168 -0.78724,-0.378361 -0.75118,-0.329137 0.0916,0.125056 0.61401,0.563322 0.7806,0.654888 0.0843,0.04636 0.15333,0.09071 0.15333,0.09857 0,0.03883 -0.14872,0.124659 -0.26636,0.15373 -0.1448,0.03578 -0.1401,0.0356 -0.28568,0.0113 z"
       id="path10" /></g><g
     inkscape:groupmode="layer"
     id="layer5"
     inkscape:label="Layer 1"><path
       style="fill:#000000;stroke-width:0.0634396"
       d="m 163.91392,261.46922 c -0.0537,-0.0706 -0.13346,-0.18034 -0.17724,-0.24397 l -0.0796,-0.11568 -0.0817,0.11008 c -0.045,0.0606 -0.1244,0.13971 -0.17655,0.17594 -0.0814,0.0565 -0.11825,0.066 -0.26005,0.0666 -0.14448,6.6e-4 -0.1911,-0.0113 -0.37081,-0.0948 -0.18552,-0.0862 -0.22361,-0.0955 -0.39057,-0.0952 -0.22573,4.2e-4 -0.34959,0.0511 -0.56688,0.23201 l -0.15029,0.12509 0.0811,0.0837 c 0.18911,0.19514 0.50991,0.32072 0.72625,0.2843 0.0522,-0.009 0.1966,-0.0553 0.32096,-0.1032 0.36726,-0.14168 0.55257,-0.1103 0.7696,0.13033 l 0.10287,0.11406 0.0571,-0.0818 c 0.0314,-0.045 0.09,-0.12567 0.13025,-0.17935 0.0994,-0.13254 0.16325,-0.2339 0.16325,-0.25898 0,-0.0114 -0.0439,-0.0786 -0.0976,-0.14911 z m -0.17821,-3.51412 c -0.0172,-0.0732 -0.0511,-0.14417 -0.0858,-0.17959 l -0.0575,-0.0586 -0.0628,0.0856 c -0.0345,0.0471 -0.1105,0.15058 -0.16882,0.23002 -0.0941,0.12819 -0.50112,0.54308 -0.53277,0.54308 -0.0201,0 0.1903,-0.44905 0.37617,-0.80287 0.36328,-0.69152 0.50276,-1.12127 0.50651,-1.56064 0.004,-0.51218 -0.15901,-0.885 -0.46981,-1.07199 -0.12011,-0.0723 -0.15565,-0.0822 -0.2945,-0.0819 -0.20712,3.3e-4 -0.34572,0.0567 -0.47313,0.19248 -0.13833,0.14743 -0.19678,0.31168 -0.18306,0.51438 0.0128,0.18843 0.0719,0.30884 0.18556,0.37755 0.16855,0.10193 0.36283,0.0497 0.46168,-0.12423 0.0602,-0.10582 0.0586,-0.21485 -0.005,-0.35681 -0.0283,-0.063 -0.0514,-0.11842 -0.0514,-0.12312 0,-0.0265 0.11563,-0.002 0.18324,0.0391 0.1718,0.10388 0.23808,0.27082 0.23747,0.59804 -6.7e-4,0.35182 -0.0933,0.66571 -0.37393,1.26703 -0.23952,0.5132 -0.29197,0.63546 -0.39368,0.91765 -0.0548,0.15196 -0.12592,0.39141 -0.15812,0.53213 -0.0546,0.23851 -0.0586,0.28718 -0.0591,0.71879 -5.8e-4,0.46113 -3.2e-4,0.46386 0.0669,0.69321 0.18211,0.62109 0.43864,0.94087 0.75271,0.9383 0.29077,-0.003 0.48799,-0.27367 0.48693,-0.66979 -6.5e-4,-0.24742 -0.0665,-0.40105 -0.20888,-0.48714 -0.30707,-0.18568 -0.55976,0.19855 -0.39929,0.60716 0.0563,0.1433 0.055,0.16619 -0.007,0.12683 -0.0977,-0.062 -0.20945,-0.25293 -0.26084,-0.44577 -0.12375,-0.46436 -0.0265,-0.97073 0.21867,-1.13816 0.10757,-0.0734 0.18676,-0.0662 0.26284,0.0239 0.0718,0.085 0.0807,0.16937 0.0326,0.30607 -0.0362,0.10278 -0.0297,0.12177 0.0494,0.14234 0.0643,0.0167 0.18946,-0.0341 0.25586,-0.104 0.10315,-0.10856 0.14679,-0.38245 0.0877,-0.55017 -0.032,-0.0909 -0.16912,-0.25907 -0.21117,-0.25907 -0.0486,0 -0.0298,-0.0363 0.0428,-0.0826 0.20165,-0.12872 0.31596,-0.47518 0.2498,-0.75715 z m 0.008,7.08587 c -0.0316,-0.18904 -0.12927,-0.3565 -0.25779,-0.44175 -0.0245,-0.0162 -0.015,-0.0392 0.0486,-0.11854 0.112,-0.13957 0.14836,-0.24428 0.14836,-0.42734 0,-0.30045 -0.14123,-0.4827 -0.37406,-0.4827 h -0.0981 l 0.0407,0.0792 c 0.0399,0.0776 0.0542,0.24114 0.0281,0.32175 -0.0181,0.0558 -0.11673,0.11074 -0.19901,0.11074 -0.0974,0 -0.1979,-0.0881 -0.27554,-0.24164 -0.0848,-0.1676 -0.1158,-0.34965 -0.10402,-0.60998 0.0118,-0.25995 0.0612,-0.45944 0.14671,-0.59239 0.0607,-0.0943 0.195,-0.2245 0.21147,-0.20498 0.004,0.005 -0.0161,0.0757 -0.0444,0.15807 -0.0578,0.16859 -0.0646,0.28614 -0.0232,0.40132 0.0699,0.19441 0.24021,0.26329 0.41007,0.16582 0.13947,-0.08 0.20301,-0.2062 0.21496,-0.42683 0.0165,-0.3057 -0.0803,-0.53261 -0.27268,-0.63879 -0.30762,-0.1698 -0.62501,0.0398 -0.83846,0.55356 -0.15278,0.3678 -0.18976,0.57031 -0.18872,1.0338 0.001,0.66193 0.068,0.89606 0.59921,2.10766 0.2876,0.65602 0.38209,0.99129 0.38113,1.35232 -2.8e-4,0.10342 -0.0146,0.21371 -0.0365,0.2802 -0.0639,0.19424 -0.21367,0.34113 -0.34793,0.34113 -0.0649,0 -0.0647,-0.008 0.002,-0.11143 0.1481,-0.23016 0.0413,-0.52189 -0.20574,-0.56203 -0.12349,-0.0201 -0.28801,0.0718 -0.36209,0.20216 -0.0439,0.0773 -0.0513,0.11738 -0.0505,0.27626 7.7e-4,0.15723 0.009,0.20326 0.057,0.29925 0.21555,0.43596 0.7783,0.46605 1.10738,0.0592 0.20923,-0.25867 0.28058,-0.56598 0.23241,-1.001 -0.0435,-0.39291 -0.19876,-0.82918 -0.53869,-1.51375 -0.28417,-0.57227 -0.37836,-0.78724 -0.32914,-0.75118 0.12506,0.0916 0.56333,0.61401 0.65489,0.7806 0.0464,0.0843 0.0907,0.15333 0.0986,0.15333 0.0388,0 0.12466,-0.14872 0.15373,-0.26636 0.0358,-0.1448 0.0356,-0.1401 0.0113,-0.28568 z"
       id="path10-2-1" /></g><g
     inkscape:groupmode="layer"
     id="layer6"
     inkscape:label="decor3"><path
       style="fill:#000000;stroke-width:0.0634396"
       d="m 147.69824,265.21009 c -0.0706,0.0537 -0.18034,0.13346 -0.24397,0.17724 l -0.11568,0.0796 0.11008,0.0817 c 0.0606,0.045 0.13971,0.1244 0.17594,0.17655 0.0565,0.0814 0.066,0.11825 0.0666,0.26005 6.6e-4,0.14448 -0.0113,0.1911 -0.0948,0.37081 -0.0862,0.18552 -0.0955,0.22361 -0.0952,0.39057 4.2e-4,0.22573 0.0511,0.34959 0.23201,0.56688 l 0.12509,0.15029 0.0837,-0.0811 c 0.19514,-0.18911 0.32072,-0.50991 0.2843,-0.72625 -0.009,-0.0522 -0.0553,-0.1966 -0.1032,-0.32096 -0.14168,-0.36726 -0.1103,-0.55257 0.13033,-0.7696 l 0.11406,-0.10287 -0.0818,-0.0571 c -0.045,-0.0314 -0.12567,-0.09 -0.17935,-0.13025 -0.13254,-0.0994 -0.2339,-0.16325 -0.25898,-0.16325 -0.0114,0 -0.0786,0.0439 -0.14911,0.0976 z m -3.51412,0.17821 c -0.0732,0.0172 -0.14417,0.0511 -0.17959,0.0858 l -0.0586,0.0575 0.0856,0.0628 c 0.0471,0.0345 0.15058,0.1105 0.23002,0.16882 0.12819,0.0941 0.54308,0.50112 0.54308,0.53277 0,0.0201 -0.44905,-0.1903 -0.80287,-0.37617 -0.69152,-0.36328 -1.12127,-0.50276 -1.56064,-0.50651 -0.51218,-0.004 -0.885,0.15901 -1.07199,0.46981 -0.0723,0.12011 -0.0822,0.15565 -0.0819,0.2945 3.3e-4,0.20712 0.0567,0.34572 0.19248,0.47313 0.14743,0.13833 0.31168,0.19678 0.51438,0.18306 0.18843,-0.0128 0.30884,-0.0719 0.37755,-0.18556 0.10193,-0.16855 0.0497,-0.36283 -0.12423,-0.46168 -0.10582,-0.0602 -0.21485,-0.0586 -0.35681,0.005 -0.063,0.0283 -0.11842,0.0514 -0.12312,0.0514 -0.0265,0 -0.002,-0.11563 0.0391,-0.18324 0.10388,-0.1718 0.27082,-0.23808 0.59804,-0.23747 0.35182,6.7e-4 0.66571,0.0933 1.26703,0.37393 0.5132,0.23952 0.63546,0.29197 0.91765,0.39368 0.15196,0.0548 0.39141,0.12592 0.53213,0.15812 0.23851,0.0546 0.28718,0.0586 0.71879,0.0591 0.46113,5.8e-4 0.46386,3.2e-4 0.69321,-0.0669 0.62109,-0.18211 0.94087,-0.43864 0.9383,-0.75271 -0.003,-0.29077 -0.27367,-0.48799 -0.66979,-0.48693 -0.24742,6.5e-4 -0.40105,0.0665 -0.48714,0.20888 -0.18568,0.30707 0.19855,0.55976 0.60716,0.39929 0.1433,-0.0563 0.16619,-0.055 0.12683,0.007 -0.062,0.0977 -0.25293,0.20945 -0.44577,0.26084 -0.46436,0.12375 -0.97073,0.0265 -1.13816,-0.21867 -0.0734,-0.10757 -0.0662,-0.18676 0.0239,-0.26284 0.085,-0.0718 0.16937,-0.0807 0.30607,-0.0326 0.10278,0.0362 0.12177,0.0297 0.14234,-0.0494 0.0167,-0.0643 -0.0341,-0.18946 -0.104,-0.25586 -0.10856,-0.10315 -0.38245,-0.14679 -0.55017,-0.0877 -0.0909,0.032 -0.25907,0.16912 -0.25907,0.21117 0,0.0486 -0.0363,0.0298 -0.0826,-0.0428 -0.12872,-0.20165 -0.47518,-0.31596 -0.75715,-0.2498 z m 7.08587,-0.008 c -0.18904,0.0316 -0.3565,0.12927 -0.44175,0.25779 -0.0162,0.0245 -0.0392,0.015 -0.11854,-0.0486 -0.13957,-0.112 -0.24428,-0.14836 -0.42734,-0.14836 -0.30045,0 -0.4827,0.14123 -0.4827,0.37406 v 0.0981 l 0.0792,-0.0407 c 0.0776,-0.0399 0.24114,-0.0542 0.32175,-0.0281 0.0558,0.0181 0.11074,0.11673 0.11074,0.19901 0,0.0974 -0.0881,0.1979 -0.24164,0.27554 -0.1676,0.0848 -0.34965,0.1158 -0.60998,0.10402 -0.25995,-0.0118 -0.45944,-0.0612 -0.59239,-0.14671 -0.0943,-0.0607 -0.2245,-0.195 -0.20498,-0.21147 0.005,-0.004 0.0757,0.0161 0.15807,0.0444 0.16859,0.0578 0.28614,0.0646 0.40132,0.0232 0.19441,-0.0699 0.26329,-0.24021 0.16582,-0.41007 -0.08,-0.13947 -0.2062,-0.20301 -0.42683,-0.21496 -0.3057,-0.0165 -0.53261,0.0803 -0.63879,0.27268 -0.1698,0.30762 0.0398,0.62501 0.55356,0.83846 0.3678,0.15278 0.57031,0.18976 1.0338,0.18872 0.66193,-10e-4 0.89606,-0.068 2.10766,-0.59921 0.65602,-0.2876 0.99129,-0.38209 1.35232,-0.38113 0.10342,2.8e-4 0.21371,0.0146 0.2802,0.0365 0.19424,0.0639 0.34113,0.21367 0.34113,0.34793 0,0.0649 -0.008,0.0647 -0.11143,-0.002 -0.23016,-0.1481 -0.52189,-0.0413 -0.56203,0.20574 -0.0201,0.12349 0.0718,0.28801 0.20216,0.36209 0.0773,0.0439 0.11738,0.0513 0.27626,0.0505 0.15723,-7.7e-4 0.20326,-0.009 0.29925,-0.057 0.43596,-0.21555 0.46605,-0.7783 0.0592,-1.10738 -0.25867,-0.20923 -0.56598,-0.28058 -1.001,-0.23241 -0.39291,0.0435 -0.82918,0.19876 -1.51375,0.53869 -0.57227,0.28417 -0.78724,0.37836 -0.75118,0.32914 0.0916,-0.12506 0.61401,-0.56333 0.7806,-0.65489 0.0843,-0.0464 0.15333,-0.0907 0.15333,-0.0986 0,-0.0388 -0.14872,-0.12466 -0.26636,-0.15373 -0.1448,-0.0358 -0.1401,-0.0356 -0.28568,-0.0113 z"
       id="path10-2" /></g><g
     inkscape:groupmode="layer"
     id="layer7"
     inkscape:label="diamond"><path
       style="fill:#000000;stroke-width:0.111893"
       d="m 146.82635,285.80085 c -0.28716,-0.28449 -0.66143,-0.80727 -0.75583,-1.05577 -0.063,-0.16583 -0.0845,-0.29587 -0.085,-0.5158 -8.7e-4,-0.3478 0.083,-0.59759 0.29985,-0.89257 0.0773,-0.10523 0.13383,-0.19794 0.12554,-0.20601 -0.009,-0.008 -0.0848,-0.0533 -0.17005,-0.10058 -0.21039,-0.11661 -0.50921,-0.3634 -0.64911,-0.53607 -0.28637,-0.35345 -0.54593,-0.98764 -0.63043,-1.54033 l -0.0372,-0.24359 -0.25317,0.22791 -0.25317,0.22792 0.14572,0.12139 c 0.46344,0.38608 0.75722,1.21762 0.68076,1.92688 -0.0651,0.60354 -0.26277,0.97859 -0.6475,1.22837 -0.23694,0.15383 -0.28841,0.17009 -0.54013,0.17063 -0.3178,6.4e-4 -0.55803,-0.11687 -0.79328,-0.38819 -0.47255,-0.54503 -0.35808,-1.72558 0.19053,-1.96494 0.48613,-0.21211 0.93559,0.26763 0.67168,0.71694 -0.0449,0.0766 -0.0558,0.0774 -0.15302,0.0113 -0.1379,-0.0937 -0.2207,-0.0897 -0.3195,0.0154 -0.11625,0.12366 -0.1148,0.44753 0.003,0.61188 0.19621,0.27434 0.58371,0.26741 0.79814,-0.0143 0.36679,-0.48181 0.21039,-1.44979 -0.2974,-1.84071 -0.21885,-0.16847 -0.31439,-0.19107 -0.61921,-0.14652 -0.77422,0.11317 -1.36491,-0.37458 -1.45083,-1.19802 -0.0582,-0.55766 0.32957,-1.15179 0.8764,-1.34285 0.0818,-0.0286 0.33757,-0.051 0.56827,-0.0499 0.38179,0.002 0.43564,-0.008 0.59987,-0.11358 0.41494,-0.26612 0.66622,-0.98107 0.5423,-1.54297 -0.0619,-0.28045 -0.18453,-0.48413 -0.36405,-0.60444 -0.15569,-0.10433 -0.26827,-0.11142 -0.42005,-0.0265 -0.17099,0.0957 -0.27147,0.26727 -0.2912,0.49724 -0.0149,0.17452 -0.005,0.21929 0.0712,0.3195 0.11646,0.15299 0.25042,0.15063 0.37536,-0.007 0.11939,-0.15027 0.20155,-0.10649 0.23917,0.12746 0.0713,0.44295 -0.19057,0.81003 -0.57769,0.81003 -0.42786,0 -0.73603,-0.44641 -0.73679,-1.06729 -7.3e-4,-0.60343 0.21784,-1.08521 0.60632,-1.33644 0.20464,-0.13234 0.2615,-0.14851 0.52604,-0.14961 0.2482,-10e-4 0.32787,0.0179 0.4883,0.11609 0.40683,0.24897 0.64906,0.76146 0.67781,1.43407 0.0146,0.34161 0.005,0.43929 -0.0757,0.75435 -0.0509,0.19907 -0.13886,0.4573 -0.19558,0.57386 -0.0969,0.19904 -0.3454,0.54531 -0.49095,0.684 -0.0611,0.0583 -0.0572,0.068 0.0689,0.1669 0.0736,0.0578 0.18331,0.16584 0.24383,0.24014 l 0.11005,0.13508 0.017,-0.10826 c 0.14729,-0.93889 0.29522,-1.34594 0.64967,-1.78766 0.24043,-0.29962 0.67305,-0.65054 0.80199,-0.65054 0.0437,0 0.0178,-0.0592 -0.0961,-0.2191 -0.21163,-0.2972 -0.27419,-0.47324 -0.29338,-0.8256 -0.024,-0.43992 0.0853,-0.73241 0.45071,-1.20582 0.30479,-0.39495 0.51372,-0.5997 0.61194,-0.5997 0.0812,0 0.52713,0.47301 0.75711,0.80311 0.22533,0.32341 0.31837,0.58961 0.32021,0.91607 0.002,0.31102 -0.0933,0.59968 -0.28991,0.87977 -0.0802,0.11433 -0.13972,0.21462 -0.13223,0.22286 0.007,0.008 0.0653,0.0378 0.12829,0.0658 0.18964,0.0841 0.573,0.44467 0.77006,0.72427 0.23273,0.33021 0.41709,0.79048 0.49225,1.22895 0.0926,0.53982 0.0741,0.52263 0.31064,0.28962 0.11366,-0.11197 0.21111,-0.22016 0.21656,-0.24042 0.005,-0.0203 -0.0691,-0.11598 -0.16583,-0.21268 -0.20821,-0.20831 -0.38021,-0.53276 -0.50623,-0.95489 -0.0778,-0.26041 -0.0918,-0.3785 -0.0935,-0.78178 -0.002,-0.43097 0.007,-0.5012 0.0972,-0.75709 0.11538,-0.32816 0.35497,-0.64572 0.59793,-0.79256 0.23106,-0.13964 0.78036,-0.1428 1.0077,-0.006 0.33416,0.20138 0.52793,0.55168 0.57867,1.04612 0.0663,0.64645 -0.16954,1.17895 -0.58774,1.32688 -0.21666,0.0766 -0.39512,0.0133 -0.5661,-0.20087 -0.12629,-0.15819 -0.14997,-0.21594 -0.15419,-0.37598 -0.005,-0.209 0.0782,-0.42168 0.16595,-0.42168 0.0302,0 0.10789,0.0611 0.17261,0.13573 0.0648,0.0746 0.13037,0.13572 0.14588,0.13572 0.0155,0 0.0692,-0.0499 0.11935,-0.11094 0.1731,-0.21073 0.10101,-0.66777 -0.1278,-0.81041 -0.36022,-0.22453 -0.78826,0.0977 -0.88514,0.66644 -0.0846,0.49638 0.1233,1.14274 0.48994,1.52344 0.17367,0.18033 0.18955,0.18746 0.35492,0.15951 0.53486,-0.0904 0.76745,-0.0846 1.00414,0.0252 0.26574,0.12324 0.52689,0.4042 0.642,0.69069 0.0561,0.13971 0.0748,0.26494 0.0747,0.50275 -1.1e-4,0.5348 -0.18949,0.89683 -0.6006,1.14823 -0.1694,0.1036 -0.24587,0.11851 -0.72325,0.14106 -0.62468,0.0295 -0.75523,0.0855 -0.9928,0.42562 -0.19609,0.28075 -0.25827,0.48244 -0.25933,0.84124 -0.002,0.5779 0.24563,0.95032 0.63088,0.94991 0.27223,-2.6e-4 0.44904,-0.21119 0.44904,-0.53561 0,-0.27556 -0.19764,-0.41544 -0.35959,-0.25451 -0.0922,0.0916 -0.18223,0.0831 -0.22469,-0.0211 -0.13597,-0.33374 0.16422,-0.77208 0.52875,-0.77208 0.387,0 0.64102,0.42037 0.64102,1.0608 0,0.54966 -0.18641,0.95698 -0.54333,1.18721 -0.17409,0.1123 -0.23539,0.12717 -0.52433,0.12717 -0.29385,0 -0.34756,-0.0136 -0.52721,-0.13313 -0.60911,-0.40542 -0.82371,-1.46515 -0.48887,-2.414 0.0925,-0.26193 0.42294,-0.74715 0.58296,-0.85589 l 0.10069,-0.0684 -0.15238,-0.16369 c -0.0838,-0.09 -0.19294,-0.21929 -0.24254,-0.28725 -0.10432,-0.14289 -0.13368,-0.12484 -0.13368,0.0821 0,0.26357 -0.16663,0.85417 -0.33864,1.20031 -0.20916,0.42087 -0.48087,0.74061 -0.82334,0.96888 -0.14702,0.098 -0.27316,0.18247 -0.28032,0.18772 -0.007,0.005 0.0576,0.11274 0.14395,0.23886 0.27654,0.40404 0.33575,0.90714 0.16045,1.3632 -0.0859,0.22323 -0.58674,0.89563 -0.83142,1.11604 -0.0886,0.0799 -0.16615,0.14402 -0.17221,0.1426 -0.006,-0.001 -0.0962,-0.0871 -0.20043,-0.19026 z m 0.34201,-1.04967 c 0.2496,-0.16954 0.36265,-0.52736 0.25808,-0.81683 -0.0589,-0.16286 -0.29226,-0.42894 -0.3763,-0.42894 -0.0742,0 -0.27192,0.2021 -0.35516,0.36301 -0.0652,0.12597 -0.078,0.1978 -0.0645,0.36086 0.0144,0.17415 0.0409,0.23139 0.18292,0.39586 0.18316,0.2121 0.21278,0.22262 0.35495,0.12604 z m -3.18438,-4.13789 c 0.16532,-0.11013 0.30847,-0.22724 0.31811,-0.26024 0.024,-0.0821 -0.10485,-0.2206 -0.35169,-0.37827 -0.49868,-0.31848 -1.02336,-0.24171 -1.17265,0.17158 -0.14921,0.41307 0.11575,0.70049 0.62594,0.67897 0.25368,-0.0107 0.30768,-0.0304 0.58029,-0.21204 z m 7.08988,0.16116 c 0.14139,-0.0776 0.29865,-0.31907 0.29865,-0.45857 0,-0.12837 -0.14386,-0.36297 -0.27877,-0.45462 -0.17592,-0.1195 -0.47147,-0.12914 -0.70279,-0.0229 -0.231,0.10607 -0.57713,0.39738 -0.55866,0.47018 0.024,0.0945 0.25984,0.30833 0.45855,0.41564 0.23508,0.12695 0.60058,0.15043 0.78302,0.0503 z m -3.81644,-3.79054 c 0.21714,-0.25045 0.27894,-0.53507 0.17403,-0.80155 -0.0494,-0.12553 -0.28277,-0.36802 -0.35416,-0.36802 -0.021,0 -0.11873,0.0837 -0.21727,0.18603 l -0.17916,0.18602 0.015,0.27258 c 0.0141,0.25518 0.0252,0.28517 0.17407,0.46997 0.0875,0.10857 0.18266,0.19741 0.21151,0.19741 0.0289,0 0.10804,-0.0641 0.17597,-0.14244 z"
       id="path1" /></g><g
     inkscape:groupmode="layer"
     id="layer8"
     inkscape:label="band"><path
       style="fill:#000000;stroke-width:0.128941"
       d="m 165.06812,286.41583 c -0.28394,-0.1211 -0.6195,-0.55642 -0.7493,-0.97207 -0.0812,-0.25993 -0.12506,-0.84627 -0.0856,-1.14393 0.018,-0.13605 0.0876,-0.394 0.15465,-0.57323 l 0.12188,-0.32586 -0.13307,0.12893 c -0.25915,0.25107 -0.33198,0.35067 -0.38876,0.53164 -0.0982,0.313 -0.19398,0.44276 -0.32679,0.44276 -0.10277,0 -0.16793,-0.07 -0.41615,-0.44731 -0.16186,-0.24601 -0.3583,-0.54259 -0.43653,-0.65905 -0.22211,-0.33065 -0.39725,-0.69993 -0.3452,-0.72787 0.0945,-0.0507 0.60592,-0.70546 0.79305,-1.01537 0.22209,-0.3678 0.34966,-0.43925 0.54712,-0.30643 0.0931,0.0626 0.15456,0.16792 0.22985,0.39376 0.0719,0.21556 0.15657,0.36484 0.28162,0.49636 0.20822,0.21899 0.27775,0.24276 0.17036,0.0582 -0.26522,-0.45573 -0.3443,-1.37083 -0.16589,-1.91956 0.13261,-0.40786 0.27557,-0.62871 0.52878,-0.81687 0.18526,-0.13767 0.26531,-0.16305 0.50681,-0.16067 0.33601,0.003 0.50494,0.11711 0.70615,0.47568 0.15868,0.28277 0.22128,0.57732 0.19966,0.93949 -0.0285,0.47657 -0.30075,0.91852 -0.56622,0.91897 -0.16503,2.8e-4 -0.27021,-0.12393 -0.323,-0.38144 -0.0374,-0.18221 -0.0339,-0.22712 0.0277,-0.36055 0.0447,-0.0968 0.11155,-0.15901 0.18333,-0.1705 0.13503,-0.0216 0.14001,-0.0692 0.029,-0.2769 -0.0692,-0.12954 -0.11352,-0.15713 -0.25233,-0.15713 -0.30796,0 -0.50996,0.39028 -0.47019,0.90845 0.0367,0.47869 0.15562,0.77335 0.39419,0.97699 0.11627,0.0993 0.21298,0.12419 0.51113,0.1318 0.4044,0.0103 0.52778,0.0843 0.56769,0.34028 0.0316,0.20241 -0.01,0.41806 -0.0936,0.49043 -0.0393,0.0339 -0.24483,0.0821 -0.45666,0.10719 -0.43409,0.0514 -0.54335,0.12006 -0.73545,0.46241 -0.2049,0.36514 -0.24442,0.80199 -0.11117,1.22895 0.13769,0.44121 0.5818,0.56725 0.68715,0.19502 0.0462,-0.16344 0.0259,-0.2049 -0.10063,-0.2049 -0.1979,0 -0.29047,-0.34925 -0.16929,-0.63875 0.1102,-0.26327 0.2265,-0.35401 0.40108,-0.31294 0.51653,0.1215 0.68539,1.08927 0.32338,1.8534 -0.18017,0.38028 -0.7103,0.63067 -1.03872,0.49059 z"
       id="path19" /></g><g
     inkscape:groupmode="layer"
     id="layer9"
     inkscape:label="eye"><path
       style="fill:#000000;stroke-width:0.215083"
       d="m 152.52352,307.8419 c -0.30025,-0.0517 -0.86179,-0.18479 -1.24784,-0.29582 -1.77545,-0.51061 -2.89996,-1.2052 -5.4027,-3.33707 -0.54586,-0.46498 -1.14971,-0.94443 -1.3419,-1.06543 -0.79055,-0.49774 -1.83537,-0.57189 -2.43177,-0.17259 -0.48719,0.32618 -0.63547,0.55806 -0.67328,1.05284 -0.0395,0.5169 0.10479,0.83556 0.47514,1.04931 0.29765,0.17178 0.74601,0.18767 0.95618,0.0339 0.14931,-0.10927 0.14913,-0.11262 -0.0126,-0.24299 -0.38013,-0.30635 -0.37488,-0.68957 0.0113,-0.82857 0.47345,-0.17039 0.97156,0.22493 0.97156,0.77106 0,0.67332 -0.68155,1.18931 -1.48745,1.12612 -0.60282,-0.0473 -1.04484,-0.27886 -1.32212,-0.69269 -0.3288,-0.49076 -0.41463,-0.79281 -0.35707,-1.25648 0.11302,-0.91012 0.75478,-1.5814 1.74534,-1.82562 l 0.36843,-0.0908 -0.27296,-0.0577 c -0.42299,-0.0894 -0.84534,-0.31792 -1.25053,-0.67667 -1.14412,-1.01298 -0.96449,-2.78928 0.34833,-3.44456 0.65704,-0.32795 1.63741,-0.1625 2.16458,0.36531 0.683,0.68384 0.37379,1.90428 -0.48248,1.90428 -0.69177,0 -0.85193,-0.65479 -0.2127,-0.86959 0.35498,-0.11929 0.17453,-0.56776 -0.2864,-0.71174 -0.36427,-0.1138 -0.86556,0.0161 -1.14156,0.29573 -0.2602,0.26366 -0.42199,0.78449 -0.3465,1.11541 0.20874,0.91486 0.99443,1.45169 2.01161,1.3744 0.75229,-0.0572 1.12956,-0.25726 2.02347,-1.07328 2.77183,-2.53025 4.74496,-3.65476 7.23045,-4.12073 0.91751,-0.172 2.80527,-0.11433 3.74597,0.11445 1.06081,0.258 1.73982,0.51011 2.61597,0.97129 1.22,0.64217 2.05069,1.2513 4.08763,2.99737 0.48399,0.41489 1.04252,0.82896 1.24117,0.92016 0.42864,0.19682 1.16024,0.25844 1.63416,0.13765 0.41194,-0.10499 0.92645,-0.53197 1.11618,-0.92629 0.3512,-0.7299 0.0279,-1.58956 -0.68119,-1.81104 -0.70531,-0.22033 -1.5193,0.49397 -0.89736,0.78747 0.23433,0.11059 0.31752,0.23495 0.31903,0.47693 9e-4,0.25887 -0.22575,0.43591 -0.55986,0.43591 -0.51877,0 -0.92076,-0.46673 -0.92076,-1.06912 0,-0.4566 0.1481,-0.76034 0.5296,-1.08618 0.80256,-0.68547 2.08733,-0.50987 2.76113,0.37739 0.61689,0.81235 0.42348,2.2048 -0.40462,2.91294 -0.3242,0.27724 -1.00544,0.63667 -1.20671,0.63667 -0.0657,0 -0.11959,0.029 -0.11959,0.0645 0,0.0355 0.079,0.0646 0.17548,0.0646 0.28199,1.3e-4 0.92475,0.3216 1.24039,0.62036 0.40914,0.38727 0.55172,0.6874 0.59433,1.25097 0.0592,0.78371 -0.19075,1.26337 -0.87288,1.67476 -0.26238,0.15825 -0.41452,0.19276 -0.86436,0.19616 -0.84593,0.006 -1.34734,-0.34873 -1.41562,-1.0025 -0.0421,-0.40296 0.0903,-0.65048 0.44262,-0.82753 0.53682,-0.26977 0.98045,0.17301 0.62688,0.62569 -0.19965,0.25559 -0.20145,0.33371 -0.01,0.43071 0.50006,0.25332 1.21407,-0.12493 1.32313,-0.70093 0.17405,-0.91919 -0.61552,-1.65874 -1.7709,-1.65874 -0.73867,0 -1.27636,0.2654 -2.2983,1.13444 -2.20944,1.87883 -3.05608,2.47291 -4.3849,3.07684 -1.57736,0.71688 -2.72544,0.95989 -4.48442,0.94924 -0.57908,-0.004 -1.29853,-0.0486 -1.59879,-0.10032 z m 2.97748,-0.93258 c 1.31224,-0.17245 2.8474,-0.77616 4.13257,-1.62518 0.80371,-0.53094 1.15435,-0.80153 2.32361,-1.79313 0.95601,-0.81076 1.2839,-1.029 1.9126,-1.27298 0.34492,-0.13386 0.39773,-0.17549 0.27296,-0.21524 -0.66992,-0.21347 -1.08147,-0.49355 -3.09388,-2.10558 -1.9235,-1.54078 -3.42748,-2.30709 -5.36674,-2.73444 -0.61398,-0.1353 -2.40382,-0.11754 -3.09141,0.0307 -1.88777,0.40693 -3.401,1.20656 -5.42296,2.86567 -1.44362,1.18456 -2.01375,1.59709 -2.45929,1.7795 -0.22562,0.0924 -0.41082,0.18762 -0.41155,0.21164 -6.7e-4,0.024 0.13538,0.0824 0.30247,0.12983 0.33739,0.0957 0.97629,0.55157 2.72587,1.94507 0.64735,0.51558 1.44704,1.10991 1.7771,1.32073 0.62146,0.39694 1.72881,0.9207 2.40731,1.13863 1.16712,0.37486 2.67604,0.49765 3.99134,0.32481 z"
       id="path18" /><path
       style="fill:#000000;stroke-width:0.0856415"
       d="m 172.32446,330.59827 c -0.72426,-0.0657 -1.62471,-0.23628 -2.3085,-0.43718 -0.94582,-0.27789 -2.17268,-0.81053 -3.20155,-1.38995 -1.19004,-0.6702 -2.83173,-1.83398 -3.9694,-2.81389 -0.27808,-0.23953 -0.70424,-0.59803 -0.94702,-0.79668 -0.24277,-0.19865 -0.64205,-0.54505 -0.88728,-0.76978 -0.24522,-0.22475 -0.52948,-0.47332 -0.63167,-0.5524 -0.10805,-0.0836 -0.1858,-0.16703 -0.1858,-0.19933 0,-0.0305 0.0138,-0.0555 0.0307,-0.0555 0.0169,0 0.3765,-0.30747 0.79911,-0.68327 0.42262,-0.37579 0.92593,-0.81036 1.11847,-0.9657 0.19255,-0.15534 0.54187,-0.4451 0.77628,-0.64391 1.0492,-0.88987 2.53256,-1.95007 3.6413,-2.60257 2.2657,-1.33336 4.39563,-1.97262 6.56475,-1.97029 2.43585,0.002 4.75973,0.75147 7.3273,2.36113 0.78996,0.49525 2.08032,1.42329 2.85655,2.05449 1.20865,0.98284 1.53101,1.25421 2.20121,1.85297 0.30302,0.27072 0.58727,0.52248 0.63167,0.55947 0.10365,0.0863 0.10163,0.1156 -0.0148,0.2128 -0.0525,0.0438 -0.37621,0.32936 -0.71934,0.63445 -0.34316,0.30509 -0.80518,0.70313 -1.02672,0.88453 -0.22153,0.1814 -0.64101,0.53242 -0.93214,0.78004 -1.51917,1.29209 -3.49377,2.59305 -5.01086,3.30138 -1.36496,0.63729 -2.62071,1.0179 -3.9053,1.18368 -0.54332,0.0701 -1.72034,0.0997 -2.20707,0.0555 z m 1.61343,-1.79616 c 0.50944,-0.0233 0.58731,-0.035 1.10748,-0.16596 0.30774,-0.0775 0.64029,-0.15215 0.73902,-0.16589 0.24467,-0.034 0.94364,-0.2544 1.16729,-0.36795 0.45589,-0.23149 0.92162,-0.48623 1.01047,-0.55269 0.0534,-0.04 0.17934,-0.0916 0.27971,-0.11463 0.25663,-0.059 1.36994,-0.70242 2.08891,-1.20732 0.90332,-0.63436 2.48844,-1.92796 2.99751,-2.44624 l 0.13594,-0.1384 -0.21204,-0.21223 c -0.22704,-0.22721 -0.99219,-0.88227 -1.49063,-1.27613 -0.7063,-0.55813 -2.04351,-1.48772 -2.60281,-1.80941 -0.20929,-0.12037 -0.55177,-0.33051 -0.76106,-0.46697 -0.26181,-0.17071 -0.45601,-0.27306 -0.62245,-0.32808 -0.14459,-0.0478 -0.28995,-0.12044 -0.36126,-0.18055 -0.12602,-0.10625 -0.34225,-0.1938 -0.47864,-0.1938 -0.0449,0 -0.18972,-0.0483 -0.32185,-0.10724 -0.1321,-0.059 -0.30175,-0.13481 -0.37697,-0.16849 -0.217,-0.0972 -0.69042,-0.20401 -0.90392,-0.20401 -0.10767,0 -0.33337,-0.0281 -0.5016,-0.0624 -0.16823,-0.0344 -0.33997,-0.054 -0.38165,-0.0437 -0.0417,0.0103 -0.19436,-0.005 -0.33928,-0.0343 -0.4064,-0.0818 -1.52211,-0.0741 -1.93781,0.0133 -0.16743,0.0352 -0.49621,0.10383 -0.73062,0.15248 -0.23439,0.0487 -0.54263,0.13098 -0.68495,0.18295 -0.14231,0.052 -0.38418,0.12639 -0.53748,0.16541 -0.1533,0.0391 -0.31084,0.0912 -0.3501,0.116 -0.0392,0.0248 -0.13298,0.0608 -0.20833,0.0799 -0.0753,0.0192 -0.16561,0.0528 -0.20056,0.0749 -0.035,0.022 -0.26101,0.0968 -0.50231,0.16621 -0.45357,0.13043 -0.75416,0.24885 -0.91121,0.359 -0.0498,0.035 -0.0907,0.0565 -0.0907,0.0477 0,-0.0267 -1.14937,0.66269 -1.50689,0.90377 -1.02212,0.68922 -2.46344,1.82961 -3.18989,2.52389 l -0.32833,0.31378 0.237,0.23733 c 0.25031,0.25066 1.14641,1.01072 1.75928,1.4922 0.86843,0.68226 1.96615,1.42983 2.61786,1.7828 0.1172,0.0635 0.26789,0.1578 0.33486,0.2096 0.29919,0.23143 0.75969,0.41554 1.30901,0.52336 0.18418,0.0362 0.42391,0.0904 0.53275,0.12054 0.10883,0.0301 0.28007,0.0747 0.38053,0.0991 0.10046,0.0243 0.26876,0.0803 0.37398,0.12428 0.10524,0.044 0.32442,0.10527 0.48708,0.13611 0.16266,0.0308 0.34843,0.0781 0.41283,0.10494 0.0644,0.0268 0.30413,0.0957 0.53274,0.15307 0.22861,0.0573 0.46225,0.11904 0.51922,0.13714 0.18992,0.0604 0.41134,0.0819 0.68793,0.0667 0.15069,-0.008 0.52056,-0.0263 0.82193,-0.0401 z"
       id="path15" /></g><g
     inkscape:groupmode="layer"
     id="layer13"
     inkscape:label="button"><path
       style="fill:#000000;stroke-width:0.107726"
       d="m 198.31129,319.44385 c 0.16004,0.0678 0.24572,0.19477 0.24572,0.36418 0,0.14776 -0.0793,0.25713 -0.18575,0.25618 -0.1594,-9.9e-4 -0.24133,-0.16192 -0.0846,-0.16577 0.11896,-0.003 0.14556,-0.10321 0.0608,-0.22913 -0.0489,-0.0727 -0.0947,-0.0919 -0.21892,-0.0919 -0.12726,0 -0.18193,0.0242 -0.28805,0.12747 -0.1114,0.1084 -0.13098,0.15351 -0.13098,0.30176 0,0.21656 0.082,0.37672 0.23139,0.45189 0.063,0.0317 0.12728,0.0561 0.14285,0.0541 0.0156,-0.002 0.0346,0.0145 0.0421,0.0367 0.02,0.0584 -0.17093,0.0494 -0.297,-0.014 -0.13567,-0.0683 -0.22335,-0.19699 -0.26907,-0.39503 -0.0662,-0.28677 0.0747,-0.55378 0.35855,-0.67922 0.18637,-0.0823 0.23418,-0.0844 0.39296,-0.0172 z m -1.25676,-0.0118 c 0.23802,0.0924 0.38526,0.317 0.38526,0.58773 0,0.14467 -0.0245,0.21671 -0.11581,0.33926 -0.0637,0.0855 -0.12225,0.15558 -0.13012,0.15558 -0.008,0 -0.0762,0.0252 -0.1518,0.0559 -0.19618,0.0798 -0.21564,0.004 -0.0285,-0.11059 0.2044,-0.12557 0.28643,-0.28373 0.261,-0.50327 -0.0367,-0.31743 -0.40409,-0.5 -0.60757,-0.30199 -0.10207,0.0994 -0.0851,0.23728 0.0312,0.25336 0.11752,0.0162 0.10995,0.11211 -0.0111,0.14171 -0.23449,0.0572 -0.34359,-0.28696 -0.15402,-0.486 0.1542,-0.16192 0.32952,-0.20619 0.52154,-0.13169 z m 3.18261,0.59271 c 0.25149,0.10428 0.32868,0.46358 0.14521,0.67578 -0.13815,0.15975 -0.28526,0.22624 -0.50396,0.22771 l -0.1849,0.001 0.0864,0.0701 c 0.0804,0.0652 0.0992,0.0663 0.26967,0.0147 0.5278,-0.15959 1.28123,0.15013 1.28123,0.52671 0,0.24766 -0.24635,0.32544 -0.39885,0.12593 -0.0734,-0.0961 -0.0745,-0.10793 -0.0158,-0.16518 0.0589,-0.0572 0.0653,-0.0544 0.0895,0.0397 0.0171,0.0661 0.0479,0.0974 0.0885,0.0898 0.19036,-0.0357 -0.0117,-0.32727 -0.29091,-0.41985 -0.1739,-0.0576 -0.60306,-0.081 -0.71569,-0.0389 -0.0386,0.0144 0.0252,0.0961 0.2122,0.27179 0.35979,0.33797 0.61197,0.67762 0.81651,1.09969 0.27319,0.56375 0.31025,0.74071 0.30907,1.47584 -8.8e-4,0.67474 -0.0304,0.84806 -0.23158,1.36949 -0.47947,1.24273 -1.66561,2.18909 -3.03556,2.42189 -0.45435,0.0773 -1.18107,0.0505 -1.64138,-0.0603 -0.37743,-0.0909 -0.92534,-0.33361 -1.27771,-0.56607 -0.52628,-0.34718 -1.10032,-1.01774 -1.36186,-1.59081 -0.2147,-0.47046 -0.29628,-0.82651 -0.3177,-1.38675 -0.0147,-0.38562 -0.004,-0.60441 0.039,-0.82476 0.14382,-0.73044 0.49735,-1.36611 1.06335,-1.91194 0.31076,-0.2997 0.31089,-0.29991 0.20568,-0.32929 -0.14339,-0.04 -0.49544,0.003 -0.68442,0.083 -0.15912,0.0677 -0.36471,0.26923 -0.36471,0.35754 0,0.0918 0.11959,0.0983 0.19314,0.0105 0.0663,-0.079 0.0726,-0.0799 0.0983,-0.0157 0.0374,0.0936 -0.0994,0.22181 -0.23652,0.22181 -0.26803,0 -0.27026,-0.31315 -0.004,-0.55927 0.26697,-0.24675 0.70335,-0.33656 1.12878,-0.23231 0.112,0.0275 0.1869,0.0297 0.21097,0.006 0.024,-0.0234 -0.0349,-0.0524 -0.16623,-0.0817 -0.23408,-0.0522 -0.33992,-0.12618 -0.43414,-0.30348 -0.19855,-0.37364 0.19196,-0.7829 0.5429,-0.56898 0.13874,0.0845 0.17854,0.18951 0.11664,0.30753 -0.0617,0.11762 -0.12005,0.11055 -0.12469,-0.0151 -0.009,-0.2466 -0.32096,-0.22937 -0.41289,0.0228 -0.038,0.10423 0.0379,0.24611 0.17509,0.32754 0.16534,0.0981 0.44794,0.0976 0.77744,-9.9e-4 0.35012,-0.10525 1.04005,-0.3897 1.17947,-0.4863 0.0631,-0.0437 0.11475,-0.0628 0.11475,-0.0424 0,0.0929 -0.37709,0.3344 -0.92459,0.59211 -0.62375,0.29361 -0.87109,0.45199 -1.24481,0.79703 -0.46833,0.4324 -0.83256,1.03678 -0.9962,1.65297 -0.11996,0.45175 -0.1198,1.19393 3.3e-4,1.66601 0.10072,0.3957 0.36062,0.94782 0.59955,1.27365 0.39584,0.53982 1.07828,1.05379 1.71816,1.29401 0.76558,0.2874 1.71042,0.31494 2.50411,0.073 1.27322,-0.38814 2.26902,-1.45121 2.56824,-2.74177 0.0422,-0.18227 0.0627,-0.44403 0.0622,-0.79637 -6.4e-4,-0.45763 -0.0138,-0.56708 -0.10241,-0.85463 -0.18523,-0.60077 -0.47747,-1.07325 -0.94559,-1.52878 -0.37657,-0.36646 -0.63176,-0.53097 -1.35647,-0.87448 -0.37976,-0.18 -0.63934,-0.32818 -0.72415,-0.41336 -0.13229,-0.13288 -0.14155,-0.23751 -0.0108,-0.12238 0.0906,0.0798 0.63825,0.32868 1.04214,0.47359 0.56439,0.20251 1.03351,0.13639 1.14092,-0.1608 0.0824,-0.22783 -0.18931,-0.42211 -0.36897,-0.26389 -0.0413,0.0363 -0.0657,0.0897 -0.0542,0.11866 0.0366,0.0927 -0.022,0.12894 -0.0989,0.0612 -0.0967,-0.0851 -0.0925,-0.17709 0.0135,-0.29572 0.0949,-0.10625 0.30378,-0.15257 0.43771,-0.0971 z"
       id="path14-9" /><path
       style="fill:#000000;stroke-width:0.107726"
       d="m 210.39032,328.60945 c -0.16004,-0.0678 -0.24572,-0.19477 -0.24572,-0.36418 0,-0.14776 0.0793,-0.25713 0.18575,-0.25618 0.15941,9.9e-4 0.24134,0.16192 0.0846,0.16577 -0.11896,0.003 -0.14556,0.10321 -0.0608,0.22913 0.0489,0.0727 0.0947,0.0919 0.21892,0.0919 0.12726,0 0.18193,-0.0242 0.28805,-0.12747 0.1114,-0.1084 0.13098,-0.15351 0.13098,-0.30176 0,-0.21656 -0.082,-0.37672 -0.23139,-0.45189 -0.063,-0.0317 -0.12728,-0.0561 -0.14285,-0.0541 -0.0156,0.002 -0.0346,-0.0145 -0.0421,-0.0367 -0.02,-0.0584 0.17093,-0.0494 0.297,0.014 0.13567,0.0683 0.22335,0.19699 0.26907,0.39503 0.0662,0.28677 -0.0747,0.55378 -0.35855,0.67922 -0.18637,0.0823 -0.23418,0.0844 -0.39296,0.0172 z m 1.25676,0.0118 c -0.23802,-0.0924 -0.38526,-0.317 -0.38526,-0.58773 0,-0.14467 0.0245,-0.21671 0.11581,-0.33926 0.0637,-0.0855 0.12226,-0.15558 0.13013,-0.15558 0.008,0 0.0762,-0.0252 0.1518,-0.0559 0.19618,-0.0798 0.21564,-0.004 0.0285,0.11059 -0.2044,0.12557 -0.28643,0.28373 -0.261,0.50327 0.0367,0.31743 0.40409,0.5 0.60757,0.30199 0.10207,-0.0994 0.0851,-0.23728 -0.0312,-0.25336 -0.11752,-0.0162 -0.10995,-0.11211 0.0111,-0.14171 0.23449,-0.0572 0.34359,0.28696 0.15402,0.486 -0.1542,0.16192 -0.32952,0.20619 -0.52154,0.13169 z m -3.18261,-0.59271 c -0.25149,-0.10428 -0.32868,-0.46358 -0.1452,-0.67578 0.13815,-0.15975 0.28526,-0.22624 0.50395,-0.22771 l 0.1849,-10e-4 -0.0864,-0.0701 c -0.0804,-0.0652 -0.0992,-0.0663 -0.26967,-0.0147 -0.5278,0.15959 -1.28123,-0.15013 -1.28123,-0.52671 0,-0.24766 0.24635,-0.32544 0.39885,-0.12593 0.0734,0.0961 0.0745,0.10793 0.0158,0.16518 -0.0589,0.0572 -0.0653,0.0544 -0.0895,-0.0397 -0.0171,-0.0661 -0.0479,-0.0974 -0.0885,-0.0898 -0.19036,0.0357 0.0117,0.32727 0.29092,0.41985 0.1739,0.0576 0.60305,0.081 0.71568,0.0389 0.0386,-0.0144 -0.0252,-0.0961 -0.2122,-0.27179 -0.35979,-0.33797 -0.61197,-0.67762 -0.81651,-1.09969 -0.27319,-0.56375 -0.31024,-0.74071 -0.30906,-1.47584 8.7e-4,-0.67474 0.0304,-0.84806 0.23157,-1.36949 0.47947,-1.24273 1.66562,-2.18909 3.03556,-2.42189 0.45435,-0.0773 1.18107,-0.0505 1.64138,0.0603 0.37743,0.0909 0.92534,0.33361 1.27771,0.56607 0.52628,0.34718 1.10032,1.01774 1.36186,1.59081 0.2147,0.47046 0.29628,0.82651 0.3177,1.38675 0.0147,0.38562 0.004,0.60441 -0.039,0.82476 -0.14382,0.73044 -0.49735,1.36611 -1.06335,1.91194 -0.31076,0.2997 -0.31089,0.29991 -0.20568,0.32929 0.14339,0.04 0.49544,-0.003 0.68442,-0.083 0.15912,-0.0677 0.36471,-0.26923 0.36471,-0.35754 0,-0.0918 -0.11959,-0.0983 -0.19314,-0.0105 -0.0663,0.079 -0.0726,0.0799 -0.0983,0.0157 -0.0374,-0.0936 0.0994,-0.22181 0.23652,-0.22181 0.26803,0 0.27026,0.31315 0.004,0.55927 -0.26697,0.24675 -0.70335,0.33656 -1.12878,0.23231 -0.112,-0.0275 -0.1869,-0.0297 -0.21097,-0.006 -0.024,0.0234 0.0349,0.0524 0.16623,0.0817 0.23408,0.0522 0.33992,0.12618 0.43414,0.30348 0.19855,0.37364 -0.19196,0.7829 -0.5429,0.56898 -0.13874,-0.0845 -0.17854,-0.18951 -0.11664,-0.30753 0.0617,-0.11762 0.12005,-0.11055 0.12469,0.0151 0.009,0.2466 0.32096,0.22937 0.41289,-0.0228 0.038,-0.10423 -0.0379,-0.24611 -0.17509,-0.32754 -0.16534,-0.0981 -0.44794,-0.0976 -0.77744,9.9e-4 -0.35012,0.10525 -1.04005,0.3897 -1.17947,0.4863 -0.0631,0.0437 -0.11475,0.0628 -0.11475,0.0424 0,-0.0929 0.37709,-0.3344 0.92459,-0.59211 0.62375,-0.29361 0.87109,-0.45199 1.24481,-0.79703 0.46833,-0.4324 0.83256,-1.03678 0.9962,-1.65297 0.11996,-0.45175 0.1198,-1.19393 -3.3e-4,-1.66601 -0.10072,-0.3957 -0.36062,-0.94782 -0.59955,-1.27365 -0.39584,-0.53982 -1.07828,-1.05379 -1.71816,-1.29401 -0.76558,-0.2874 -1.71042,-0.31494 -2.50411,-0.073 -1.27322,0.38814 -2.26902,1.45121 -2.56824,2.74177 -0.0422,0.18227 -0.0627,0.44403 -0.0622,0.79637 6.4e-4,0.45763 0.0138,0.56708 0.10242,0.85463 0.18522,0.60077 0.47747,1.07325 0.94558,1.52878 0.37658,0.36646 0.63176,0.53097 1.35647,0.87448 0.37976,0.18 0.63934,0.32818 0.72415,0.41336 0.13229,0.13288 0.14155,0.23751 0.0108,0.12238 -0.0906,-0.0798 -0.63825,-0.32868 -1.04214,-0.47359 -0.56438,-0.20251 -1.03351,-0.13639 -1.14092,0.1608 -0.0824,0.22783 0.18931,0.42211 0.36898,0.26389 0.0413,-0.0363 0.0656,-0.0897 0.0542,-0.11866 -0.0366,-0.0927 0.022,-0.12894 0.0989,-0.0612 0.0967,0.0851 0.0925,0.17709 -0.0135,0.29572 -0.0949,0.10625 -0.30379,0.15257 -0.43772,0.0971 z"
       id="path14" /></g><g
     inkscape:groupmode="layer"
     id="layer14"
     inkscape:label="corners"><g
       id="layer1-3"
       transform="translate(32.175512,282.62749)"><path
         style="display:inline;fill:#000000;stroke-width:0.095865"
         d="m 133.93233,70.970265 c -0.15554,-0.05266 -0.27434,-0.211524 -0.27418,-0.366753 2.1e-4,-0.37894 0.43266,-0.559041 0.77243,-0.321799 0.096,0.06699 0.12604,0.115064 0.14085,0.224949 0.0453,0.335727 -0.29265,0.580825 -0.6391,0.463603 z m -0.8475,-0.910937 c -0.16353,-0.0612 -0.33825,-0.231728 -0.39081,-0.381368 -0.10058,-0.286347 0.10287,-0.62952 0.40094,-0.676291 0.38611,-0.0606 0.75069,0.27367 0.54573,0.500319 -0.0766,0.08468 -0.0697,0.106435 0.0337,0.106435 0.17356,0 0.28565,-0.245287 0.20523,-0.44911 -0.17214,-0.436256 -0.87664,-0.631403 -1.77186,-0.490802 -0.43974,0.06906 -0.82098,0.04769 -1.08634,-0.06087 -0.38285,-0.156669 -0.61435,-0.454336 -0.64661,-0.831453 -0.0158,-0.184372 -0.0239,-0.202969 -0.0684,-0.155142 -0.12169,0.130923 -0.20901,0.341774 -0.21959,0.530235 -0.0136,0.242347 -0.0464,0.27646 -0.21627,0.225083 -0.10966,-0.03316 -0.15519,-0.02953 -0.34203,0.02764 -0.57218,0.174909 -0.6408,0.179409 -0.6408,0.04204 0,-0.09178 0.2277,-0.518909 0.29523,-0.553815 0.0294,-0.01513 0.004,-0.05105 -0.0796,-0.109616 -0.12015,-0.08493 -0.12177,-0.08923 -0.0655,-0.174465 0.0512,-0.07758 0.0761,-0.08663 0.22187,-0.08067 0.25752,0.01049 0.56339,-0.05132 0.79362,-0.160455 l 0.21128,-0.10016 -0.32959,-0.01574 c -0.21518,-0.01029 -0.38678,-0.03719 -0.49432,-0.07754 -0.24778,-0.093 -0.49803,-0.295796 -0.61301,-0.496774 -0.12692,-0.221834 -0.1553,-0.570643 -0.0899,-1.104597 0.0391,-0.319304 0.0374,-0.402978 -0.0122,-0.599006 -0.0976,-0.385793 -0.33568,-0.558758 -0.77107,-0.560157 -0.18688,-5.18e-4 -0.22637,0.01069 -0.33281,0.09495 -0.087,0.06892 -0.10011,0.08992 -0.0468,0.07516 0.27258,-0.07546 0.50704,-0.02563 0.63653,0.135342 0.16267,0.202175 0.0767,0.451887 -0.21215,0.615981 -0.10824,0.06147 -0.16409,0.07121 -0.35355,0.06147 -0.27989,-0.01439 -0.41517,-0.09516 -0.55963,-0.334053 -0.37289,-0.61666 0.26873,-1.330447 1.09085,-1.213554 0.58611,0.08334 0.96629,0.495793 1.17631,1.276177 0.0525,0.1952 0.10187,0.360283 0.10964,0.366841 0.008,0.0067 0.0578,-0.01197 0.11116,-0.0413 0.16053,-0.08797 0.58513,-0.09847 0.82974,-0.02051 0.3721,0.118588 0.62607,0.392109 0.62782,0.67617 4.4e-4,0.0723 0.0168,0.131454 0.0362,0.131454 0.0621,0 0.21862,-0.257635 0.28181,-0.463926 0.12075,-0.394228 0.0183,-0.831359 -0.25913,-1.105728 -0.1511,-0.149425 -0.20601,-0.132805 -0.20601,0.06235 0,0.183349 -0.0853,0.344154 -0.23065,0.434931 -0.1194,0.07456 -0.38808,0.100388 -0.55758,0.0536 -0.32538,-0.08982 -0.53212,-0.462917 -0.41312,-0.745552 0.0946,-0.224753 0.23081,-0.361513 0.44879,-0.45071 0.17697,-0.07241 0.23151,-0.07998 0.48521,-0.06731 0.33179,0.01655 0.5153,0.08376 0.71454,0.261604 0.32635,0.29131 0.47477,0.61325 0.51097,1.108336 l 0.0249,0.340221 0.0621,-0.170107 c 0.0919,-0.251891 0.17978,-0.804732 0.15515,-0.976372 -0.0119,-0.0825 -0.0566,-0.218283 -0.0996,-0.301735 -0.0994,-0.193338 -0.0647,-0.249403 0.16243,-0.262068 0.12383,-0.0069 0.18964,0.0073 0.26534,0.05703 0.13375,0.08799 0.24577,0.277887 0.27162,0.460449 l 0.021,0.14841 0.10879,-0.173718 c 0.23022,-0.367621 0.47679,-0.502626 0.95506,-0.522918 0.56574,-0.02401 0.72233,0.0928 0.71696,0.534768 -0.004,0.37779 -0.21098,0.685666 -0.57404,0.856338 -0.0789,0.03713 -0.14351,0.07724 -0.14351,0.08918 0,0.01197 0.0788,0.03161 0.17516,0.04372 0.43112,0.05408 0.63098,0.284592 0.47102,0.54331 -0.0685,0.110725 -0.14658,0.115359 -0.42431,0.02515 -0.26407,-0.08575 -0.8519,-0.113248 -1.16525,-0.05448 -0.1218,0.02287 -0.24288,0.03988 -0.26905,0.03793 -0.0262,-0.002 -0.10939,0.02219 -0.1849,0.05374 l -0.1373,0.05737 0.38098,0.0013 c 0.8356,0.0027 1.41389,0.223993 1.65283,0.632459 0.25992,0.444334 0.0997,0.912995 -0.37615,1.100064 -0.24067,0.09462 -0.64211,0.08124 -0.83229,-0.02778 -0.20113,-0.115265 -0.30127,-0.260581 -0.31807,-0.461531 -0.0121,-0.145639 9e-5,-0.193089 0.0732,-0.2832 0.0483,-0.05952 0.13662,-0.127862 0.19623,-0.151833 0.12244,-0.04923 0.40172,-0.06194 0.52676,-0.02394 0.0674,0.02051 0.0832,0.01432 0.0832,-0.03262 0,-0.07557 -0.19783,-0.231082 -0.40375,-0.317386 -0.3138,-0.131522 -1.08666,-0.111977 -1.48219,0.03746 l -0.1664,0.06288 0.16878,0.03793 c 0.49259,0.110645 0.7577,0.364863 0.84694,0.812143 0.0463,0.231721 0.0109,0.496237 -0.0783,0.586146 -0.0326,0.03289 -0.002,0.04089 0.15821,0.04143 0.51399,0.002 1.26271,0.224323 1.54296,0.458714 0.2145,0.179415 0.27432,0.294694 0.29354,0.5657 0.0145,0.204919 0.004,0.258442 -0.0755,0.402076 -0.12009,0.215667 -0.2897,0.355273 -0.56392,0.464148 -0.24955,0.09909 -0.57974,0.117882 -0.77655,0.04419 z m -1.23755,-2.183906 c 0.0953,-0.07446 0.10969,-0.107531 0.10969,-0.251985 0,-0.186673 -0.059,-0.279736 -0.22228,-0.350336 -0.21831,-0.09442 -0.52162,-0.02946 -0.63911,0.136895 -0.0347,0.0491 -0.0631,0.152223 -0.0631,0.229098 0,0.349495 0.48857,0.491206 0.81478,0.236328 z m -1.66571,-1.25148 c 0.14923,-0.06457 0.22228,-0.163932 0.22228,-0.302422 0,-0.252187 -0.15996,-0.362731 -0.5249,-0.362731 -0.14157,0 -0.20033,0.01614 -0.26938,0.07387 -0.34994,0.292696 0.12565,0.784332 0.572,0.591283 z M 126.2352,64.55206 c -0.14232,-0.05172 -0.26852,-0.211833 -0.26863,-0.340758 -1.3e-4,-0.14268 0.11392,-0.3029 0.25865,-0.36337 0.26338,-0.110047 0.53512,-0.04621 0.64768,0.152189 0.057,0.100435 0.0599,0.135274 0.0215,0.255315 -0.0543,0.169824 -0.0892,0.206701 -0.26774,0.282876 -0.16416,0.07005 -0.23027,0.07237 -0.3915,0.01372 z"
         id="path9-9" /></g><path
       style="display:inline;fill:#000000;stroke-width:0.095865"
       d="m 142.23218,359.43027 c 0.15554,0.0527 0.27434,0.21152 0.27418,0.36675 -2.1e-4,0.37894 -0.43266,0.55904 -0.77243,0.3218 -0.096,-0.067 -0.12604,-0.11506 -0.14085,-0.22495 -0.0453,-0.33573 0.29265,-0.58082 0.6391,-0.4636 z m 0.8475,0.91094 c 0.16353,0.0612 0.33825,0.23172 0.39081,0.38136 0.10058,0.28635 -0.10287,0.62952 -0.40094,0.67629 -0.38611,0.0606 -0.75069,-0.27367 -0.54573,-0.50031 0.0766,-0.0847 0.0697,-0.10644 -0.0337,-0.10644 -0.17356,0 -0.28565,0.24529 -0.20523,0.44911 0.17214,0.43626 0.87664,0.6314 1.77186,0.4908 0.43974,-0.0691 0.82098,-0.0477 1.08634,0.0609 0.38285,0.15667 0.61435,0.45434 0.64661,0.83146 0.0158,0.18437 0.0239,0.20296 0.0684,0.15514 0.12169,-0.13093 0.20901,-0.34178 0.21959,-0.53024 0.0136,-0.24234 0.0464,-0.27646 0.21627,-0.22508 0.10966,0.0332 0.15519,0.0295 0.34203,-0.0276 0.57218,-0.17491 0.6408,-0.17941 0.6408,-0.042 0,0.0918 -0.2277,0.51891 -0.29523,0.55381 -0.0294,0.0151 -0.004,0.0511 0.0796,0.10962 0.12015,0.0849 0.12177,0.0892 0.0655,0.17447 -0.0512,0.0776 -0.0761,0.0866 -0.22187,0.0807 -0.25752,-0.0105 -0.56339,0.0513 -0.79362,0.16045 l -0.21128,0.10016 0.32959,0.0157 c 0.21518,0.0103 0.38678,0.0372 0.49432,0.0775 0.24778,0.093 0.49803,0.2958 0.61301,0.49677 0.12692,0.22184 0.1553,0.57065 0.0899,1.1046 -0.0391,0.31931 -0.0374,0.40298 0.0122,0.59901 0.0976,0.38579 0.33568,0.55876 0.77107,0.56015 0.18688,5.2e-4 0.22637,-0.0107 0.33281,-0.095 0.087,-0.0689 0.10011,-0.0899 0.0468,-0.0752 -0.27258,0.0755 -0.50704,0.0256 -0.63653,-0.13534 -0.16267,-0.20217 -0.0767,-0.45188 0.21215,-0.61598 0.10824,-0.0615 0.16409,-0.0712 0.35355,-0.0615 0.27989,0.0144 0.41517,0.0952 0.55963,0.33405 0.37289,0.61666 -0.26873,1.33045 -1.09085,1.21356 -0.58611,-0.0833 -0.96629,-0.49579 -1.17631,-1.27618 -0.0525,-0.1952 -0.10187,-0.36028 -0.10964,-0.36684 -0.008,-0.007 -0.0578,0.012 -0.11116,0.0413 -0.16053,0.088 -0.58513,0.0985 -0.82974,0.0205 -0.3721,-0.11859 -0.62607,-0.39211 -0.62782,-0.67617 -4.4e-4,-0.0723 -0.0168,-0.13145 -0.0362,-0.13145 -0.0621,0 -0.21862,0.25763 -0.28181,0.46392 -0.12075,0.39423 -0.0183,0.83136 0.25913,1.10573 0.1511,0.14943 0.20601,0.13281 0.20601,-0.0624 0,-0.18335 0.0853,-0.34415 0.23065,-0.43493 0.1194,-0.0746 0.38808,-0.10039 0.55758,-0.0536 0.32538,0.0898 0.53212,0.46292 0.41312,0.74555 -0.0946,0.22475 -0.23081,0.36151 -0.44879,0.45071 -0.17697,0.0724 -0.23151,0.08 -0.48521,0.0673 -0.33179,-0.0165 -0.5153,-0.0838 -0.71454,-0.2616 -0.32635,-0.29131 -0.47477,-0.61325 -0.51097,-1.10834 l -0.0249,-0.34022 -0.0621,0.17011 c -0.0919,0.25189 -0.17978,0.80473 -0.15515,0.97637 0.0119,0.0825 0.0566,0.21828 0.0996,0.30173 0.0994,0.19334 0.0647,0.24941 -0.16243,0.26207 -0.12383,0.007 -0.18964,-0.007 -0.26534,-0.057 -0.13375,-0.088 -0.24577,-0.27788 -0.27162,-0.46045 l -0.021,-0.14841 -0.10879,0.17372 c -0.23022,0.36762 -0.47679,0.50263 -0.95506,0.52292 -0.56574,0.024 -0.72233,-0.0928 -0.71696,-0.53477 0.004,-0.37779 0.21098,-0.68566 0.57404,-0.85634 0.0789,-0.0371 0.14351,-0.0772 0.14351,-0.0892 0,-0.012 -0.0788,-0.0316 -0.17516,-0.0437 -0.43112,-0.0541 -0.63098,-0.28459 -0.47102,-0.54331 0.0685,-0.11072 0.14658,-0.11536 0.42431,-0.0251 0.26407,0.0858 0.8519,0.11325 1.16525,0.0545 0.1218,-0.0229 0.24288,-0.0399 0.26905,-0.0379 0.0262,0.002 0.10939,-0.0222 0.1849,-0.0537 l 0.1373,-0.0574 -0.38098,-0.001 c -0.8356,-0.003 -1.41389,-0.22399 -1.65283,-0.63246 -0.25992,-0.44433 -0.0997,-0.91299 0.37615,-1.10006 0.24067,-0.0946 0.64211,-0.0812 0.83229,0.0278 0.20113,0.11527 0.30127,0.26058 0.31807,0.46153 0.0121,0.14564 -9e-5,0.19309 -0.0732,0.2832 -0.0483,0.0595 -0.13662,0.12786 -0.19623,0.15183 -0.12244,0.0492 -0.40172,0.0619 -0.52676,0.0239 -0.0674,-0.0205 -0.0832,-0.0143 -0.0832,0.0326 0,0.0756 0.19783,0.23109 0.40375,0.31739 0.3138,0.13152 1.08666,0.11198 1.48219,-0.0375 l 0.1664,-0.0629 -0.16878,-0.0379 c -0.49259,-0.11064 -0.7577,-0.36486 -0.84694,-0.81214 -0.0463,-0.23172 -0.0109,-0.49624 0.0783,-0.58615 0.0326,-0.0329 0.002,-0.0409 -0.15821,-0.0414 -0.51399,-0.002 -1.26271,-0.22432 -1.54296,-0.45871 -0.2145,-0.17942 -0.27432,-0.2947 -0.29354,-0.5657 -0.0145,-0.20492 -0.004,-0.25844 0.0755,-0.40208 0.12009,-0.21567 0.2897,-0.35527 0.56392,-0.46415 0.24955,-0.0991 0.57974,-0.11788 0.77655,-0.0442 z m 1.23755,2.1839 c -0.0953,0.0745 -0.10969,0.10753 -0.10969,0.25199 0,0.18667 0.059,0.27973 0.22228,0.35033 0.21831,0.0944 0.52162,0.0295 0.63911,-0.13689 0.0347,-0.0491 0.0631,-0.15223 0.0631,-0.2291 0,-0.3495 -0.48857,-0.49121 -0.81478,-0.23633 z m 1.66571,1.25148 c -0.14923,0.0646 -0.22228,0.16393 -0.22228,0.30242 0,0.25219 0.15996,0.36273 0.5249,0.36273 0.14157,0 0.20033,-0.0161 0.26938,-0.0739 0.34994,-0.29269 -0.12565,-0.78433 -0.572,-0.59128 z m 3.94637,2.07188 c 0.14232,0.0517 0.26852,0.21184 0.26863,0.34076 1.3e-4,0.14268 -0.11392,0.3029 -0.25865,0.36337 -0.26338,0.11005 -0.53512,0.0462 -0.64768,-0.15219 -0.057,-0.10043 -0.0599,-0.13527 -0.0215,-0.25531 0.0543,-0.16983 0.0892,-0.2067 0.26774,-0.28288 0.16416,-0.0701 0.23027,-0.0724 0.3915,-0.0137 z"
       id="path9-9-2-0" /><path
       style="display:inline;fill:#000000;stroke-width:0.095865"
       d="m 165.70712,359.89435 c -0.15554,0.0527 -0.27434,0.21152 -0.27418,0.36675 2.1e-4,0.37894 0.43266,0.55904 0.77243,0.3218 0.096,-0.067 0.12604,-0.11506 0.14085,-0.22495 0.0453,-0.33573 -0.29265,-0.58082 -0.6391,-0.4636 z m -0.8475,0.91094 c -0.16353,0.0612 -0.33825,0.23172 -0.39081,0.38136 -0.10058,0.28635 0.10287,0.62952 0.40094,0.67629 0.38611,0.0606 0.75069,-0.27367 0.54573,-0.50031 -0.0766,-0.0847 -0.0697,-0.10644 0.0337,-0.10644 0.17356,0 0.28565,0.24529 0.20523,0.44911 -0.17214,0.43626 -0.87664,0.6314 -1.77186,0.4908 -0.43974,-0.0691 -0.82098,-0.0477 -1.08634,0.0609 -0.38285,0.15667 -0.61435,0.45434 -0.64661,0.83146 -0.0158,0.18437 -0.0239,0.20296 -0.0684,0.15514 -0.12169,-0.13093 -0.20901,-0.34178 -0.21959,-0.53024 -0.0136,-0.24234 -0.0464,-0.27646 -0.21627,-0.22508 -0.10966,0.0332 -0.15519,0.0295 -0.34203,-0.0276 -0.57218,-0.17491 -0.6408,-0.17941 -0.6408,-0.042 0,0.0918 0.2277,0.51891 0.29523,0.55381 0.0294,0.0151 0.004,0.0511 -0.0796,0.10962 -0.12015,0.0849 -0.12177,0.0892 -0.0655,0.17447 0.0512,0.0776 0.0761,0.0866 0.22187,0.0807 0.25752,-0.0105 0.56339,0.0513 0.79362,0.16045 l 0.21128,0.10016 -0.32959,0.0157 c -0.21518,0.0103 -0.38678,0.0372 -0.49432,0.0775 -0.24778,0.093 -0.49803,0.2958 -0.61301,0.49677 -0.12692,0.22184 -0.1553,0.57065 -0.0899,1.1046 0.0391,0.31931 0.0374,0.40298 -0.0122,0.59901 -0.0976,0.38579 -0.33568,0.55876 -0.77107,0.56015 -0.18688,5.2e-4 -0.22637,-0.0107 -0.33281,-0.095 -0.087,-0.0689 -0.10011,-0.0899 -0.0468,-0.0752 0.27258,0.0755 0.50704,0.0256 0.63653,-0.13534 0.16267,-0.20217 0.0767,-0.45188 -0.21215,-0.61598 -0.10824,-0.0615 -0.16409,-0.0712 -0.35355,-0.0615 -0.27989,0.0144 -0.41517,0.0952 -0.55963,0.33405 -0.37289,0.61666 0.26873,1.33045 1.09085,1.21356 0.58611,-0.0833 0.96629,-0.49579 1.17631,-1.27618 0.0525,-0.1952 0.10187,-0.36028 0.10964,-0.36684 0.008,-0.007 0.0578,0.012 0.11116,0.0413 0.16053,0.088 0.58513,0.0985 0.82974,0.0205 0.3721,-0.11859 0.62607,-0.39211 0.62782,-0.67617 4.4e-4,-0.0723 0.0168,-0.13145 0.0362,-0.13145 0.0621,0 0.21862,0.25763 0.28181,0.46392 0.12075,0.39423 0.0183,0.83136 -0.25913,1.10573 -0.1511,0.14943 -0.20601,0.13281 -0.20601,-0.0624 0,-0.18335 -0.0853,-0.34415 -0.23065,-0.43493 -0.1194,-0.0746 -0.38808,-0.10039 -0.55758,-0.0536 -0.32538,0.0898 -0.53212,0.46292 -0.41312,0.74555 0.0946,0.22475 0.23081,0.36151 0.44879,0.45071 0.17697,0.0724 0.23151,0.08 0.48521,0.0673 0.33179,-0.0165 0.5153,-0.0838 0.71454,-0.2616 0.32635,-0.29131 0.47477,-0.61325 0.51097,-1.10834 l 0.0249,-0.34022 0.0621,0.17011 c 0.0919,0.25189 0.17978,0.80473 0.15515,0.97637 -0.0119,0.0825 -0.0566,0.21828 -0.0996,0.30173 -0.0994,0.19334 -0.0647,0.24941 0.16243,0.26207 0.12383,0.007 0.18964,-0.007 0.26534,-0.057 0.13375,-0.088 0.24577,-0.27788 0.27162,-0.46045 l 0.021,-0.14841 0.10879,0.17372 c 0.23022,0.36762 0.47679,0.50263 0.95506,0.52292 0.56574,0.024 0.72233,-0.0928 0.71696,-0.53477 -0.004,-0.37779 -0.21098,-0.68566 -0.57404,-0.85634 -0.0789,-0.0371 -0.14351,-0.0772 -0.14351,-0.0892 0,-0.012 0.0788,-0.0316 0.17516,-0.0437 0.43112,-0.0541 0.63098,-0.28459 0.47102,-0.54331 -0.0685,-0.11072 -0.14658,-0.11536 -0.42431,-0.0251 -0.26407,0.0858 -0.8519,0.11325 -1.16525,0.0545 -0.1218,-0.0229 -0.24288,-0.0399 -0.26905,-0.0379 -0.0262,0.002 -0.10939,-0.0222 -0.1849,-0.0537 l -0.1373,-0.0574 0.38098,-10e-4 c 0.8356,-0.003 1.41389,-0.22399 1.65283,-0.63246 0.25992,-0.44433 0.0997,-0.91299 -0.37615,-1.10006 -0.24067,-0.0946 -0.64211,-0.0812 -0.83229,0.0278 -0.20113,0.11527 -0.30127,0.26058 -0.31807,0.46153 -0.0121,0.14564 9e-5,0.19309 0.0732,0.2832 0.0483,0.0595 0.13662,0.12786 0.19623,0.15183 0.12244,0.0492 0.40172,0.0619 0.52676,0.0239 0.0674,-0.0205 0.0832,-0.0143 0.0832,0.0326 0,0.0756 -0.19783,0.23109 -0.40375,0.31739 -0.3138,0.13152 -1.08666,0.11198 -1.48219,-0.0375 l -0.1664,-0.0629 0.16878,-0.0379 c 0.49259,-0.11064 0.7577,-0.36486 0.84694,-0.81214 0.0463,-0.23172 0.0109,-0.49624 -0.0783,-0.58615 -0.0326,-0.0329 -0.002,-0.0409 0.15821,-0.0414 0.51399,-0.002 1.26271,-0.22432 1.54296,-0.45871 0.2145,-0.17942 0.27432,-0.2947 0.29354,-0.5657 0.0145,-0.20492 0.004,-0.25844 -0.0755,-0.40208 -0.12009,-0.21567 -0.2897,-0.35527 -0.56392,-0.46415 -0.24955,-0.0991 -0.57974,-0.11788 -0.77655,-0.0442 z m -1.23755,2.1839 c 0.0953,0.0745 0.10969,0.10753 0.10969,0.25199 0,0.18667 -0.059,0.27973 -0.22228,0.35033 -0.21831,0.0944 -0.52162,0.0295 -0.63911,-0.13689 -0.0347,-0.0491 -0.0631,-0.15223 -0.0631,-0.2291 0,-0.3495 0.48857,-0.49121 0.81478,-0.23633 z m -1.66571,1.25148 c 0.14923,0.0646 0.22228,0.16393 0.22228,0.30242 0,0.25219 -0.15996,0.36273 -0.5249,0.36273 -0.14157,0 -0.20033,-0.0161 -0.26938,-0.0739 -0.34994,-0.29269 0.12565,-0.78433 0.572,-0.59128 z m -3.94637,2.07188 c -0.14232,0.0517 -0.26852,0.21184 -0.26863,0.34076 -1.3e-4,0.14268 0.11392,0.3029 0.25865,0.36337 0.26338,0.11005 0.53512,0.0462 0.64768,-0.15219 0.057,-0.10043 0.0599,-0.13527 0.0215,-0.25531 -0.0543,-0.16983 -0.0892,-0.2067 -0.26774,-0.28288 -0.16416,-0.0701 -0.23027,-0.0724 -0.3915,-0.0137 z"
       id="path9-9-2" /><path
       style="display:inline;fill:#000000;stroke-width:0.095865"
       d="m 141.76811,353.16884 c 0.15554,-0.0527 0.27434,-0.21152 0.27418,-0.36675 -2.1e-4,-0.37894 -0.43266,-0.55904 -0.77243,-0.3218 -0.096,0.067 -0.12604,0.11507 -0.14085,0.22495 -0.0453,0.33573 0.29265,0.58083 0.6391,0.4636 z m 0.8475,-0.91093 c 0.16353,-0.0612 0.33825,-0.23173 0.39081,-0.38137 0.10058,-0.28635 -0.10287,-0.62952 -0.40094,-0.67629 -0.38611,-0.0606 -0.75069,0.27367 -0.54573,0.50032 0.0766,0.0847 0.0697,0.10643 -0.0337,0.10643 -0.17356,0 -0.28565,-0.24528 -0.20523,-0.44911 0.17214,-0.43625 0.87664,-0.6314 1.77186,-0.4908 0.43974,0.0691 0.82098,0.0477 1.08634,-0.0609 0.38285,-0.15667 0.61435,-0.45434 0.64661,-0.83145 0.0158,-0.18437 0.0239,-0.20297 0.0684,-0.15514 0.12169,0.13092 0.20901,0.34177 0.21959,0.53023 0.0136,0.24235 0.0464,0.27646 0.21627,0.22508 0.10966,-0.0332 0.15519,-0.0295 0.34203,0.0276 0.57218,0.17491 0.6408,0.17941 0.6408,0.042 0,-0.0918 -0.2277,-0.5189 -0.29523,-0.55381 -0.0294,-0.0151 -0.004,-0.0511 0.0796,-0.10962 0.12015,-0.0849 0.12177,-0.0892 0.0655,-0.17446 -0.0512,-0.0776 -0.0761,-0.0866 -0.22187,-0.0807 -0.25752,0.0105 -0.56339,-0.0513 -0.79362,-0.16046 l -0.21128,-0.10016 0.32959,-0.0157 c 0.21518,-0.0103 0.38678,-0.0372 0.49432,-0.0775 0.24778,-0.093 0.49803,-0.29579 0.61301,-0.49677 0.12692,-0.22183 0.1553,-0.57064 0.0899,-1.1046 -0.0391,-0.3193 -0.0374,-0.40298 0.0122,-0.599 0.0976,-0.3858 0.33568,-0.55876 0.77107,-0.56016 0.18688,-5.2e-4 0.22637,0.0107 0.33281,0.0949 0.087,0.0689 0.10011,0.0899 0.0468,0.0752 -0.27258,-0.0755 -0.50704,-0.0256 -0.63653,0.13534 -0.16267,0.20218 -0.0767,0.45189 0.21215,0.61598 0.10824,0.0615 0.16409,0.0712 0.35355,0.0615 0.27989,-0.0144 0.41517,-0.0952 0.55963,-0.33405 0.37289,-0.61666 -0.26873,-1.33045 -1.09085,-1.21355 -0.58611,0.0833 -0.96629,0.49579 -1.17631,1.27617 -0.0525,0.1952 -0.10187,0.36029 -0.10964,0.36684 -0.008,0.007 -0.0578,-0.012 -0.11116,-0.0413 -0.16053,-0.088 -0.58513,-0.0985 -0.82974,-0.0205 -0.3721,0.11859 -0.62607,0.39211 -0.62782,0.67617 -4.4e-4,0.0723 -0.0168,0.13146 -0.0362,0.13146 -0.0621,0 -0.21862,-0.25764 -0.28181,-0.46393 -0.12075,-0.39423 -0.0183,-0.83136 0.25913,-1.10573 0.1511,-0.14942 0.20601,-0.1328 0.20601,0.0624 0,0.18335 0.0853,0.34416 0.23065,0.43493 0.1194,0.0746 0.38808,0.10039 0.55758,0.0536 0.32538,-0.0898 0.53212,-0.46291 0.41312,-0.74555 -0.0946,-0.22475 -0.23081,-0.36151 -0.44879,-0.45071 -0.17697,-0.0724 -0.23151,-0.08 -0.48521,-0.0673 -0.33179,0.0165 -0.5153,0.0838 -0.71454,0.26161 -0.32635,0.29131 -0.47477,0.61325 -0.51097,1.10833 l -0.0249,0.34022 -0.0621,-0.1701 c -0.0919,-0.2519 -0.17978,-0.80474 -0.15515,-0.97638 0.0119,-0.0825 0.0566,-0.21828 0.0996,-0.30173 0.0994,-0.19334 0.0647,-0.2494 -0.16243,-0.26207 -0.12383,-0.007 -0.18964,0.007 -0.26534,0.057 -0.13375,0.088 -0.24577,0.27789 -0.27162,0.46045 l -0.021,0.14841 -0.10879,-0.17372 c -0.23022,-0.36762 -0.47679,-0.50262 -0.95506,-0.52292 -0.56574,-0.024 -0.72233,0.0928 -0.71696,0.53477 0.004,0.37779 0.21098,0.68567 0.57404,0.85634 0.0789,0.0371 0.14351,0.0772 0.14351,0.0892 0,0.012 -0.0788,0.0316 -0.17516,0.0437 -0.43112,0.0541 -0.63098,0.28459 -0.47102,0.54331 0.0685,0.11072 0.14658,0.11536 0.42431,0.0251 0.26407,-0.0857 0.8519,-0.11325 1.16525,-0.0545 0.1218,0.0229 0.24288,0.0399 0.26905,0.0379 0.0262,-0.002 0.10939,0.0222 0.1849,0.0537 l 0.1373,0.0574 -0.38098,10e-4 c -0.8356,0.003 -1.41389,0.22399 -1.65283,0.63246 -0.25992,0.44433 -0.0997,0.91299 0.37615,1.10006 0.24067,0.0946 0.64211,0.0812 0.83229,-0.0278 0.20113,-0.11526 0.30127,-0.26058 0.31807,-0.46153 0.0121,-0.14564 -9e-5,-0.19309 -0.0732,-0.2832 -0.0483,-0.0595 -0.13662,-0.12786 -0.19623,-0.15183 -0.12244,-0.0492 -0.40172,-0.0619 -0.52676,-0.0239 -0.0674,0.0205 -0.0832,0.0143 -0.0832,-0.0326 0,-0.0756 0.19783,-0.23108 0.40375,-0.31739 0.3138,-0.13152 1.08666,-0.11197 1.48219,0.0375 l 0.1664,0.0629 -0.16878,0.0379 c -0.49259,0.11065 -0.7577,0.36487 -0.84694,0.81215 -0.0463,0.23172 -0.0109,0.49623 0.0783,0.58614 0.0326,0.0329 0.002,0.0409 -0.15821,0.0414 -0.51399,0.002 -1.26271,0.22433 -1.54296,0.45872 -0.2145,0.17941 -0.27432,0.29469 -0.29354,0.5657 -0.0145,0.20492 -0.004,0.25844 0.0755,0.40207 0.12009,0.21567 0.2897,0.35528 0.56392,0.46415 0.24955,0.0991 0.57974,0.11788 0.77655,0.0442 z m 1.23755,-2.18391 c -0.0953,-0.0745 -0.10969,-0.10753 -0.10969,-0.25198 0,-0.18668 0.059,-0.27974 0.22228,-0.35034 0.21831,-0.0944 0.52162,-0.0295 0.63911,0.1369 0.0347,0.0491 0.0631,0.15222 0.0631,0.22909 0,0.3495 -0.48857,0.49121 -0.81478,0.23633 z m 1.66571,-1.25148 c -0.14923,-0.0646 -0.22228,-0.16393 -0.22228,-0.30242 0,-0.25219 0.15996,-0.36273 0.5249,-0.36273 0.14157,0 0.20033,0.0161 0.26938,0.0739 0.34994,0.29269 -0.12565,0.78433 -0.572,0.59128 z m 3.94637,-2.07188 c 0.14232,-0.0517 0.26852,-0.21183 0.26863,-0.34076 1.3e-4,-0.14268 -0.11392,-0.3029 -0.25865,-0.36337 -0.26338,-0.11005 -0.53512,-0.0462 -0.64768,0.15219 -0.057,0.10044 -0.0599,0.13527 -0.0215,0.25532 0.0543,0.16982 0.0892,0.2067 0.26774,0.28287 0.16416,0.0701 0.23027,0.0724 0.3915,0.0137 z"
       id="path9-9-6" /></g><g
     inkscape:groupmode="layer"
     id="layer10"
     inkscape:label="frame"><path
       style="fill:#000000;stroke-width:0.216375"
       d="m 222.74907,307.31295 c -0.0814,0.10412 -0.31221,0.27384 -0.51282,0.37714 -0.39335,0.20256 -0.92458,0.244 -1.71787,0.13402 l -0.38809,-0.0538 0.25827,0.21395 c 0.71919,0.59573 1.41879,0.76855 1.87153,0.46234 0.19312,-0.13063 0.1943,-0.13607 0.0218,-0.0995 -0.1065,0.0226 -0.22505,-7.5e-4 -0.28457,-0.0569 -0.0817,-0.0765 -0.056,-0.12388 0.12928,-0.23714 0.27678,-0.16933 0.28986,-0.17023 0.53491,-0.0367 0.50809,0.27682 -0.0903,0.90501 -0.86204,0.90501 h -0.28404 l 0.32302,0.17074 c 0.33772,0.1785 0.4103,0.36231 0.19736,0.49978 -0.20023,0.12926 -0.40826,0.0565 -0.70534,-0.24639 l -0.27665,-0.28212 -0.0595,0.24645 c -0.1272,0.52736 -0.51237,0.85288 -0.96008,0.81137 -0.33298,-0.0309 -0.42563,-0.26411 -0.19536,-0.49182 0.20689,-0.20458 0.34772,-0.19218 0.42616,0.0375 0.0531,0.15509 0.0633,0.15004 0.20414,-0.10002 0.22634,-0.40177 0.0519,-0.85752 -0.55657,-1.45335 l -0.17183,-0.16829 0.0538,0.41648 c 0.0935,0.72464 -0.28308,1.37915 -0.95082,1.65315 l -0.36056,0.14795 -8.26545,-0.0199 c -4.54603,-0.011 -8.36284,-0.0367 -8.48186,-0.0571 -0.119,-0.0204 -0.31837,-0.11089 -0.44306,-0.20098 -0.17544,-0.12675 -0.23723,-0.14242 -0.27334,-0.0693 -0.0255,0.052 -0.18268,0.14476 -0.34895,0.20613 -0.27504,0.10153 -1.0505,0.11146 -8.59797,0.11011 -7.9624,-0.002 -8.31021,-0.007 -8.65778,-0.12936 -0.22783,-0.0805 -0.45248,-0.23411 -0.60584,-0.41436 -0.22605,-0.2657 -0.24374,-0.33482 -0.24374,-0.9527 v -0.66622 l -0.28006,0.25737 c -0.5436,0.49957 -0.68203,0.96252 -0.41011,1.37152 0.13183,0.19829 0.27247,0.27929 0.18815,0.10837 -0.0667,-0.13521 0.0759,-0.2717 0.23439,-0.22439 0.17981,0.0537 0.34886,0.34257 0.28097,0.48018 -0.0785,0.15901 -0.28777,0.19658 -0.5767,0.10349 -0.31685,-0.10209 -0.57846,-0.41889 -0.65554,-0.79388 -0.032,-0.15565 -0.0862,-0.283 -0.12053,-0.283 -0.0343,0 -0.13057,0.1177 -0.21397,0.26155 -0.1763,0.30412 -0.49029,0.44834 -0.7451,0.34228 -0.0925,-0.0385 -0.16816,-0.12425 -0.16816,-0.19054 0,-0.13294 0.34136,-0.41329 0.50324,-0.41329 0.0564,0 0.10258,-0.0227 0.10255,-0.0505 -3e-5,-0.0278 -0.19465,-0.0527 -0.43249,-0.0554 -0.50052,-0.006 -0.82044,-0.1865 -0.91358,-0.51633 -0.0808,-0.28621 0.20472,-0.50938 0.53472,-0.41793 0.31222,0.0865 0.46707,0.28126 0.29211,0.36733 -0.0714,0.0351 -0.20771,0.0478 -0.30292,0.0282 -0.15465,-0.0319 -0.15132,-0.0209 0.0313,0.10252 0.41605,0.2814 1.18829,0.1195 1.91614,-0.40171 0.32713,-0.23425 0.35483,-0.27185 0.1731,-0.23491 -0.11901,0.0242 -0.48901,0.0576 -0.82222,0.0743 -0.75059,0.0375 -1.25503,-0.1331 -1.62797,-0.55068 l -0.24567,-0.27506 0.0158,-2.18215 c 0.009,-1.20018 0.0408,-3.4862 0.0713,-5.08005 0.0497,-2.59697 0.0712,-2.91649 0.20639,-3.07686 0.14411,-0.17095 0.1436,-0.18888 -0.0116,-0.40082 -0.15362,-0.20977 -0.16521,-0.49522 -0.21253,-5.23726 -0.0474,-4.75315 -0.0418,-5.02964 0.10748,-5.28748 0.37706,-0.65125 1.41464,-0.94157 2.38916,-0.66848 0.1904,0.0534 0.36404,0.0975 0.38585,0.098 0.12111,0.003 -0.78281,-0.63639 -1.05316,-0.74507 -0.38213,-0.15362 -0.92162,-0.16774 -1.15533,-0.0303 -0.14114,0.083 -0.14548,0.0992 -0.0272,0.10099 0.0775,0.001 0.18995,0.0481 0.24995,0.10438 0.0894,0.0838 0.0804,0.12694 -0.0498,0.23881 -0.33853,0.29097 -0.8748,0.005 -0.73782,-0.39325 0.0849,-0.24702 0.46106,-0.44065 0.93894,-0.48338 l 0.40991,-0.0366 -0.32456,-0.1492 c -0.34399,-0.15814 -0.41898,-0.34559 -0.19586,-0.48963 0.20036,-0.12934 0.54375,-0.0228 0.75877,0.23542 0.23121,0.27765 0.32422,0.29619 0.32422,0.0646 0,-0.26231 0.22142,-0.61481 0.46379,-0.73833 0.45489,-0.23184 0.90595,0.0104 0.65838,0.3535 -0.18646,0.25845 -0.40967,0.27725 -0.44578,0.0376 l -0.0285,-0.18913 -0.12334,0.16831 c -0.28696,0.39156 -0.10663,0.94423 0.50457,1.54638 l 0.16881,0.16631 -0.0477,-0.54074 c -0.057,-0.64616 0.12371,-1.04982 0.59205,-1.32291 0.38949,-0.22712 0.49258,-0.24627 1.54795,-0.28753 1.79554,-0.0702 15.44249,-0.0953 15.764,-0.0289 0.17402,0.0359 0.40489,0.12099 0.51304,0.18913 0.19299,0.12154 0.20576,0.12015 0.67895,-0.0739 l 0.48231,-0.19776 8.13562,0.0249 c 8.04095,0.0246 8.14029,0.0265 8.5345,0.16598 0.71671,0.25356 1.09172,0.84904 1.01107,1.60554 -0.0216,0.20308 -0.0165,0.36918 0.011,0.3691 0.0791,-1.9e-4 0.59458,-0.61751 0.70016,-0.83836 0.10975,-0.22954 0.038,-0.66846 -0.12667,-0.77475 -0.0851,-0.055 -0.12407,-0.0382 -0.16019,0.0693 -0.0666,0.19803 -0.33233,0.14241 -0.48228,-0.10096 -0.19485,-0.31619 0.0648,-0.50951 0.55582,-0.41368 0.23396,0.0457 0.59488,0.48636 0.69095,0.84365 l 0.0625,0.23247 0.1663,-0.25214 c 0.19385,-0.29392 0.5292,-0.44448 0.74934,-0.33646 0.24504,0.12022 0.1758,0.37129 -0.14932,0.54173 l -0.2941,0.15416 h 0.32003 c 0.32215,0 0.81958,0.15678 0.93757,0.29551 0.11044,0.12982 0.0717,0.43125 -0.0698,0.54119 -0.17303,0.13458 -0.50518,0.13599 -0.67634,0.003 -0.16437,-0.12784 -0.09,-0.301 0.12924,-0.301 0.09,0 0.16383,-0.027 0.16383,-0.0601 0,-0.16557 -0.74892,-0.19118 -1.15948,-0.0397 -0.15227,0.0562 -0.46975,0.23962 -0.70547,0.40757 l -0.42861,0.30537 0.3462,-0.0541 c 0.19041,-0.0297 0.6074,-0.0532 0.9267,-0.0521 0.5033,0.001 0.62991,0.029 0.95203,0.20488 0.65216,0.35602 0.61611,0.0176 0.59783,5.61317 l -0.0163,5.01856 -0.20775,0.3321 -0.20773,0.3321 0.18932,0.20646 c 0.22399,0.24425 0.21976,0.13837 0.25375,6.32579 0.0205,3.70511 0.0102,4.04774 -0.12592,4.22169 z m -0.33749,-0.83818 c -0.0946,-0.16159 -0.40358,-0.31353 -0.63746,-0.31353 -0.15866,0 -0.39159,0.18593 -0.39159,0.31257 0,0.0705 0.0719,0.0945 0.23801,0.0794 0.20105,-0.0183 0.23803,0.003 0.23803,0.13931 0,0.23776 -0.24823,0.33492 -0.53477,0.20931 -0.54342,-0.23827 -0.41688,-0.89225 0.18981,-0.98078 0.17125,-0.025 0.45167,-0.0278 0.62323,-0.006 l 0.31188,0.0394 -0.057,-1.7251 c -0.0315,-0.94881 -0.057,-2.94304 -0.057,-4.43161 0,-2.66455 -0.003,-2.70934 -0.18544,-2.88986 l -0.18542,-0.18336 -0.18242,0.22398 c -0.17906,0.2199 -0.18324,0.30023 -0.22889,4.39867 -0.0255,2.29608 -0.055,4.18832 -0.0648,4.20498 -0.0102,0.0167 -0.0671,-0.008 -0.12661,-0.0538 -0.0837,-0.0651 -0.11335,-1.03749 -0.13107,-4.30517 -0.0214,-3.93868 -0.0127,-4.23682 0.13158,-4.45667 0.14996,-0.2288 0.14937,-0.24244 -0.0205,-0.47125 -0.17106,-0.23056 -0.17423,-0.32453 -0.14762,-4.37586 0.0149,-2.27712 0.0467,-4.19324 0.0708,-4.25804 0.0605,-0.16345 0.17462,-0.14722 0.23695,0.0336 0.0287,0.0833 0.0527,1.93224 0.0536,4.10874 7.7e-4,3.30182 0.022,3.99593 0.12658,4.19072 0.14442,0.26886 0.33629,0.29954 0.51284,0.082 0.1014,-0.12492 0.13368,-0.94004 0.18418,-4.65128 l 0.0613,-4.49981 -0.17646,0.0734 c -0.45373,0.18888 -1.08697,0.0319 -1.22985,-0.3048 -0.17776,-0.41899 0.27853,-0.8109 0.68578,-0.58902 0.10074,0.0549 0.18313,0.1619 0.18313,0.23788 0,0.11403 -0.0381,0.13069 -0.21827,0.0955 -0.15355,-0.03 -0.23343,-0.0119 -0.26934,0.0609 -0.15641,0.31702 0.61361,0.42346 0.91406,0.12636 0.37888,-0.37465 0.1402,-0.94149 -0.4815,-1.14354 -0.62815,-0.20415 -1.5181,-0.0537 -1.62401,0.27457 -0.0831,0.25748 -0.42984,0.21634 -0.46982,-0.0557 l -0.0283,-0.19326 -0.4096,0.34474 c -0.41703,0.35101 -0.66584,0.42912 -0.75985,0.23856 -0.0344,-0.0697 0.0854,-0.21503 0.34892,-0.42307 0.22071,-0.17429 0.40129,-0.3313 0.40129,-0.3489 0,-0.0176 -0.12659,-0.0317 -0.28128,-0.0313 -0.22613,5.7e-4 -0.28674,-0.0291 -0.30895,-0.15082 -0.0209,-0.1137 0.0153,-0.15147 0.14517,-0.15147 0.52446,0 0.71137,-0.79306 0.31187,-1.32331 -0.39267,-0.52117 -1.25622,-0.69393 -1.65704,-0.33148 -0.3433,0.31044 -0.19088,0.84693 0.24065,0.84693 0.19636,0 0.30726,-0.13346 0.16695,-0.20092 -0.13507,-0.0649 0.032,-0.33764 0.20664,-0.33764 0.3232,0 0.44157,0.44897 0.17806,0.67544 -0.24126,0.20737 -0.85477,0.18248 -1.12666,-0.0457 -0.25028,-0.21006 -0.28449,-0.59505 -0.0803,-0.90234 l 0.13207,-0.19862 -6.2987,-0.0168 c -7.74873,-0.0207 -8.71333,-0.007 -9.03866,0.12331 -0.27787,0.11177 -0.32637,0.32774 -0.0945,0.42086 0.37457,0.15042 1.23341,0.16797 7.46486,0.15252 5.75468,-0.0143 6.64367,-0.003 6.79401,0.0839 0.0951,0.0552 0.14644,0.12099 0.11403,0.1462 -0.0325,0.0252 -3.24547,0.0504 -7.14017,0.056 -6.55667,0.01 -7.1049,0.001 -7.39992,-0.10663 -0.17524,-0.0643 -0.3432,-0.14771 -0.37323,-0.18551 -0.0335,-0.0421 -0.21182,0.003 -0.4603,0.11679 l -0.40572,0.18552 h -7.01049 c -3.85577,0 -7.08518,-0.0237 -7.17644,-0.0527 -0.13034,-0.0414 -0.14334,-0.0702 -0.0606,-0.13464 0.0806,-0.0627 1.70972,-0.0861 6.93427,-0.0995 7.1047,-0.0182 7.34372,-0.0277 7.56301,-0.301 0.0724,-0.09 0.0586,-0.14371 -0.0595,-0.23563 -0.14373,-0.11182 -0.61987,-0.12016 -7.8096,-0.13698 -4.21111,-0.01 -7.65517,0.005 -7.65348,0.0337 0.002,0.0283 0.0587,0.1273 0.12675,0.21987 0.21999,0.29932 0.16295,0.59359 -0.16444,0.84824 -0.34673,0.2697 -0.69212,0.2995 -1.03558,0.0894 -0.1622,-0.0992 -0.22804,-0.20227 -0.22804,-0.3568 0,-0.34991 0.28263,-0.486 0.56049,-0.26986 0.12911,0.10044 0.12868,0.11881 -0.005,0.23422 -0.13433,0.11546 -0.13464,0.12854 -0.004,0.16756 0.24574,0.0734 0.55179,-0.0283 0.60779,-0.20188 0.0676,-0.20963 -0.005,-0.36427 -0.27887,-0.595 -0.57305,-0.48249 -1.62812,0.008 -1.80121,0.83808 -0.0695,0.33312 0.15015,0.69716 0.45675,0.75701 0.44676,0.0872 0.46406,0.37405 0.0226,0.37405 -0.13772,0 -0.2504,0.0241 -0.2504,0.0537 0,0.0295 0.15579,0.17198 0.3462,0.3166 0.36998,0.28101 0.42905,0.41708 0.2095,0.48261 -0.091,0.0271 -0.29147,-0.0781 -0.59944,-0.31466 l -0.46274,-0.35547 -0.0281,0.2284 c -0.0212,0.17257 -0.0728,0.23337 -0.21106,0.24873 -0.14386,0.016 -0.19449,-0.0243 -0.23662,-0.18812 -0.15051,-0.58541 -1.88455,-0.51099 -2.25534,0.0968 -0.2723,0.44634 -0.0976,0.80709 0.42813,0.88379 0.34305,0.0501 0.55914,-0.0489 0.55914,-0.2561 0,-0.1093 -0.0398,-0.12592 -0.21828,-0.0911 -0.28358,0.0554 -0.40391,-0.1396 -0.16871,-0.27338 0.3637,-0.20685 0.73319,-0.0283 0.73319,0.35421 0,0.45889 -0.63712,0.70899 -1.21169,0.47566 l -0.21638,-0.0879 0.0278,4.48097 c 0.0203,3.27837 0.0553,4.52592 0.13049,4.64845 0.14992,0.24452 0.36979,0.24799 0.52911,0.008 0.11765,-0.17697 0.135,-0.7199 0.13616,-4.26224 7.6e-4,-2.54914 0.033,-4.09698 0.0866,-4.1604 0.21897,-0.25946 0.25636,0.20115 0.27862,3.43336 0.035,5.06959 0.043,4.83752 -0.18054,5.1967 l -0.19263,0.30952 0.18016,0.26886 c 0.17691,0.26398 0.18008,0.3428 0.17545,4.35508 -0.004,3.96697 -0.0326,4.42061 -0.26674,4.30809 -0.0505,-0.0243 -0.0822,-1.62539 -0.0822,-4.14547 0,-3.54877 -0.0179,-4.13289 -0.13204,-4.30456 -0.1553,-0.23359 -0.30236,-0.25249 -0.45784,-0.0588 -0.16963,0.21127 -0.18049,0.44514 -0.22891,4.93043 -0.0445,4.12064 -0.0433,4.16097 0.12595,4.1192 0.69358,-0.17123 1.29869,0.0591 1.29869,0.4944 0,0.38612 -0.46556,0.63115 -0.76163,0.40085 -0.15995,-0.1244 -0.12879,-0.33357 0.0476,-0.31961 0.29246,0.0232 0.36784,-0.005 0.36784,-0.1358 0,-0.16851 -0.30003,-0.29526 -0.57284,-0.24199 -0.79285,0.15477 -0.71994,1.022 0.10857,1.29125 0.34552,0.1123 1.06848,0.12118 1.36312,0.0168 0.11802,-0.0419 0.2609,-0.16301 0.31749,-0.26929 0.18105,-0.33997 0.60418,-0.1843 0.46123,0.16969 -0.0356,0.0882 0.10478,0.008 0.37028,-0.21145 0.31084,-0.2569 0.49142,-0.35343 0.66122,-0.35343 0.31369,0 0.29546,0.0708 -0.1126,0.43759 -0.32378,0.291 -0.45712,0.49886 -0.25887,0.40355 0.13398,-0.0644 0.43198,0.0312 0.43198,0.13864 0,0.0525 -0.13206,0.13846 -0.29345,0.19092 -0.75649,0.24586 -0.56116,1.40004 0.29517,1.74415 0.57405,0.23067 1.23519,-2.5e-4 1.34875,-0.4711 0.09,-0.37314 -0.3794,-0.65165 -0.65808,-0.39046 -0.0863,0.0808 -0.0847,0.12252 0.008,0.20925 0.0982,0.092 0.0906,0.12245 -0.0508,0.20286 -0.21199,0.12058 -0.31473,0.0923 -0.47626,-0.1314 -0.11569,-0.16019 -0.11535,-0.19989 0.003,-0.36487 0.31234,-0.43487 1.14587,-0.43656 1.43418,-0.003 0.13606,0.20464 0.12937,0.58961 -0.0154,0.8829 -0.0543,0.11007 0.36357,0.11552 7.50409,0.0979 4.15885,-0.0103 7.63176,-0.0452 7.7176,-0.0777 0.23019,-0.0871 0.14616,-0.32695 -0.15603,-0.4452 -0.22354,-0.0875 -1.21732,-0.10468 -7.14605,-0.12366 -3.78755,-0.0121 -6.94115,-0.0483 -7.00802,-0.0805 -0.067,-0.0321 -0.0902,-0.0828 -0.052,-0.11259 0.0383,-0.0299 3.2698,-0.0542 7.18112,-0.0542 h 7.11146 l 0.36358,0.15116 0.36358,0.15115 0.3288,-0.15115 0.32881,-0.15116 7.10649,-0.0184 c 6.27689,-0.0162 7.11925,-0.007 7.21583,0.0841 0.0602,0.0564 0.0949,0.10887 0.077,0.11666 -0.0177,0.008 -3.18697,0.0304 -7.04273,0.0505 -7.53425,0.039 -7.49239,0.0369 -7.55541,0.37817 -0.0546,0.29529 0.0101,0.29769 7.9582,0.29769 7.1441,0 7.5315,-0.006 7.46775,-0.11781 -0.15112,-0.26469 -0.13281,-0.65511 0.0408,-0.87151 0.19463,-0.2425 0.65407,-0.35193 1.0379,-0.24725 0.29554,0.0807 0.47855,0.46653 0.31505,0.66435 -0.13843,0.16748 -0.38646,0.17389 -0.51345,0.0132 -0.0767,-0.0971 -0.0642,-0.13545 0.0628,-0.19165 0.15178,-0.0672 0.15088,-0.0745 -0.0202,-0.16771 -0.20761,-0.11309 -0.4659,-0.0384 -0.61466,0.17784 -0.12175,0.17694 0.0839,0.55728 0.38391,0.71021 0.27078,0.138 0.75824,0.097 1.08202,-0.0911 0.33796,-0.19627 0.61126,-0.66038 0.61126,-1.03811 0,-0.41769 -0.10333,-0.56639 -0.47827,-0.68824 -0.21135,-0.0687 -0.28379,-0.12782 -0.24727,-0.20186 0.0521,-0.10558 0.19185,-0.1367 0.50858,-0.11325 0.1317,0.01 0.0728,-0.0662 -0.24982,-0.32076 -0.27862,-0.22001 -0.40453,-0.36965 -0.36998,-0.43968 0.0841,-0.17028 0.21241,-0.12741 0.70613,0.23578 l 0.46483,0.34196 0.0275,-0.2236 c 0.0381,-0.30875 0.30063,-0.34522 0.42864,-0.0596 0.12023,0.26827 0.47051,0.40714 1.02704,0.40714 0.95052,0 1.53388,-0.5339 1.20217,-1.1002 z"
       id="path17" /></g><g
     inkscape:groupmode="layer"
     id="layer11"
     inkscape:label="clasp"><path
       style="fill:#000000;stroke-width:0.111423"
       d="m 143.67128,333.50983 c -0.6382,-0.26829 -1.15727,-1.10449 -1.34285,-2.16331 -0.0786,-0.44875 -0.0704,-1.26352 0.0181,-1.77245 0.17852,-1.02769 0.70017,-2.0908 1.33727,-2.72526 0.13104,-0.13051 0.24421,-0.24435 0.2515,-0.25302 0.099,-0.11786 -0.64076,0.11192 -1.00519,0.3122 -0.68391,0.3759 -1.3071,1.21048 -1.50784,2.01931 -0.033,0.13267 -0.07,0.39723 -0.0825,0.58789 -0.026,0.39894 -0.0552,0.43139 -0.27311,0.30396 -0.15959,-0.0933 -0.34886,-0.3646 -0.44229,-0.63394 -0.0553,-0.15974 -0.0686,-0.2815 -0.069,-0.63537 -3.8e-4,-0.37923 0.011,-0.47382 0.0861,-0.70793 0.17402,-0.54252 0.58974,-1.02158 1.16281,-1.34003 l 0.21181,-0.11771 -0.23825,0.0239 c -0.28618,0.0289 -0.57528,0.14769 -1.08423,0.44578 -0.34894,0.20438 -0.39956,0.22137 -0.61033,0.20509 -0.34114,-0.0264 -0.5664,-0.21408 -0.92623,-0.77177 l -0.2859,-0.44313 0.29159,-0.42984 c 0.34376,-0.50667 0.61497,-0.73948 0.89543,-0.76866 0.19481,-0.0202 0.31951,0.0318 0.90692,0.37707 0.29607,0.17411 0.86198,0.39006 1.02223,0.39006 0.10022,0 0.005,-0.0935 -0.20189,-0.19758 -0.64193,-0.32345 -1.04139,-0.85185 -1.18704,-1.57021 -0.0749,-0.36986 -0.0675,-0.70466 0.0238,-1.05369 0.0631,-0.24145 0.32727,-0.61267 0.4832,-0.67897 0.11198,-0.0476 0.19475,-0.0635 0.19709,-0.0379 7.1e-4,0.007 0.0215,0.18648 0.0462,0.39953 0.17478,1.50194 1.16494,2.61253 2.59731,2.9132 0.0656,0.0138 0.11914,0.0159 0.11914,0.005 0,-0.0109 -0.0767,-0.0755 -0.17022,-0.14312 -0.58094,-0.42079 -1.22642,-1.56133 -1.45213,-2.5659 -0.22488,-1.00082 -0.19581,-1.82552 0.0966,-2.74027 0.20683,-0.64704 0.63103,-1.22708 1.06515,-1.45644 0.21054,-0.11123 0.72136,-0.15075 0.94133,-0.0728 0.41533,0.14714 0.856,0.64763 1.02812,1.16768 0.12359,0.37336 0.18442,0.79592 0.1604,1.11413 -0.066,0.8753 -0.6326,1.73227 -1.14441,1.731 -0.25089,-6e-4 -0.41379,-0.1295 -0.54864,-0.43398 -0.0884,-0.19945 -0.10325,-0.27567 -0.10325,-0.52736 0,-0.67556 0.38801,-1.0906 0.78319,-0.83778 0.16016,0.10246 0.16982,0.0959 0.16982,-0.1144 0,-0.24639 -0.10755,-0.48563 -0.28713,-0.63866 -0.11962,-0.10194 -0.18382,-0.12085 -0.41174,-0.12129 -0.2316,-4.4e-4 -0.29579,0.0188 -0.45117,0.13536 -0.22647,0.16988 -0.44343,0.53232 -0.53842,0.89942 -0.10266,0.39671 -0.10443,1.13647 -0.003,1.51758 0.15755,0.59562 0.51518,1.01681 0.89916,1.05887 0.36206,0.0397 0.668,-0.11914 1.06982,-0.5553 0.24883,-0.27007 0.55189,-0.49098 0.72954,-0.53176 l 0.13718,-0.0316 v -1.25938 c 0,-1.1942 0.003,-1.26407 0.0635,-1.35633 0.0623,-0.0953 0.10589,-0.0973 2.14574,-0.0973 h 2.08218 l 0.21923,0.67363 0.36055,2.04296 v 3.30186 c 0,1.5811 -0.1067,4.70479 -0.48745,6.72462 -0.0207,0.10958 -0.1059,0.0973 -2.17425,0.0973 h -2.11071 l -0.0495,-0.10809 c -0.0413,-0.0904 -0.0495,-0.2955 -0.0495,-1.25287 v -1.14476 l -0.25087,-0.0863 c -0.18334,-0.0631 -0.3223,-0.15338 -0.51621,-0.33537 -0.48802,-0.45799 -0.64381,-0.56992 -0.87942,-0.63178 -0.71268,-0.18711 -1.28395,0.60353 -1.2795,1.7708 0.003,0.6132 0.13335,1.07339 0.41652,1.46319 0.21157,0.29124 0.41179,0.39298 0.7148,0.36322 0.36391,-0.0356 0.57887,-0.30091 0.61233,-0.75522 l 0.0162,-0.22194 -0.10793,0.0422 c -0.0594,0.0234 -0.19483,0.0432 -0.30106,0.0439 -0.16491,0.002 -0.21066,-0.0188 -0.31319,-0.1385 -0.21013,-0.24552 -0.29579,-0.71021 -0.19634,-1.06508 0.0535,-0.19074 0.22606,-0.44831 0.34735,-0.51831 0.0492,-0.0285 0.17374,-0.0518 0.27678,-0.0518 0.66369,0 1.22742,1.07348 1.12029,2.13325 -0.0888,0.87877 -0.55142,1.61062 -1.1559,1.82879 -0.24712,0.0891 -0.65612,0.0896 -0.8672,7.9e-4 z m 4.7891,-3.00856 c 0.13032,-0.0834 0.23218,-0.27693 0.27557,-0.52366 0.0519,-0.29501 0.009,-0.52328 -0.1446,-0.75899 -0.12691,-0.1955 -0.14409,-0.20671 -0.31727,-0.20671 -0.23076,0 -0.36851,0.1221 -0.45836,0.40629 -0.0874,0.27638 -0.085,0.55704 0.007,0.76483 0.15477,0.35164 0.39711,0.47248 0.63821,0.31824 z m 0.009,-3.90311 c 0.48145,-0.34976 0.31346,-1.47726 -0.22009,-1.47726 -0.25973,0 -0.46854,0.31468 -0.49084,0.7397 -0.0111,0.21176 -1.8e-4,0.28732 0.0616,0.42644 0.16186,0.36459 0.41131,0.48411 0.64936,0.31112 z m 0.058,-3.95658 c 0.14901,-0.14128 0.22245,-0.37002 0.22016,-0.68566 -0.003,-0.33523 -0.0803,-0.55555 -0.24124,-0.68202 -0.25325,-0.19907 -0.55416,-0.0477 -0.68635,0.34529 -0.24192,0.71922 0.26086,1.44584 0.70743,1.02239 z"
       id="path11" /></g><metadata
     id="metadata1"><rdf:RDF><cc:Work
         rdf:about=""><dc:title>SVG Image created as tome_pcb-Edge_Cuts.svg date 2025/12/01 14:33:59 </dc:title></cc:Work></rdf:RDF></metadata></svg>
