%TF.GenerationSoftware,KiCad,Pcbnew,10.0.3*%
%TF.CreationDate,2026-05-26T19:37:16+02:00*%
%TF.ProjectId,spell_tome_top,7370656c-6c5f-4746-9f6d-655f746f702e,rev?*%
%TF.SameCoordinates,Original*%
%TF.FileFunction,Profile,NP*%
%FSLAX46Y46*%
G04 Gerber Fmt 4.6, Leading zero omitted, Abs format (unit mm)*
G04 Created by KiCad (PCBNEW 10.0.3) date 2026-05-26 19:37:16*
%MOMM*%
%LPD*%
G01*
G04 APERTURE LIST*
%TA.AperFunction,Profile*%
%ADD10C,0.028204*%
%TD*%
%TA.AperFunction,Profile*%
%ADD11C,0.050000*%
%TD*%
%TA.AperFunction,Profile*%
%ADD12C,0.100000*%
%TD*%
G04 APERTURE END LIST*
D10*
X138098469Y-58655771D02*
X138169079Y-58666816D01*
X138231353Y-58684901D01*
X138285820Y-58709651D01*
X138333011Y-58740693D01*
X138373455Y-58777654D01*
X138407684Y-58820160D01*
X138436227Y-58867837D01*
X138459615Y-58920312D01*
X138478378Y-58977212D01*
X138493046Y-59038162D01*
X138504150Y-59102789D01*
X138517785Y-59241580D01*
X138523526Y-59390596D01*
X138528294Y-59707351D01*
X138535806Y-59869113D01*
X138552392Y-60029145D01*
X138565414Y-60107580D01*
X138582295Y-60184461D01*
X138603566Y-60259415D01*
X138629757Y-60332070D01*
X138661399Y-60402051D01*
X138699021Y-60468985D01*
X138743154Y-60532498D01*
X138794328Y-60592216D01*
X138828005Y-60619434D01*
X138873665Y-60643553D01*
X138997941Y-60683283D01*
X139161168Y-60712974D01*
X139357364Y-60734196D01*
X139580540Y-60748518D01*
X139824712Y-60757511D01*
X140352102Y-60765781D01*
X140891649Y-60771560D01*
X141395469Y-60787404D01*
X141619017Y-60803022D01*
X141815676Y-60825865D01*
X141979461Y-60857500D01*
X142104387Y-60899497D01*
X142153866Y-60924254D01*
X142198929Y-60950771D01*
X142239762Y-60978973D01*
X142276552Y-61008787D01*
X142309485Y-61040136D01*
X142338748Y-61072946D01*
X142364528Y-61107142D01*
X142387011Y-61142649D01*
X142406383Y-61179392D01*
X142422832Y-61217296D01*
X142436544Y-61256286D01*
X142447706Y-61296287D01*
X142456504Y-61337224D01*
X142463125Y-61379022D01*
X142470582Y-61464902D01*
X142471571Y-61553327D01*
X142467583Y-61643697D01*
X142450653Y-61827875D01*
X142431736Y-62012636D01*
X142425265Y-62103737D01*
X142422776Y-62193185D01*
X142422776Y-95185499D01*
X143844285Y-95185499D01*
X143864341Y-95191501D01*
X143884126Y-95209318D01*
X143922791Y-95279248D01*
X143960087Y-95392996D01*
X143995823Y-95548270D01*
X144061842Y-95974225D01*
X144119309Y-96538772D01*
X144166684Y-97223571D01*
X144202430Y-98010282D01*
X144225006Y-98880565D01*
X144232873Y-99816080D01*
X144232873Y-107443086D01*
X144225006Y-108378601D01*
X144202430Y-109248884D01*
X144186107Y-109653831D01*
X144166684Y-110035594D01*
X144144354Y-110391878D01*
X144119309Y-110720392D01*
X144091740Y-111018843D01*
X144061842Y-111284938D01*
X144029805Y-111516385D01*
X143995823Y-111710892D01*
X143960087Y-111866166D01*
X143922791Y-111979914D01*
X143903617Y-112020499D01*
X143884126Y-112049844D01*
X143864341Y-112067661D01*
X143844285Y-112073663D01*
X142422776Y-112073663D01*
X142422776Y-155214570D01*
X142418579Y-155390300D01*
X142406119Y-155563664D01*
X142385598Y-155734452D01*
X142357217Y-155902453D01*
X142321174Y-156067456D01*
X142277672Y-156229251D01*
X142226910Y-156387627D01*
X142169088Y-156542374D01*
X142104408Y-156693279D01*
X142033069Y-156840134D01*
X141955272Y-156982727D01*
X141871217Y-157120846D01*
X141781105Y-157254283D01*
X141685136Y-157382825D01*
X141583511Y-157506262D01*
X141476430Y-157624384D01*
X141364093Y-157736980D01*
X141246701Y-157843838D01*
X141124455Y-157944749D01*
X140997553Y-158039501D01*
X140866198Y-158127884D01*
X140730589Y-158209688D01*
X140590928Y-158284700D01*
X140447413Y-158352711D01*
X140300246Y-158413510D01*
X140149627Y-158466886D01*
X139995757Y-158512629D01*
X139838836Y-158550527D01*
X139679064Y-158580370D01*
X139516641Y-158601948D01*
X139351769Y-158615049D01*
X139184648Y-158619462D01*
X80121237Y-158619462D01*
X79954114Y-158615049D01*
X79789241Y-158601947D01*
X79626818Y-158580370D01*
X79467046Y-158550526D01*
X79310124Y-158512628D01*
X79156253Y-158466885D01*
X79005634Y-158413508D01*
X78858467Y-158352709D01*
X78714952Y-158284697D01*
X78575290Y-158209684D01*
X78439681Y-158127881D01*
X78308326Y-158039497D01*
X78181424Y-157944745D01*
X78059177Y-157843833D01*
X77941785Y-157736975D01*
X77829448Y-157624379D01*
X77722367Y-157506256D01*
X77620742Y-157382819D01*
X77524773Y-157254276D01*
X77434661Y-157120840D01*
X77350607Y-156982720D01*
X77272810Y-156840127D01*
X77201471Y-156693273D01*
X77136791Y-156542367D01*
X77078969Y-156387621D01*
X77028207Y-156229246D01*
X76984705Y-156067451D01*
X76948662Y-155902449D01*
X76920281Y-155734448D01*
X76899760Y-155563662D01*
X76887300Y-155390299D01*
X76883103Y-155214570D01*
X76883103Y-132452493D01*
X76487996Y-132200119D01*
X76106888Y-131947066D01*
X75749201Y-131699224D01*
X75582085Y-131579098D01*
X75424359Y-131462485D01*
X75277200Y-131350119D01*
X75141785Y-131242739D01*
X75019294Y-131141079D01*
X74910904Y-131045877D01*
X74817793Y-130957869D01*
X74741138Y-130877791D01*
X74682119Y-130806379D01*
X74659590Y-130774154D01*
X74641912Y-130744371D01*
X74585060Y-130584039D01*
X74537060Y-130341073D01*
X74497767Y-130027292D01*
X74467036Y-129654516D01*
X74430684Y-128779262D01*
X74426849Y-127809871D01*
X74454374Y-126840902D01*
X74512103Y-125966917D01*
X74551933Y-125595093D01*
X74598880Y-125282474D01*
X74652800Y-125040882D01*
X74713548Y-124882135D01*
X74753476Y-124823505D01*
X74811175Y-124756566D01*
X74885572Y-124681951D01*
X74975591Y-124600294D01*
X75080157Y-124512229D01*
X75198195Y-124418389D01*
X75470390Y-124215919D01*
X75783577Y-123997955D01*
X76129157Y-123769565D01*
X76498532Y-123535820D01*
X76883103Y-123301790D01*
X76883103Y-109663232D01*
X76471128Y-109402827D01*
X76071585Y-109140047D01*
X75694982Y-108881461D01*
X75518565Y-108755795D01*
X75351824Y-108633641D01*
X75196071Y-108515822D01*
X75052619Y-108403157D01*
X74922782Y-108296470D01*
X74807874Y-108196581D01*
X74709207Y-108104310D01*
X74628096Y-108020481D01*
X74565852Y-107945913D01*
X74542217Y-107912359D01*
X74523791Y-107881429D01*
X74466939Y-107721096D01*
X74418939Y-107478128D01*
X74379646Y-107164347D01*
X74348915Y-106791571D01*
X74312563Y-105916316D01*
X74308728Y-104946925D01*
X74336253Y-103977957D01*
X74393982Y-103103972D01*
X74433812Y-102732149D01*
X74480759Y-102419531D01*
X74534679Y-102177939D01*
X74595427Y-102019193D01*
X74637222Y-101958179D01*
X74698114Y-101888242D01*
X74776904Y-101810089D01*
X74872389Y-101724430D01*
X74983368Y-101631972D01*
X75108639Y-101533423D01*
X75397252Y-101320887D01*
X75728616Y-101092488D01*
X76093119Y-100853890D01*
X76481150Y-100610759D01*
X76883094Y-100368760D01*
X76883094Y-86700004D01*
X76490154Y-86448675D01*
X76111390Y-86196861D01*
X75756095Y-85950370D01*
X75590151Y-85830937D01*
X75433559Y-85715013D01*
X75287479Y-85603326D01*
X75153073Y-85496602D01*
X75031502Y-85395567D01*
X74923928Y-85300946D01*
X74831512Y-85213467D01*
X74755415Y-85133856D01*
X74696799Y-85062839D01*
X74674409Y-85030780D01*
X74656826Y-85001142D01*
X74599972Y-84840809D01*
X74551967Y-84597841D01*
X74512667Y-84284058D01*
X74481927Y-83911281D01*
X74445552Y-83036025D01*
X74441690Y-82066631D01*
X74469188Y-81097662D01*
X74526894Y-80223677D01*
X74566714Y-79851854D01*
X74613654Y-79539238D01*
X74667570Y-79297648D01*
X74728317Y-79138904D01*
X74768012Y-79080574D01*
X74825317Y-79014013D01*
X74899172Y-78939844D01*
X74988515Y-78858693D01*
X75092289Y-78771184D01*
X75209433Y-78677941D01*
X75479593Y-78476751D01*
X75790517Y-78260118D01*
X76133727Y-78033039D01*
X76500745Y-77800508D01*
X76883094Y-77567520D01*
X76883094Y-62193185D01*
X76887292Y-62017468D01*
X76899752Y-61844139D01*
X76920273Y-61673406D01*
X76948654Y-61505478D01*
X76984697Y-61340563D01*
X77028200Y-61178869D01*
X77078962Y-61020605D01*
X77136784Y-60865978D01*
X77201464Y-60715199D01*
X77272803Y-60568474D01*
X77350601Y-60426013D01*
X77434655Y-60288024D01*
X77524767Y-60154715D01*
X77620737Y-60026295D01*
X77722362Y-59902972D01*
X77829443Y-59784954D01*
X77941780Y-59672450D01*
X78059173Y-59565669D01*
X78181420Y-59464818D01*
X78308321Y-59370107D01*
X78439676Y-59281743D01*
X78575285Y-59199935D01*
X78714947Y-59124892D01*
X78858462Y-59056821D01*
X79005629Y-58995932D01*
X79156248Y-58942432D01*
X79310119Y-58896530D01*
X79467040Y-58858436D01*
X79626812Y-58828355D01*
X79789235Y-58806499D01*
X79954107Y-58793074D01*
X80121228Y-58788289D01*
X138018991Y-58652138D01*
X138098469Y-58655771D01*
D11*
X81664800Y-62433200D02*
G75*
G02*
X78964800Y-62433200I-1350000J0D01*
G01*
X78964800Y-62433200D02*
G75*
G02*
X81664800Y-62433200I1350000J0D01*
G01*
X81766400Y-155092400D02*
G75*
G02*
X79066400Y-155092400I-1350000J0D01*
G01*
X79066400Y-155092400D02*
G75*
G02*
X81766400Y-155092400I1350000J0D01*
G01*
D12*
X91561600Y-75894400D02*
X124561600Y-75894400D01*
X124561600Y-94894400D01*
X91561600Y-94894400D01*
X91561600Y-75894400D01*
X99187000Y-127127000D02*
G75*
G02*
X93187000Y-127127000I-3000000J0D01*
G01*
X93187000Y-127127000D02*
G75*
G02*
X99187000Y-127127000I3000000J0D01*
G01*
X104571800Y-137007600D02*
G75*
G02*
X98571800Y-137007600I-3000000J0D01*
G01*
X98571800Y-137007600D02*
G75*
G02*
X104571800Y-137007600I3000000J0D01*
G01*
D11*
X109905800Y-112369600D02*
G75*
G02*
X107924600Y-112369600I-990600J0D01*
G01*
X107924600Y-112369600D02*
G75*
G02*
X109905800Y-112369600I990600J0D01*
G01*
D12*
X119964200Y-136855200D02*
G75*
G02*
X113964200Y-136855200I-3000000J0D01*
G01*
X113964200Y-136855200D02*
G75*
G02*
X119964200Y-136855200I3000000J0D01*
G01*
X124764800Y-126974600D02*
G75*
G02*
X118764800Y-126974600I-3000000J0D01*
G01*
X118764800Y-126974600D02*
G75*
G02*
X124764800Y-126974600I3000000J0D01*
G01*
D11*
X138611600Y-63703200D02*
G75*
G02*
X135911600Y-63703200I-1350000J0D01*
G01*
X135911600Y-63703200D02*
G75*
G02*
X138611600Y-63703200I1350000J0D01*
G01*
X139627600Y-155092400D02*
G75*
G02*
X136927600Y-155092400I-1350000J0D01*
G01*
X136927600Y-155092400D02*
G75*
G02*
X139627600Y-155092400I1350000J0D01*
G01*
M02*
